<?xml version="1.0" encoding="UTF-8"?>
<!-- Do not edit this file with editors other than draw.io -->
<!DOCTYPE svg PUBLIC "-//W3C//DTD SVG 1.1//EN" "http://www.w3.org/Graphics/SVG/1.1/DTD/svg11.dtd">
<svg xmlns="http://www.w3.org/2000/svg" xmlns:xlink="http://www.w3.org/1999/xlink" version="1.1" width="50px" height="40px" viewBox="-0.5 -0.5 50 40" content="&lt;mxfile host=&quot;Electron&quot; modified=&quot;2024-05-26T14:27:18.178Z&quot; agent=&quot;Mozilla/5.0 (Windows NT 10.0; Win64; x64) AppleWebKit/537.36 (KHTML, like Gecko) draw.io/24.4.8 Chrome/124.0.6367.207 Electron/30.0.6 Safari/537.36&quot; version=&quot;24.4.8&quot; etag=&quot;-1MGgVXZwqIs9Zl-nTJ4&quot; type=&quot;device&quot; scale=&quot;1&quot; border=&quot;0&quot;&gt;&#10;  &lt;diagram name=&quot;Page-1&quot; id=&quot;ZRz5c2LqEKlFowCaGrg8&quot;&gt;&#10;    &lt;mxGraphModel dx=&quot;692&quot; dy=&quot;469&quot; grid=&quot;1&quot; gridSize=&quot;10&quot; guides=&quot;1&quot; tooltips=&quot;1&quot; connect=&quot;1&quot; arrows=&quot;1&quot; fold=&quot;1&quot; page=&quot;1&quot; pageScale=&quot;1&quot; pageWidth=&quot;827&quot; pageHeight=&quot;1169&quot; math=&quot;0&quot; shadow=&quot;0&quot;&gt;&#10;      &lt;root&gt;&#10;        &lt;mxCell id=&quot;0&quot; /&gt;&#10;        &lt;mxCell id=&quot;1&quot; parent=&quot;0&quot; /&gt;&#10;        &lt;mxCell id=&quot;2&quot; value=&quot;&quot; style=&quot;points=[[0.03,0.03,0],[0.5,0,0],[0.97,0.03,0],[1,0.4,0],[0.97,0.745,0],[0.5,1,0],[0.03,0.745,0],[0,0.4,0]];verticalLabelPosition=bottom;sketch=0;html=1;verticalAlign=top;aspect=fixed;align=center;pointerEvents=1;shape=mxgraph.cisco19.workstation;fillColor=#3c708a;strokeColor=none;&quot; vertex=&quot;1&quot; parent=&quot;1&quot;&gt;&#10;          &lt;mxGeometry x=&quot;133&quot; y=&quot;280&quot; width=&quot;50&quot; height=&quot;40&quot; as=&quot;geometry&quot; /&gt;&#10;        &lt;/mxCell&gt;&#10;      &lt;/root&gt;&#10;    &lt;/mxGraphModel&gt;&#10;  &lt;/diagram&gt;&#10;&lt;/mxfile&gt;&#10;"><defs/><g><g><rect x="0" y="0" width="50" height="40" fill="none" stroke="none" pointer-events="all"/><path d="M 5.85 4.65 L 43.84 4.65 L 43.84 26.24 L 5.85 26.24 Z M 4.96 2 L 45.04 2 C 46.61 2 47.85 3.15 47.85 4.61 L 47.85 26.52 C 47.85 27.98 46.61 29.13 45.04 29.13 L 4.96 29.13 C 3.38 29.13 2.15 27.98 2.15 26.52 L 2.15 4.61 C 2.15 3.15 3.38 2 4.96 2 Z M 4.96 0 C 2.23 0 0 2.08 0 4.61 L 0 26.52 C 0 29.06 2.23 31.14 4.96 31.14 L 20.55 31.14 L 20.55 35.7 L 13.1 35.7 C 11.83 35.7 10.79 36.66 10.79 37.84 C 10.79 39.03 11.83 39.99 13.1 39.99 L 36.67 39.99 C 37.94 39.99 38.97 39.03 38.97 37.84 C 38.97 36.66 37.94 35.7 36.67 35.7 L 30.24 35.7 L 30.24 31.14 L 45.04 31.14 C 47.77 31.14 50 29.06 50 26.52 L 50 4.61 C 50 2.08 47.77 0 45.04 0 Z" fill="#3c708a" stroke="none" pointer-events="all"/></g></g></svg>