<?xml version="1.0" encoding="UTF-8"?>
<!-- Do not edit this file with editors other than draw.io -->
<!DOCTYPE svg PUBLIC "-//W3C//DTD SVG 1.1//EN" "http://www.w3.org/Graphics/SVG/1.1/DTD/svg11.dtd">
<svg xmlns="http://www.w3.org/2000/svg" xmlns:xlink="http://www.w3.org/1999/xlink" version="1.1" width="58px" height="35px" viewBox="-0.5 -0.5 58 35" content="&lt;mxfile host=&quot;Electron&quot; modified=&quot;2024-05-28T17:26:43.458Z&quot; agent=&quot;Mozilla/5.0 (Windows NT 10.0; Win64; x64) AppleWebKit/537.36 (KHTML, like Gecko) draw.io/24.4.8 Chrome/124.0.6367.207 Electron/30.0.6 Safari/537.36&quot; version=&quot;24.4.8&quot; etag=&quot;MsKA32PHyLAroKtbY-io&quot; type=&quot;device&quot; scale=&quot;1&quot; border=&quot;0&quot;&gt;&#10;  &lt;diagram name=&quot;Page-1&quot; id=&quot;lv8UKbTAu9R38EDWPg_t&quot;&gt;&#10;    &lt;mxGraphModel dx=&quot;519&quot; dy=&quot;352&quot; grid=&quot;1&quot; gridSize=&quot;10&quot; guides=&quot;1&quot; tooltips=&quot;1&quot; connect=&quot;1&quot; arrows=&quot;1&quot; fold=&quot;1&quot; page=&quot;1&quot; pageScale=&quot;1&quot; pageWidth=&quot;827&quot; pageHeight=&quot;1169&quot; math=&quot;0&quot; shadow=&quot;0&quot;&gt;&#10;      &lt;root&gt;&#10;        &lt;mxCell id=&quot;0&quot; /&gt;&#10;        &lt;mxCell id=&quot;1&quot; parent=&quot;0&quot; /&gt;&#10;        &lt;mxCell id=&quot;2&quot; value=&quot;&quot; style=&quot;points=[[0,0.64,0],[0.2,0.15,0],[0.4,0.01,0],[0.79,0.25,0],[1,0.65,0],[0.8,0.86,0],[0.41,1,0],[0.16,0.86,0]];verticalLabelPosition=bottom;sketch=0;html=1;verticalAlign=top;aspect=fixed;align=center;pointerEvents=1;shape=mxgraph.cisco19.cloud2;fillColor=#C4C4C4;strokeColor=none;&quot; vertex=&quot;1&quot; parent=&quot;1&quot;&gt;&#10;          &lt;mxGeometry x=&quot;210.06&quot; y=&quot;1005&quot; width=&quot;58&quot; height=&quot;34.8&quot; as=&quot;geometry&quot; /&gt;&#10;        &lt;/mxCell&gt;&#10;      &lt;/root&gt;&#10;    &lt;/mxGraphModel&gt;&#10;  &lt;/diagram&gt;&#10;&lt;/mxfile&gt;&#10;"><defs/><g><g><rect x="-0.94" y="0" width="58" height="34.8" fill="none" stroke="none" pointer-events="all"/><path d="M 35.2 29.54 C 32.39 32.47 27.89 34.8 22.8 34.8 C 18.97 34.8 14.28 33.26 11.05 30.13 C 2.43 30.01 -0.94 26.59 -0.94 22.19 C -0.94 18.55 1.94 15.98 5.76 14.77 C 7.07 6.94 13.52 1.14 21.58 0.47 C 29.5 0 35.09 4.53 37.42 8.38 C 39.98 7.85 42.59 7.65 45.3 9.1 C 47.65 10.43 49.04 12.61 49.89 14.58 C 54.15 16.01 57.06 18.72 57.06 22.03 C 57.06 26.07 54.03 29.56 46.74 30.08 C 42.97 30.33 39.41 29.95 35.2 29.54 Z" fill="#c4c4c4" stroke="none" pointer-events="all"/><path d="M 45.45 12.42 C 45.04 12.01 44.57 11.65 44.05 11.35 C 42.05 10.28 40.28 10.41 37.95 10.89 L 36.16 11.26 L 35.22 9.7 C 33.37 6.65 28.61 2.64 21.76 3.03 C 14.83 3.62 9.42 8.52 8.3 15.19 L 8.04 16.73 L 6.54 17.21 C 4.96 17.71 3.66 18.49 2.84 19.34 C 2.05 20.17 1.66 20.99 1.64 22.09 Z" fill-opacity="0.5" fill="#ffffff" stroke="none" pointer-events="all"/></g></g></svg>