<?xml version="1.0" encoding="UTF-8"?>
<!-- Do not edit this file with editors other than draw.io -->
<!DOCTYPE svg PUBLIC "-//W3C//DTD SVG 1.1//EN" "http://www.w3.org/Graphics/SVG/1.1/DTD/svg11.dtd">
<svg xmlns="http://www.w3.org/2000/svg" xmlns:xlink="http://www.w3.org/1999/xlink" version="1.1" width="59px" height="36px" viewBox="-0.5 -0.5 59 36" content="&lt;mxfile host=&quot;Electron&quot; modified=&quot;2024-05-28T18:09:01.409Z&quot; agent=&quot;Mozilla/5.0 (Windows NT 10.0; Win64; x64) AppleWebKit/537.36 (KHTML, like Gecko) draw.io/24.4.8 Chrome/124.0.6367.207 Electron/30.0.6 Safari/537.36&quot; version=&quot;24.4.8&quot; etag=&quot;y0jKw60oxEb6Ewbg3_Ko&quot; type=&quot;device&quot; scale=&quot;1&quot; border=&quot;0&quot;&gt;&#10;  &lt;diagram name=&quot;Page-1&quot; id=&quot;TxCytqxKrNHGAyfKRE80&quot;&gt;&#10;    &lt;mxGraphModel dx=&quot;519&quot; dy=&quot;352&quot; grid=&quot;1&quot; gridSize=&quot;10&quot; guides=&quot;1&quot; tooltips=&quot;1&quot; connect=&quot;1&quot; arrows=&quot;1&quot; fold=&quot;1&quot; page=&quot;1&quot; pageScale=&quot;1&quot; pageWidth=&quot;827&quot; pageHeight=&quot;1169&quot; math=&quot;0&quot; shadow=&quot;0&quot;&gt;&#10;      &lt;root&gt;&#10;        &lt;mxCell id=&quot;0&quot; /&gt;&#10;        &lt;mxCell id=&quot;1&quot; parent=&quot;0&quot; /&gt;&#10;        &lt;mxCell id=&quot;2&quot; value=&quot;&quot; style=&quot;points=[[0,0.64,0],[0.2,0.15,0],[0.4,0.01,0],[0.79,0.25,0],[1,0.65,0],[0.8,0.86,0],[0.41,1,0],[0.16,0.86,0]];verticalLabelPosition=bottom;sketch=0;html=1;verticalAlign=top;aspect=fixed;align=center;pointerEvents=1;shape=mxgraph.cisco19.cloud2;fillColor=#EDEDED;strokeColor=#6c8ebf;&quot; vertex=&quot;1&quot; parent=&quot;1&quot;&gt;&#10;          &lt;mxGeometry x=&quot;137&quot; y=&quot;1004.97&quot; width=&quot;58&quot; height=&quot;34.8&quot; as=&quot;geometry&quot; /&gt;&#10;        &lt;/mxCell&gt;&#10;      &lt;/root&gt;&#10;    &lt;/mxGraphModel&gt;&#10;  &lt;/diagram&gt;&#10;&lt;/mxfile&gt;&#10;"><defs/><g><g><rect x="0" y="-0.03" width="58" height="34.8" fill="none" stroke="none" pointer-events="all"/><path d="M 36.14 29.51 C 33.33 32.44 28.83 34.77 23.74 34.77 C 19.91 34.77 15.22 33.23 11.99 30.1 C 3.37 29.98 0 26.56 0 22.16 C 0 18.52 2.88 15.95 6.7 14.74 C 8.01 6.91 14.46 1.11 22.52 0.44 C 30.44 -0.03 36.03 4.5 38.36 8.35 C 40.92 7.82 43.53 7.62 46.24 9.07 C 48.59 10.4 49.98 12.58 50.83 14.55 C 55.09 15.98 58 18.69 58 22 C 58 26.04 54.97 29.53 47.68 30.05 C 43.91 30.3 40.35 29.92 36.14 29.51 Z" fill="#ededed" stroke="none" pointer-events="all"/><path d="M 46.39 12.39 C 45.98 11.98 45.51 11.62 44.99 11.32 C 42.99 10.25 41.22 10.38 38.89 10.86 L 37.1 11.23 L 36.16 9.67 C 34.31 6.62 29.55 2.61 22.7 3 C 15.77 3.59 10.36 8.49 9.24 15.16 L 8.98 16.7 L 7.48 17.18 C 5.9 17.68 4.6 18.46 3.78 19.31 C 2.99 20.14 2.6 20.96 2.58 22.06 Z" fill-opacity="0.5" fill="#ffffff" stroke="none" pointer-events="all"/></g></g></svg>