<?xml version="1.0" encoding="UTF-8"?>
<!-- Do not edit this file with editors other than draw.io -->
<!DOCTYPE svg PUBLIC "-//W3C//DTD SVG 1.1//EN" "http://www.w3.org/Graphics/SVG/1.1/DTD/svg11.dtd">
<svg xmlns="http://www.w3.org/2000/svg" xmlns:xlink="http://www.w3.org/1999/xlink" version="1.1" width="58px" height="35px" viewBox="-0.5 -0.5 58 35" content="&lt;mxfile host=&quot;Electron&quot; modified=&quot;2024-05-28T17:25:59.486Z&quot; agent=&quot;Mozilla/5.0 (Windows NT 10.0; Win64; x64) AppleWebKit/537.36 (KHTML, like Gecko) draw.io/24.4.8 Chrome/124.0.6367.207 Electron/30.0.6 Safari/537.36&quot; version=&quot;24.4.8&quot; etag=&quot;tVbThQlyuq-0u16ApVbS&quot; type=&quot;device&quot; scale=&quot;1&quot; border=&quot;0&quot;&gt;&#10;  &lt;diagram name=&quot;Page-1&quot; id=&quot;ChNlrQLD5A3EeZlRqqOJ&quot;&gt;&#10;    &lt;mxGraphModel dx=&quot;519&quot; dy=&quot;352&quot; grid=&quot;1&quot; gridSize=&quot;10&quot; guides=&quot;1&quot; tooltips=&quot;1&quot; connect=&quot;1&quot; arrows=&quot;1&quot; fold=&quot;1&quot; page=&quot;1&quot; pageScale=&quot;1&quot; pageWidth=&quot;827&quot; pageHeight=&quot;1169&quot; math=&quot;0&quot; shadow=&quot;0&quot;&gt;&#10;      &lt;root&gt;&#10;        &lt;mxCell id=&quot;0&quot; /&gt;&#10;        &lt;mxCell id=&quot;1&quot; parent=&quot;0&quot; /&gt;&#10;        &lt;mxCell id=&quot;2&quot; value=&quot;&quot; style=&quot;points=[[0,0.64,0],[0.2,0.15,0],[0.4,0.01,0],[0.79,0.25,0],[1,0.65,0],[0.8,0.86,0],[0.41,1,0],[0.16,0.86,0]];verticalLabelPosition=bottom;sketch=0;html=1;verticalAlign=top;aspect=fixed;align=center;pointerEvents=1;shape=mxgraph.cisco19.cloud2;fillColor=#FFE9AA;strokeColor=none;gradientColor=none;&quot; vertex=&quot;1&quot; parent=&quot;1&quot;&gt;&#10;          &lt;mxGeometry x=&quot;135.5&quot; y=&quot;952.5&quot; width=&quot;58&quot; height=&quot;34.8&quot; as=&quot;geometry&quot; /&gt;&#10;        &lt;/mxCell&gt;&#10;      &lt;/root&gt;&#10;    &lt;/mxGraphModel&gt;&#10;  &lt;/diagram&gt;&#10;&lt;/mxfile&gt;&#10;"><defs/><g><g><rect x="-0.5" y="-0.5" width="58" height="34.8" fill="none" stroke="none" pointer-events="all"/><path d="M 35.64 29.04 C 32.83 31.97 28.33 34.3 23.24 34.3 C 19.41 34.3 14.72 32.76 11.49 29.63 C 2.87 29.51 -0.5 26.09 -0.5 21.69 C -0.5 18.05 2.38 15.48 6.2 14.27 C 7.51 6.44 13.96 0.64 22.02 -0.03 C 29.94 -0.5 35.53 4.03 37.86 7.88 C 40.42 7.35 43.03 7.15 45.74 8.6 C 48.09 9.93 49.48 12.11 50.33 14.08 C 54.59 15.51 57.5 18.22 57.5 21.53 C 57.5 25.57 54.47 29.06 47.18 29.58 C 43.41 29.83 39.85 29.45 35.64 29.04 Z" fill="#ffe9aa" stroke="none" pointer-events="all"/><path d="M 45.89 11.92 C 45.48 11.51 45.01 11.15 44.49 10.85 C 42.49 9.78 40.72 9.91 38.39 10.39 L 36.6 10.76 L 35.66 9.2 C 33.81 6.15 29.05 2.14 22.2 2.53 C 15.27 3.12 9.86 8.02 8.74 14.69 L 8.48 16.23 L 6.98 16.71 C 5.4 17.21 4.1 17.99 3.28 18.84 C 2.49 19.67 2.1 20.49 2.08 21.59 Z" fill-opacity="0.5" fill="#ffffff" stroke="none" pointer-events="all"/></g></g></svg>