<?xml version="1.0" encoding="UTF-8"?>
<!-- Do not edit this file with editors other than draw.io -->
<!DOCTYPE svg PUBLIC "-//W3C//DTD SVG 1.1//EN" "http://www.w3.org/Graphics/SVG/1.1/DTD/svg11.dtd">
<svg xmlns="http://www.w3.org/2000/svg" xmlns:xlink="http://www.w3.org/1999/xlink" version="1.1" width="43px" height="26px" viewBox="-0.5 -0.5 43 26" content="&lt;mxfile host=&quot;Electron&quot; modified=&quot;2024-05-28T18:09:24.250Z&quot; agent=&quot;Mozilla/5.0 (Windows NT 10.0; Win64; x64) AppleWebKit/537.36 (KHTML, like Gecko) draw.io/24.4.8 Chrome/124.0.6367.207 Electron/30.0.6 Safari/537.36&quot; version=&quot;24.4.8&quot; etag=&quot;xrDTqogH0uc7em2o9qAJ&quot; type=&quot;device&quot; scale=&quot;1&quot; border=&quot;0&quot;&gt;&#10;  &lt;diagram name=&quot;Page-1&quot; id=&quot;VQ3yqQCL8adZgg291iwz&quot;&gt;&#10;    &lt;mxGraphModel dx=&quot;519&quot; dy=&quot;352&quot; grid=&quot;1&quot; gridSize=&quot;10&quot; guides=&quot;1&quot; tooltips=&quot;1&quot; connect=&quot;1&quot; arrows=&quot;1&quot; fold=&quot;1&quot; page=&quot;1&quot; pageScale=&quot;1&quot; pageWidth=&quot;827&quot; pageHeight=&quot;1169&quot; math=&quot;0&quot; shadow=&quot;0&quot;&gt;&#10;      &lt;root&gt;&#10;        &lt;mxCell id=&quot;0&quot; /&gt;&#10;        &lt;mxCell id=&quot;1&quot; parent=&quot;0&quot; /&gt;&#10;        &lt;mxCell id=&quot;2&quot; value=&quot;&quot; style=&quot;points=[[0,0.64,0],[0.2,0.15,0],[0.4,0.01,0],[0.79,0.25,0],[1,0.65,0],[0.8,0.86,0],[0.41,1,0],[0.16,0.86,0]];verticalLabelPosition=bottom;sketch=0;html=1;verticalAlign=top;aspect=fixed;align=center;pointerEvents=1;shape=mxgraph.cisco19.cloud2;fillColor=#EDEDED;strokeColor=none;&quot; vertex=&quot;1&quot; parent=&quot;1&quot;&gt;&#10;          &lt;mxGeometry x=&quot;410.64&quot; y=&quot;1015.8000000000001&quot; width=&quot;43&quot; height=&quot;25.8&quot; as=&quot;geometry&quot; /&gt;&#10;        &lt;/mxCell&gt;&#10;      &lt;/root&gt;&#10;    &lt;/mxGraphModel&gt;&#10;  &lt;/diagram&gt;&#10;&lt;/mxfile&gt;&#10;"><defs/><g><g><rect x="-0.36" y="-0.2" width="43" height="25.8" fill="none" stroke="none" pointer-events="all"/><path d="M 26.43 21.7 C 24.35 23.88 21.01 25.6 17.24 25.6 C 14.4 25.6 10.92 24.45 8.53 22.14 C 2.14 22.05 -0.36 19.52 -0.36 16.25 C -0.36 13.55 1.78 11.65 4.6 10.75 C 5.58 4.95 10.36 0.64 16.34 0.15 C 22.21 -0.2 26.35 3.16 28.08 6.01 C 29.97 5.62 31.92 5.47 33.92 6.55 C 35.67 7.53 36.7 9.15 37.32 10.61 C 40.48 11.67 42.64 13.68 42.64 16.14 C 42.64 19.13 40.39 21.72 34.99 22.1 C 32.19 22.29 29.55 22.01 26.43 21.7 Z" fill="#ededed" stroke="none" pointer-events="all"/><path d="M 34.03 9.01 C 33.73 8.71 33.38 8.44 32.99 8.22 C 31.51 7.42 30.2 7.52 28.47 7.87 L 27.15 8.15 L 26.45 6.99 C 25.07 4.73 21.55 1.76 16.47 2.05 C 11.33 2.48 7.32 6.11 6.49 11.06 L 6.3 12.21 L 5.19 12.56 C 4.01 12.93 3.05 13.51 2.44 14.14 C 1.86 14.75 1.57 15.36 1.55 16.18 Z" fill-opacity="0.5" fill="#ffffff" stroke="none" pointer-events="all"/></g></g></svg>