<?xml version="1.0" encoding="UTF-8"?>
<!-- Do not edit this file with editors other than draw.io -->
<!DOCTYPE svg PUBLIC "-//W3C//DTD SVG 1.1//EN" "http://www.w3.org/Graphics/SVG/1.1/DTD/svg11.dtd">
<svg xmlns="http://www.w3.org/2000/svg" xmlns:xlink="http://www.w3.org/1999/xlink" version="1.1" width="50px" height="50px" viewBox="-0.5 -0.5 50 50" content="&lt;mxfile host=&quot;Electron&quot; modified=&quot;2024-05-28T21:37:49.021Z&quot; agent=&quot;Mozilla/5.0 (Windows NT 10.0; Win64; x64) AppleWebKit/537.36 (KHTML, like Gecko) draw.io/24.4.8 Chrome/124.0.6367.207 Electron/30.0.6 Safari/537.36&quot; version=&quot;24.4.8&quot; etag=&quot;hU8IMrvwGe0CR_TOvrA8&quot; type=&quot;device&quot; scale=&quot;1&quot; border=&quot;0&quot;&gt;&#10;  &lt;diagram name=&quot;Page-1&quot; id=&quot;g7Yu-HQfFPCh6ORjgzWy&quot;&gt;&#10;    &lt;mxGraphModel dx=&quot;1038&quot; dy=&quot;704&quot; grid=&quot;1&quot; gridSize=&quot;10&quot; guides=&quot;1&quot; tooltips=&quot;1&quot; connect=&quot;1&quot; arrows=&quot;1&quot; fold=&quot;1&quot; page=&quot;1&quot; pageScale=&quot;1&quot; pageWidth=&quot;827&quot; pageHeight=&quot;1169&quot; math=&quot;0&quot; shadow=&quot;0&quot;&gt;&#10;      &lt;root&gt;&#10;        &lt;mxCell id=&quot;0&quot; /&gt;&#10;        &lt;mxCell id=&quot;1&quot; parent=&quot;0&quot; /&gt;&#10;        &lt;mxCell id=&quot;2&quot; value=&quot;&quot; style=&quot;sketch=0;pointerEvents=1;shadow=0;dashed=0;html=1;strokeColor=none;fillColor=#3C708A;aspect=fixed;labelPosition=center;verticalLabelPosition=bottom;verticalAlign=top;align=center;outlineConnect=0;shape=mxgraph.vvd.networking;&quot; vertex=&quot;1&quot; parent=&quot;1&quot;&gt;&#10;          &lt;mxGeometry x=&quot;178&quot; y=&quot;1104.06&quot; width=&quot;50&quot; height=&quot;50&quot; as=&quot;geometry&quot; /&gt;&#10;        &lt;/mxCell&gt;&#10;      &lt;/root&gt;&#10;    &lt;/mxGraphModel&gt;&#10;  &lt;/diagram&gt;&#10;&lt;/mxfile&gt;&#10;"><defs/><g><g><rect x="0" y="-0.94" width="50" height="50" fill="none" stroke="none" pointer-events="all"/><path d="M 13.14 6.08 C 12.86 6.07 12.91 6.04 12.76 5.88 C 12.66 5.79 12.54 5.86 12.5 5.63 C 12.48 5.52 12.47 5.35 12.59 5.27 C 12.87 5.08 13.3 5.15 13.53 5.32 C 13.71 5.45 13.41 6.08 13.14 6.08 Z M 25 -0.94 C 11.2 -0.94 0 10.26 0 24.06 C 0 37.86 11.2 49.06 25 49.06 C 38.8 49.06 50 37.86 50 24.06 C 50 10.26 38.8 -0.94 25 -0.94 Z M 25 0.21 C 29.89 0.21 34.43 1.68 38.22 4.2 C 38.19 4.36 38.06 4.48 37.86 4.64 C 37.72 4.76 37.59 4.84 37.59 5.18 C 37.58 5.43 37.19 5.7 37.4 6.01 C 37.73 6.49 38.38 6.76 38.62 6.51 C 38.83 6.29 38.31 6.31 38.31 5.69 C 38.31 5.32 38.6 4.85 38.79 4.6 C 39.44 5.06 40.07 5.56 40.68 6.09 C 40.63 6.17 40.58 6.26 40.55 6.36 C 40.5 6.48 40.51 7.01 40.55 7.12 C 40.75 7.58 40.52 7.36 40.39 7.19 C 40.23 6.99 40.03 6.96 39.86 6.93 C 39.55 6.88 39.64 7.08 39.32 6.78 C 39.1 6.59 38.94 6.83 39.15 6.99 C 39.34 7.13 39.52 7.23 39.36 7.31 C 38.84 7.56 38.68 7.43 38.37 7.4 C 37.94 7.35 38.07 7.56 37.78 7.6 C 37.59 7.62 37.59 7.56 37.46 7.68 C 37.17 7.93 37.21 7.81 37.04 7.95 C 36.94 8.03 36.78 8.31 36.65 8.28 C 36.29 8.19 36.5 7.87 36.28 7.79 C 36.09 7.73 36.07 7.88 36.09 8.04 C 36.12 8.36 35.98 8.38 35.79 8.33 C 35.57 8.28 35.61 8.27 35.4 8.5 C 35.32 8.59 35.21 8.58 35.27 8.76 C 35.3 8.87 35.19 8.89 35.14 8.94 C 35.04 9.04 35.13 9.02 35 9.16 C 34.7 9.47 34.66 9.33 34.46 9.15 C 34.18 8.9 34.35 8.79 34.15 8.54 C 33.73 8.01 33.91 8.01 34.37 8.26 C 34.75 8.47 35.37 8.45 35.45 8.08 C 35.55 7.61 34.28 6.95 33.98 6.93 C 33.57 6.89 33.69 6.65 33.46 6.59 C 33.25 6.54 33.38 6.57 33.14 6.3 C 32.73 5.83 32.77 5.97 32.17 6.02 C 31.45 6.08 31.44 6.24 31.15 6.22 C 30.8 6.21 30.63 6.84 30.14 7.08 C 29.74 7.27 29.42 7.51 29.95 7.57 C 30.42 7.63 29.99 8.12 29.67 8.41 C 29.5 8.57 29.18 9.06 28.97 9.09 C 28.7 9.14 28.52 9.5 28.24 9.72 C 27.99 9.92 27.8 9.85 27.77 10.16 C 27.71 10.88 27.81 11.24 28 11.54 C 28.19 11.85 28.37 11.45 28.61 11.46 C 28.83 11.46 28.73 11.4 28.96 11.39 C 29.33 11.37 29.09 11.67 29.4 12.05 C 29.69 12.41 29.49 12.5 29.65 12.54 C 29.79 12.57 29.76 12.45 29.97 12.28 C 30.07 12.19 30.34 12.43 30.33 12.09 C 30.3 11.36 30.38 11.49 30.65 11.25 C 30.94 11.01 30.34 10.93 30.35 10.58 C 30.36 10.28 30.59 9.72 30.74 9.52 C 30.94 9.24 31.28 9.29 31.27 8.98 C 31.26 8.47 31.5 8.33 31.79 8.39 C 32.45 8.54 31.7 9.33 31.49 9.53 C 31.29 9.71 31.49 9.77 31.46 10.21 C 31.45 10.42 31.62 10.62 31.83 10.75 C 32.11 10.91 32.2 10.57 32.37 10.56 C 32.65 10.56 32.66 10.44 32.82 10.43 C 33.16 10.4 33.17 9.94 33.58 10.37 C 33.79 10.6 33.13 10.99 32.89 11.02 C 32.32 11.1 32.52 11.19 32.2 11.28 C 31.9 11.35 31.87 11.4 31.93 11.56 C 32.04 11.9 31.83 11.98 31.74 11.96 C 31.52 11.89 31.48 11.82 31.38 11.99 C 31.22 12.27 31.34 12.32 31.23 12.47 C 30.78 13.01 30.13 13.21 29.93 13.2 C 29.27 13.17 29.36 13.36 29.04 13.35 C 28.48 13.31 28.65 13.41 28.27 13.49 C 27.87 13.59 27.91 13.46 27.74 13.63 C 27.55 13.81 27.6 13.95 27.3 14.22 C 27.07 14.44 27.04 14.49 27.08 14.23 C 27.1 14.06 27.04 14.07 26.89 13.91 C 26.76 13.77 26.74 13.95 26.72 13.69 C 26.71 13.49 26.61 13.5 26.41 13.22 C 26.14 12.81 26.17 12.8 26.16 12.68 C 26.13 12.38 26.33 12.46 26.23 12.25 C 26.15 12.1 26.01 12.28 25.95 11.87 C 25.93 11.72 25.64 11.82 25.47 11.87 C 25.25 11.94 25.13 12.16 25.08 12.43 C 25.04 12.73 25.39 12.99 25.5 13.17 C 25.6 13.33 25.73 13.18 25.94 13.38 C 26.1 13.53 26.1 13.6 25.96 13.69 C 25.59 13.93 25.75 13.89 25.59 14.06 C 25.42 14.23 25.53 14.31 25.43 14.56 C 25.29 14.91 25.54 15.07 25.9 14.9 C 26.12 14.8 26.18 14.73 26.34 14.75 C 26.61 14.79 26.56 14.66 26.67 14.64 C 27.06 14.56 26.53 14.89 26.35 15 C 25.95 15.22 25.97 15.12 25.82 15.12 C 25.54 15.13 25.46 15.35 25.66 15.47 C 26.1 15.72 25.97 15.72 26.13 15.98 C 26.3 16.26 26.57 16.43 26.27 16.88 C 26.08 17.16 25.95 16.94 25.45 16.91 C 24.78 16.87 24.82 16.96 24.6 17 C 24.45 17.03 24.44 17.04 24.5 17.16 C 24.62 17.41 24.57 17.87 24.52 18.07 C 24.42 18.48 24.4 18.68 24.52 18.94 C 24.67 19.24 24.81 18.81 25.15 19.27 C 25.29 19.44 25.33 19.36 25.45 19.27 C 25.67 19.09 25.79 19.25 25.97 19.13 C 26.13 19.03 26.02 18.97 26.24 18.87 C 26.43 18.79 26.58 18.62 26.57 18.39 C 26.56 17.95 26.64 18.04 26.67 18.02 C 26.82 17.92 26.83 17.79 27.01 17.65 C 27.24 17.48 27.24 17.56 27.31 17.28 C 27.38 17 27.54 16.91 27.74 17 C 27.88 17.07 27.92 17.23 28.26 16.91 C 28.68 16.52 28.79 16.71 28.95 17.08 C 29.2 17.63 29.78 17.91 29.97 18.07 C 30.04 18.15 30.18 18.3 30.16 18.46 C 30.15 18.56 30.07 18.8 29.93 18.78 C 29.63 18.75 29.82 18.99 29.88 19.07 C 30.02 19.27 30.04 18.83 30.19 18.82 C 30.37 18.8 30.39 18.44 30.36 18.35 C 30.24 18.03 30.72 18.3 30.68 18.1 C 30.64 17.88 29.89 17.58 29.77 17.29 C 29.66 17.02 29.3 16.93 29.33 16.55 C 29.35 16.2 29.85 16.58 29.93 16.69 C 30.22 17.09 30.38 17.11 30.5 17.17 C 31.04 17.46 31.01 17.64 31 17.77 C 30.94 18.46 31.29 18.11 31.31 18.77 C 31.32 19.35 31.95 19.14 32.05 19.06 C 32.5 18.71 31.64 18.48 31.89 18.16 C 32.31 17.63 32.55 17.98 32.67 18.25 C 32.78 18.51 32.66 18.81 32.9 19.02 C 33.11 19.21 33.04 19.28 33.39 19.38 C 33.71 19.48 33.6 19.09 33.91 19.36 C 34.01 19.44 34.21 19.53 34.38 19.38 C 34.66 19.16 34.81 19.58 34.8 19.99 C 34.8 20 34.68 20.26 34.68 20.58 C 34.68 20.81 34.31 21.08 34 21.03 C 33.43 20.92 33.15 21.24 32.8 21.03 C 32.47 20.83 32.28 20.89 32.04 20.72 C 31.51 20.35 31.21 20.51 31.14 20.69 C 31.05 20.96 31.3 21.27 30.59 21.16 C 30.13 21.09 30.28 20.76 29.59 20.56 C 29.11 20.43 28.86 20.13 28.9 20.04 C 29.09 19.61 28.94 19.57 29.02 19.28 C 29.14 18.88 28.52 19.13 27.34 19.15 C 26.76 19.16 26.79 19.29 26.67 19.33 C 26.21 19.5 26.18 19.64 26.03 19.66 C 25.78 19.69 25.76 19.51 25.63 19.63 C 25.57 19.69 25.53 19.66 25.41 19.57 C 25.24 19.43 25.11 19.67 25.08 19.8 C 24.97 20.35 24.72 20.02 24.41 20.52 C 24.04 21.11 24.7 21.35 23.71 22.08 C 23.11 22.51 22.99 23.17 22.81 23.33 C 22.34 23.71 22.55 24.23 22.71 24.84 C 22.98 25.84 22.39 25.52 22.62 26.43 C 22.76 27.01 23.12 27.05 23.33 27.66 C 23.57 28.39 23.93 28.42 24.21 28.75 C 24.57 29.16 24.69 29.14 25.06 29 C 25.61 28.78 25.59 29.13 25.78 29.04 C 26.54 28.66 26.47 28.81 26.74 28.69 C 27.42 28.39 27.55 28.43 27.83 28.98 C 28.01 29.34 28.31 28.94 28.43 29.03 C 28.88 29.34 28.74 29.56 28.76 29.78 C 28.8 30.53 28.62 30.29 28.61 30.63 C 28.58 31.24 28.79 30.81 29.33 32.1 C 29.65 32.86 29.45 33.04 29.63 33.55 C 29.87 34.21 29.38 34.25 29.41 34.63 C 29.44 35.06 29.18 34.85 29.23 35.54 C 29.27 36.09 29.37 35.88 29.48 36.4 C 29.61 37.05 29.85 36.51 29.85 38.06 C 29.85 38.85 30.13 38.71 30.32 39.33 C 30.51 39.92 30.64 40.01 30.5 40.3 C 30.4 40.52 30.37 40.65 30.77 40.89 C 30.94 41 31.29 40.72 31.54 40.68 C 31.84 40.63 32.02 40.75 32.41 40.57 C 32.62 40.47 33.49 39.24 33.64 38.9 C 33.91 38.31 33.47 38.17 34 37.92 C 34.29 37.78 34.52 37.65 34.32 37.03 C 34.15 36.53 34.24 36.42 34.37 36.19 C 34.87 35.39 34.85 36.05 35.44 35.28 C 35.64 35.03 35.67 33.97 35.64 33.62 C 35.6 33.22 35.3 33.29 35.46 32.85 C 35.56 32.55 35.43 32.15 35.43 32.02 C 35.42 31.62 35.78 31.29 35.98 31.02 C 36.22 30.69 36.03 30.8 36.29 30.46 C 36.99 29.51 36.61 30.32 37.28 29.46 C 37.67 28.96 37.65 28.83 37.84 28.24 C 37.99 27.8 38.11 28.02 38.22 27.37 C 38.29 26.96 38.1 27.05 37.93 27.1 C 37.66 27.18 37.66 27.02 37.44 27.2 C 37.17 27.42 37.11 27.27 36.92 27.27 C 36.51 27.27 36.63 27.22 36.56 27.12 C 36.36 26.85 36.45 26.85 36.49 26.78 C 36.57 26.64 36.76 26.76 37 26.44 C 37.1 26.3 37.24 26.23 37.57 26.16 C 38.51 25.97 38.49 25.71 38.72 25.45 C 39.08 25.07 39.18 25.16 39.33 25.04 C 39.47 24.93 39.53 24.71 39.58 24.67 C 40.03 24.25 40.23 23.99 40.22 23.75 C 40.21 23.36 39.35 22.94 39.1 23.04 C 38.63 23.24 38.53 23.13 38.28 23 C 37.86 22.76 38.15 22.63 37.97 22.43 C 37.72 22.16 37.78 22.13 37.69 21.95 C 37.47 21.49 37.6 21.32 37.88 21.32 C 38.17 21.33 38.23 21.9 38.39 22.07 C 38.7 22.39 38.99 22.51 39.27 22.4 C 39.63 22.25 39.7 22.6 40.05 22.78 C 40.41 22.96 40.46 22.67 40.62 22.82 C 40.73 22.91 40.51 22.99 40.76 23.27 C 41.19 23.74 41.04 23.78 41.09 24.03 C 41.17 24.41 41.32 24.36 41.56 24.26 C 41.77 24.17 41.71 24.45 41.7 24.66 C 41.69 24.93 41.8 24.85 41.77 25.09 C 41.69 25.77 41.85 25.68 41.89 26.13 C 41.97 27.07 42.3 27.99 42.39 28 C 42.65 28.05 42.46 27.9 42.69 27.79 C 42.9 27.7 42.9 27.69 42.92 27.31 C 42.93 27.14 43.04 27.06 43.04 26.63 C 43.04 25.88 43.34 25.94 43.64 25.6 C 44.55 24.55 44.47 24.91 44.57 24.77 C 44.67 24.63 44.62 24.59 44.72 24.45 C 44.89 24.18 45 24.51 45.27 24.23 C 45.61 23.87 45.63 24.21 45.68 24.51 C 45.73 24.84 45.78 24.71 45.91 24.9 C 46.03 25.08 45.98 25.18 46.05 25.29 C 46.29 25.62 46.44 25.19 46.69 26.19 C 47.1 27.82 46.65 27.71 46.78 28.16 C 46.9 28.59 46.98 28.36 47 29.06 C 47.01 29.54 47.08 29.94 47.48 30.06 C 47.72 30.13 47.55 29.85 47.55 29.54 C 47.56 29.01 47.47 29.03 47.23 28.62 C 46.72 27.72 47.07 27.71 47.09 27.35 C 47.13 26.65 47.47 26.96 47.67 27.46 C 47.91 28.08 48.25 27.89 48.58 27.66 C 48.34 29.23 47.95 30.75 47.42 32.2 C 47.23 32.15 47.03 32.1 47.02 31.92 C 47 31.73 47.14 31.72 47.13 31.46 C 47.11 31.09 46.86 31.25 46.87 30.96 C 46.88 30.59 46.52 30.7 46.31 30.03 C 46.23 29.76 45.93 29.44 45.77 29.57 C 45.57 29.72 45.99 29.9 45.98 30.48 C 45.98 30.79 46.28 30.77 46.38 31.23 C 46.46 31.61 46.57 31.76 46.66 31.98 C 46.85 32.44 47.09 32.5 47.26 32.62 C 46.36 34.97 45.1 37.14 43.54 39.06 C 43.39 38.97 43.23 38.84 43.16 38.7 C 43.06 38.52 43.2 38.33 43.06 38.17 C 42.95 38.06 42.8 38.18 42.8 38.34 C 42.82 38.64 42.64 38.75 42.65 38.87 C 42.66 39.31 42.5 39.21 42.44 39.41 C 42.3 39.87 42.14 39.87 41.99 39.67 C 41.7 39.29 41.67 39.38 41.44 39.31 C 41.2 39.24 41.39 38.73 41.66 38.53 C 41.87 38.38 41.79 38.27 41.64 38.26 C 41.12 38.24 40.88 38.1 40.58 38.22 C 40.26 38.35 40.35 38.49 40.11 38.81 C 39.88 39.13 39.78 39.01 39.66 38.95 C 39.53 38.87 39.36 38.86 39.22 38.96 C 38.77 39.27 38.67 39.54 38.44 39.68 C 38.23 39.8 38.12 39.97 38.12 40.12 C 38.14 40.47 37.72 40.62 37.62 40.63 C 37.44 40.65 37.5 40.57 37.13 40.7 C 36.82 40.82 36.39 41.23 36.12 41.49 C 36.06 41.56 36.02 41.54 36.02 41.73 C 36.01 42.09 35.9 42.07 35.88 42.46 C 35.85 42.98 35.94 43.36 35.98 43.38 C 36.07 43.41 35.97 43.49 35.93 43.64 C 35.85 44.04 36.21 43.93 35.8 44.66 C 35.69 44.84 35.8 45.06 36.01 45.22 C 32.72 46.94 28.98 47.91 25 47.91 C 20.53 47.91 16.34 46.68 12.77 44.54 C 12.93 44.3 12.97 43.97 12.59 43.88 C 12.42 43.87 12.41 43.75 12.11 43.6 C 11.86 43.4 11.47 43.03 11.07 42.77 C 10.91 42.76 10.8 42.88 10.6 42.7 C 10.48 42.59 10.41 42.51 10.44 42.33 C 10.44 42.25 10.21 42.14 10.09 42.11 C 10.06 41.97 10.18 41.84 10.07 41.71 C 9.81 41.46 10.06 41.22 9.94 41.16 C 9.85 41.12 9.6 41.37 9.65 41.54 C 9.7 41.7 9.93 41.88 9.75 41.98 C 9.66 42.04 9.57 42.1 9.45 42.15 C 4.37 37.78 1.15 31.3 1.15 24.06 C 1.15 21.9 1.44 19.81 1.98 17.82 C 2.21 18.24 1.97 18.45 2.24 18.59 C 2.45 18.68 2.52 19.21 2.51 19.57 C 2.51 19.85 2.83 19.77 2.84 19.97 C 2.84 20.23 2.94 20.17 3.03 20.48 C 3.1 20.64 3.24 20.42 3.3 20.59 C 3.51 21.16 3.49 22.02 3.85 22.69 C 3.98 22.9 3.94 23.15 3.82 23.41 C 3.64 23.9 4.08 24.25 4.48 24.77 C 4.65 24.93 4.71 24.86 4.86 25.04 C 5.05 25.24 5.19 25.4 5.41 25.43 C 5.92 25.49 5.93 25.53 6 25.77 C 6.14 26.23 6.35 26.44 6.57 26.54 C 6.97 26.71 7 27.09 7 27.34 C 6.99 27.6 7.06 27.86 7.15 28.02 C 7.37 28.37 7.4 28.32 7.55 28.57 C 7.66 28.73 7.77 28.91 7.91 28.75 C 8.13 28.46 8.21 28.68 8.35 28.91 C 8.61 29.27 8.88 29.15 8.76 29.54 C 8.59 30.04 8.58 30.31 8.57 30.6 C 8.56 31.21 8.93 31.37 8.87 31.64 C 8.78 32.07 9.05 32.21 9.25 32.37 C 9.73 32.75 10.13 32.74 10.28 33.13 C 10.49 33.69 10.83 33.72 10.97 34 C 11.22 34.46 11.3 34.46 11.96 34.61 C 12.53 34.73 12.85 34.89 12.97 35.25 C 13.09 35.74 13.25 35.96 13.42 36.45 C 13.55 36.84 13.57 37.13 13.75 37.57 C 13.84 37.78 13.93 37.94 13.99 38.34 C 14.12 39.12 14.49 38.79 14.49 39.54 C 14.49 39.9 14.58 40.28 14.72 40.67 C 14.82 40.93 14.77 41.11 14.99 41.26 C 15.16 41.37 15.11 41.46 15.15 41.64 C 15.19 41.8 15.32 41.85 15.33 42.14 C 15.33 42.57 15.58 43.02 15.72 43.24 C 15.91 43.51 15.7 43.67 16.01 43.79 C 16.23 43.88 16.21 44.04 16.15 44.2 C 16.12 44.34 16.17 44.48 16.26 44.61 C 16.6 45.15 16.85 45.65 17.25 45.83 C 17.96 46.18 18.44 46.36 18.99 46.32 L 18.99 46.32 C 19.12 46.31 19.3 46.17 19.14 45.98 C 19 45.82 18.78 45.87 18.4 45.58 C 18.15 45.39 18.1 45.05 18.06 44.88 C 17.89 44.11 17.81 44.19 17.88 43.99 C 17.99 43.62 17.9 43.51 17.59 43.35 C 17.22 43.14 17.44 43.06 17.47 42.69 C 17.51 42.13 17.67 41.99 17.33 41.76 C 17.1 41.6 17.01 41.54 17.32 41.41 C 17.5 41.33 17.49 41.28 17.43 41.11 C 17.3 40.8 17.49 40.52 17.76 40.42 C 18.24 40.25 18.2 39.68 17.84 39.33 C 17.43 38.95 17.76 39.09 18.06 39.01 C 18.52 38.89 18.21 38.72 18.46 38.27 C 18.69 37.84 18.65 37.8 18.64 37.5 C 18.63 37.07 18.7 36.99 18.66 36.64 C 18.63 36.43 18.26 36.15 18.49 35.7 C 18.69 35.33 18.72 35.52 18.86 35.39 C 19.2 35.08 19.02 35.08 19.26 34.9 C 19.71 34.57 19.48 34.52 19.57 33.71 C 19.69 32.64 19.17 31.93 19.2 31.76 C 19.26 31.47 19.36 31.38 19.45 31.07 C 19.61 30.56 19.41 30.92 19.61 30.31 C 19.72 29.98 19.47 29.15 18.99 29.02 C 18.4 28.86 18.53 28.67 18.09 28.64 C 17.5 28.59 17.36 28.9 16.66 28.58 C 15.98 28.27 15.78 28.57 15.52 28.33 C 15.2 28.02 15.25 27.4 14.34 26.96 C 13.73 26.66 13.57 27.33 13.04 26.91 C 12.69 26.63 12.6 26.78 12.32 26.61 C 11.97 26.38 11.92 25.71 11.59 25.99 C 11.34 26.21 11.5 26.05 11.13 25.88 C 10.54 25.61 10.38 26.09 10.67 26.2 C 11.05 26.35 11.23 26.26 11.14 26.38 C 10.84 26.77 11.02 26.41 10.69 26.5 C 10.13 26.66 10.47 26.51 9.89 26.32 C 9.74 26.27 9.54 26.2 9.39 26.41 C 9.09 26.81 8.98 26.77 8.67 27.11 C 8.58 27.2 8.62 28.07 8.62 28.44 C 8.62 28.87 8.53 28.64 8.38 28.43 C 8.08 27.98 8.01 28.53 7.73 28.17 C 7.32 27.63 7.54 27.05 7.65 26.93 C 7.96 26.58 7.73 25.95 7.47 25.92 C 7.3 25.9 6.8 25.77 7.08 25.41 C 7.47 24.89 7.17 25.02 7.34 24.73 C 7.6 24.32 7.65 24.25 7.37 24.17 C 7.04 24.07 6.99 24.23 6.79 24.48 C 6.42 24.95 6.56 24.61 6.15 24.69 C 6 24.71 5.88 25.03 5.63 24.24 C 5.25 22.99 5.96 22.46 5.93 22.28 C 5.86 21.89 6.11 21.72 6.3 21.66 C 6.97 21.45 7.14 21.24 7.35 21.65 C 7.64 22.2 7.97 21.62 8.24 21.65 C 9.33 21.75 8.79 23.69 9.21 23.45 C 9.68 23.19 9.04 21.73 9.99 21.36 C 10.55 21.15 11.21 20.93 11.12 20.45 C 11.02 19.94 11.28 20.02 11.38 19.92 C 11.62 19.69 11.13 19.74 11.82 19.35 C 12.94 18.71 13.16 18.47 13.64 18.46 C 14.1 18.45 13.8 18.7 14.74 18.51 C 16 18.26 15.7 17.62 15.28 17.79 C 14.58 18.08 14.81 17.41 14.87 17.12 C 15.01 16.5 14.66 16.88 14.41 16.85 C 14.1 16.82 14.07 17.2 13.84 16.94 C 13.72 16.81 13.81 16.69 14.19 16.57 C 14.44 16.49 14.43 16.19 15.18 16.43 C 15.65 16.59 16.05 16.6 16.32 16.44 C 16.69 16.21 16.97 16.25 17.09 16.01 C 17.25 15.68 16.41 15.09 16.37 14.78 C 16.33 14.41 16.21 14.48 16.32 14.23 C 16.54 13.75 16.35 13.73 16.34 13.38 C 16.33 13.1 16.4 12.88 16.16 13.04 C 15.64 13.38 15.56 13.57 15.31 12.96 C 15.23 12.75 15.41 12.53 15.41 12.37 C 15.43 12.07 15.3 12.11 15.19 11.9 C 15.09 11.69 15.26 11.57 14.91 11.59 C 14.56 11.61 14.66 11.53 14.41 11.53 C 14.03 11.54 14.1 12.28 13.89 12.41 C 13.56 12.61 13.55 12.63 13.58 12.86 C 13.61 13.19 13.59 13.8 13.18 13.98 C 12.56 14.26 12.67 15.14 12.16 15.3 C 11.85 15.39 11.85 14.68 11.96 14.31 C 12.03 14.05 12.03 13.95 11.8 13.85 C 11.18 13.61 11.38 13.31 11.14 12.96 C 10.9 12.6 10.54 12.62 10.59 12.38 C 10.7 11.92 10.58 12.1 10.49 11.92 C 10.17 11.32 10.98 11.01 11.2 10.87 C 11.64 10.58 11.74 10.26 12.3 10.29 C 12.69 10.31 12.68 10.21 12.78 10.24 C 13.06 10.33 12.66 10.75 13.05 10.75 C 13.34 10.75 13.57 10.5 13.43 10.21 C 13.24 9.82 13.8 9.86 14.14 9.66 C 14.67 9.34 14.18 8.67 14.55 8.36 C 15.17 7.86 15.68 7.99 15.83 8.58 C 15.98 9.21 16.33 9.28 16.04 9.6 C 15.64 10.04 15.55 10.43 15.32 10.42 C 14.77 10.41 14.22 10.71 14.46 10.97 C 14.69 11.23 14.78 10.8 15.46 11.38 C 15.89 11.74 15.35 11.65 16.13 11.94 C 16.6 12.12 16.46 11.81 16.21 11.62 C 15.91 11.39 16.2 11.03 16.58 11.39 C 16.86 11.65 17.06 11.27 16.81 10.96 C 16.54 10.64 16.86 10.25 16.99 10.5 C 17.12 10.73 17.2 10.53 17.24 10.77 C 17.32 11.21 17.46 10.97 17.78 10.63 C 17.93 10.44 18.01 10.06 17.77 9.8 C 17.58 9.61 17.56 9.45 17.52 9.4 C 17.47 9.35 17.37 9.31 17.31 9.24 C 17.22 9.14 17.21 9.04 17.29 8.88 C 17.37 8.73 17.44 8.53 17.24 8.33 C 17.01 8.13 16.78 7.97 16.94 7.58 C 16.98 7.42 16.96 7.32 16.81 7.32 C 16.61 7.31 16.36 7.2 16.38 7.04 C 16.43 6.8 16.43 6.7 16.22 6.66 C 15.9 6.64 15.63 6.65 15.1 6.49 C 14.48 6.33 14.51 6.53 14.44 6.52 C 14.29 6.52 14.39 6.31 14.42 6.1 C 14.44 5.99 14.31 6.03 14.41 5.95 C 14.49 5.88 14.73 5.65 14.59 5.56 C 14.38 5.48 14.35 5.76 14.21 5.99 C 14.13 6.13 13.99 6.45 14.05 6.49 C 14.11 6.52 14.17 6.42 14.21 6.47 C 14.27 6.54 14.19 6.59 14.27 6.63 C 14.43 6.76 14.22 6.84 14.19 6.79 C 14.16 6.68 14.04 6.86 13.97 6.91 C 13.8 7.04 13.8 7.12 13.84 7.23 C 13.95 7.51 13.88 7.55 13.9 7.71 C 13.94 8.05 13.81 8.09 14.01 8.25 C 14.23 8.43 14.09 8.5 14.01 8.6 C 13.84 8.79 13.78 8.72 13.73 8.81 C 13.65 8.93 13.71 8.96 13.6 9.09 C 13.43 9.26 13.29 9.33 13.25 9.17 C 13.23 9.03 13.15 8.97 13.03 8.96 C 12.84 8.95 12.83 8.84 12.88 8.58 C 12.89 8.49 12.81 8.46 12.83 8.43 C 12.87 8.38 12.89 8.25 12.86 8.21 C 12.74 8.02 12.78 7.88 12.99 7.71 C 13.36 7.41 12.86 7.32 12.86 7.01 C 12.86 6.8 13.11 6.64 13.56 6.62 C 13.69 6.62 13.99 6.4 14.03 6.19 C 14.04 6.13 14.06 6.03 14.03 6 C 13.91 5.93 13.85 5.99 13.79 6.03 C 13.7 6.09 13.66 6.16 13.7 6.28 C 13.74 6.49 13.57 6.58 13.41 6.58 C 13.11 6.58 13.13 6.46 12.92 6.39 C 12.64 6.32 12.63 6.44 12.53 6.44 C 12.24 6.42 12.22 6.57 12.01 6.72 C 11.87 6.86 11.9 7.04 12 7.08 C 12.12 7.12 12.19 7.18 12.2 7.28 C 12.21 7.44 12.3 7.51 12.42 7.5 C 12.71 7.5 12.73 7.64 12.64 7.82 C 12.58 7.94 12.59 8.02 12.64 8.13 C 12.89 8.38 12.72 8.55 12.47 8.73 C 12.23 8.89 11.99 8.97 11.8 8.9 C 11.38 8.76 11.26 8.72 10.86 8.75 C 10.55 8.76 10.47 8.69 10.41 8.46 C 10.37 8.31 10.21 8.39 10.14 8.43 C 9.44 8.8 9.47 8.49 9.01 8.49 C 8.74 8.49 8.53 8.49 8.61 8.34 C 8.77 8.12 8.59 8.09 8.35 8.04 L 8.64 7.64 C 9.2 8.17 9.48 8.23 10.02 8.02 C 10.21 7.95 10.51 7.88 10.6 8.08 C 10.76 8.32 10.83 8.3 11.27 8.16 C 11.63 8.05 11.73 7.98 11.48 7.66 C 11.05 7.18 11.27 7.08 11.28 6.72 C 11.37 6.37 10.63 6.36 10.26 6.37 C 10.2 6.36 10.24 6.29 10.13 6.27 L 10.84 5.77 C 11.29 5.77 11.72 5.83 11.92 5.61 C 12.07 5.44 11.97 5.32 11.63 5.17 L 12.45 4.58 C 12.62 4.44 12.66 4.58 12.83 4.58 C 13 4.57 13.11 4.59 13.15 4.74 C 13.17 4.89 13.25 4.99 13.42 4.98 C 13.69 4.97 13.76 4.86 13.67 4.61 C 13.52 4.32 13.6 4.19 13.15 4.17 L 14.87 3.24 C 14.9 3.45 14.88 3.61 14.85 3.74 C 14.81 3.93 14.77 4.18 14.61 4.2 C 14.41 4.23 14.21 3.97 14.08 4.19 C 13.93 4.44 14.31 4.66 14.22 4.81 C 13.95 5.31 14.61 5.11 14.66 5.29 C 14.71 5.41 14.67 5.51 14.99 5.43 C 15.28 5.38 15.6 5.43 15.92 5.41 C 16.27 5.4 16.24 5.01 16.84 4.56 C 16.95 4.47 17.1 4.11 17.45 3.87 C 17.75 3.79 17.9 3.56 18.08 3.32 C 18.26 3.07 18.48 2.99 18.75 2.87 C 19.07 2.75 19.24 2.64 19.34 2.5 C 19.42 2.38 19.78 2.19 20.01 2.16 C 20.2 2.13 20.86 1.8 20.77 1.53 C 20.69 1.18 19.15 1.3 18.87 1.41 C 18.64 1.48 18.44 1.23 18.28 1.37 C 18.17 1.47 18 1.42 17.7 1.52 C 17.26 1.69 16.95 1.72 16.68 1.71 C 19.27 0.74 22.07 0.21 25 0.21 Z M 24.91 1.85 C 24.57 1.84 24.25 1.91 24.02 2.08 C 23.45 2.5 23.75 2.2 23.43 2.23 C 23 2.28 23.09 2.47 22.89 2.59 C 22.73 2.69 22.9 2.98 22.7 2.99 C 22.53 3 22.71 2.65 22.44 2.66 C 21.68 2.67 21.52 2.85 21.22 2.9 C 20.35 3.04 20.43 3.32 19.91 3.53 C 19.73 3.6 19.5 3.66 19.79 3.78 C 19.98 3.87 19.98 4.01 19.75 4.11 C 19.37 4.29 19.4 4.06 18.81 4.48 C 18.62 4.61 18.93 4.76 18.78 4.9 C 18.58 5.08 18.64 5.12 18.75 5.25 C 18.98 5.51 18.75 5.15 19.81 5.2 C 20.45 5.23 20.37 5.35 20.54 5.49 C 20.8 5.7 20.81 6.11 20.76 6.3 C 20.7 6.54 20.68 6.66 20.9 6.68 C 21.53 6.75 21.44 6.91 21.44 7.29 C 21.44 7.78 20.88 7.7 20.85 8.1 C 20.81 8.54 20.6 8.64 20.88 9.04 C 21.2 9.5 20.82 9.39 21.23 9.8 C 21.49 10.06 21.34 10.22 21.59 10.17 C 21.86 10.12 21.97 10.34 22.11 10.37 C 22.34 10.43 22.32 10.09 22.48 9.82 C 22.64 9.52 22.64 9.58 22.74 9.4 C 22.89 9.14 22.83 8.85 23.01 8.62 C 23.16 8.44 23.38 8.63 23.7 8.43 C 24.17 8.13 24.54 7.46 25.28 7.51 C 25.6 7.53 25.85 7.12 26.14 6.87 C 26.32 6.72 25.99 6.54 26.23 6.32 C 26.44 6.12 26.41 6.03 26.42 5.77 C 26.44 5.41 26.5 5.19 26.62 4.97 C 26.68 4.86 26.48 4.8 26.46 4.64 C 26.44 4.51 26.62 4.3 26.61 4.15 C 26.6 3.89 26.84 3.83 26.97 3.57 C 27.22 3.36 27.31 3.25 27.35 2.9 C 27.39 2.53 27.06 2.81 26.81 2.82 C 25.98 2.84 26.76 2.59 26.55 2.28 C 26.47 2.15 25.65 1.85 24.91 1.85 Z M 33.68 3.59 C 33.49 3.59 33.28 3.62 33.04 3.69 C 32.95 3.71 32.79 3.97 32.73 3.98 C 32.62 3.99 32.66 3.81 32.32 3.97 C 32.13 4.07 31.79 3.82 31.67 4.24 C 31.55 4.69 31.75 4.55 31.88 4.85 C 32.02 5.18 31.89 5.22 32.03 5.4 C 32.16 5.59 32.18 5.45 32.46 5.67 C 32.76 5.91 33.1 5.39 33.09 5.18 C 33.09 4.86 33.51 5.01 33.49 5.27 C 33.48 5.41 33.62 5.42 33.79 5.43 C 33.97 5.43 34.28 5.28 33.98 5.08 C 33.48 4.75 33.11 4.72 33.18 4.36 C 33.2 4.26 33.53 4.3 33.67 4.38 C 34.15 4.64 34.36 4.5 34.49 4.34 C 34.66 4.14 34.81 4 34.52 3.84 C 34.35 3.75 34.08 3.6 33.68 3.59 Z M 25.97 8.64 C 25.94 8.64 25.9 8.65 25.86 8.66 C 25.63 8.74 25.33 8.77 25.17 8.74 C 25.04 8.72 24.96 8.99 24.75 9 C 24.55 9 24.78 8.7 24.44 8.75 C 24.28 8.78 24.1 9 24.12 9.16 C 24.22 9.76 24.47 9.66 24.79 9.82 C 25.26 10.05 25.38 9.96 25.59 9.74 C 25.79 9.54 26.64 9.33 26.34 8.94 C 26.3 8.9 26.2 8.63 25.97 8.64 Z M 24.97 13.21 C 24.74 13.22 24.93 13.36 24.71 13.42 C 24.55 13.47 24.69 13.61 24.65 13.74 C 24.58 13.94 24.42 13.98 24.44 14.25 C 24.46 14.56 24.76 14.52 24.91 14.42 C 25.05 14.33 25.27 14.17 25.29 13.98 C 25.31 13.77 25.06 13.69 25.21 13.52 C 25.34 13.37 25.23 13.21 24.97 13.21 Z M 35.17 15.99 C 35.2 15.99 35.24 15.99 35.28 16 C 35.6 16.05 35.25 16.46 35.11 16.55 C 34.87 16.71 34.9 16.76 35.01 16.84 C 35.25 17 35.31 17.2 35.51 17.37 C 35.65 17.49 36.12 17.6 35.94 17.89 C 35.85 18.05 35.61 18.18 35.3 18.15 C 34.98 18.11 34.78 17.88 34.3 17.85 C 33.91 17.82 33.67 18.07 33.35 18.05 C 32.83 18 32.87 17.62 32.98 17.27 C 33.09 16.92 33.34 16.38 33.63 16.35 C 33.96 16.32 33.95 16.65 33.99 16.79 C 34.05 16.97 34.17 17.07 34.34 17 C 34.56 16.9 34.69 16.77 34.47 16.65 C 34.26 16.54 34.37 16.29 34.57 16.25 C 34.81 16.2 34.91 16 35.17 15.99 Z M 16.94 16.91 C 16.82 16.91 16.74 17.16 16.65 17.27 C 16.49 17.51 16.07 17.56 16.13 17.79 C 16.17 17.95 16.23 17.95 16.54 17.96 C 16.78 17.97 16.93 18.13 17.03 18.2 C 17.28 18.36 17.29 18.54 17.5 18.38 C 17.63 18.29 17.56 18.03 17.39 17.81 C 17.17 17.51 17.34 17.5 17.2 17.37 C 16.97 17.15 17.18 17.11 17.02 16.95 C 16.99 16.92 16.96 16.91 16.94 16.91 Z M 34.29 22.01 C 34.46 22 34.68 22.25 34.89 22.72 C 35.18 23.41 35.51 23.48 35.42 23.88 C 35.27 24.56 35.67 24.52 35.88 24.79 C 36.05 25 35.99 25.3 36.2 25.54 C 36.29 25.64 36.59 26.29 36.29 26.52 C 36.07 26.69 35.92 26.15 35.73 26.01 C 35.17 25.56 35.57 25.32 35.2 24.98 C 35.05 24.84 34.94 24.74 35.03 24.6 C 35.11 24.45 35.04 23.98 34.79 23.79 C 34.55 23.6 34.73 23.55 34.61 23.25 C 34.54 23.07 34.39 22.99 34.32 22.67 C 34.26 22.4 34.16 22.4 34.13 22.23 C 34.11 22.11 34.18 22.06 34.23 22.03 C 34.25 22.02 34.27 22.01 34.29 22.01 Z M 8.98 24.08 C 8.9 24.07 8.83 24.11 8.78 24.22 C 8.61 24.62 9.55 24.6 9.71 25.02 C 9.83 25.33 9.96 25.61 10.28 25.46 C 10.52 25.36 10.41 25.19 10.07 24.92 C 9.9 24.79 9.87 24.59 9.65 24.53 C 9.57 24.51 9.68 24.39 9.51 24.31 C 9.3 24.22 9.12 24.09 8.98 24.08 Z M 37.33 34.07 C 37.26 34.07 37.2 34.15 37.17 34.32 C 37.15 34.44 37.06 34.41 36.94 34.57 C 36.88 34.65 36.85 34.75 36.76 34.84 C 36.67 34.93 36.51 35 36.41 35.05 C 36.05 35.22 35.97 35.63 36.1 35.89 C 36.22 36.13 36.05 36.17 35.89 36.59 C 35.69 37.12 35.89 37.7 36.27 37.78 C 36.69 37.86 37.01 36.56 37.08 36.13 C 37.13 35.79 37.2 35.92 37.29 35.45 C 37.36 35.11 37.57 34.91 37.58 34.64 C 37.58 34.28 37.45 34.07 37.33 34.07 Z" fill="#3c708a" stroke="none" pointer-events="all"/></g></g></svg>