<?xml version="1.0" encoding="UTF-8"?>
<!-- Do not edit this file with editors other than draw.io -->
<!DOCTYPE svg PUBLIC "-//W3C//DTD SVG 1.1//EN" "http://www.w3.org/Graphics/SVG/1.1/DTD/svg11.dtd">
<svg xmlns="http://www.w3.org/2000/svg" xmlns:xlink="http://www.w3.org/1999/xlink" version="1.1" width="50px" height="50px" viewBox="-0.5 -0.5 50 50" content="&lt;mxfile host=&quot;Electron&quot; modified=&quot;2024-05-28T21:40:36.899Z&quot; agent=&quot;Mozilla/5.0 (Windows NT 10.0; Win64; x64) AppleWebKit/537.36 (KHTML, like Gecko) draw.io/24.4.8 Chrome/124.0.6367.207 Electron/30.0.6 Safari/537.36&quot; version=&quot;24.4.8&quot; etag=&quot;u3my9DgR1J8hZI7ac2oS&quot; type=&quot;device&quot; scale=&quot;1&quot; border=&quot;0&quot;&gt;&#10;  &lt;diagram name=&quot;Page-1&quot; id=&quot;jt2xrquKSpdYKvtwkAmm&quot;&gt;&#10;    &lt;mxGraphModel dx=&quot;1038&quot; dy=&quot;704&quot; grid=&quot;1&quot; gridSize=&quot;10&quot; guides=&quot;1&quot; tooltips=&quot;1&quot; connect=&quot;1&quot; arrows=&quot;1&quot; fold=&quot;1&quot; page=&quot;1&quot; pageScale=&quot;1&quot; pageWidth=&quot;827&quot; pageHeight=&quot;1169&quot; math=&quot;0&quot; shadow=&quot;0&quot;&gt;&#10;      &lt;root&gt;&#10;        &lt;mxCell id=&quot;0&quot; /&gt;&#10;        &lt;mxCell id=&quot;1&quot; parent=&quot;0&quot; /&gt;&#10;        &lt;mxCell id=&quot;2&quot; value=&quot;&quot; style=&quot;sketch=0;pointerEvents=1;shadow=0;dashed=0;html=1;strokeColor=none;fillColor=#BEA9D4;aspect=fixed;labelPosition=center;verticalLabelPosition=bottom;verticalAlign=top;align=center;outlineConnect=0;shape=mxgraph.vvd.networking;&quot; vertex=&quot;1&quot; parent=&quot;1&quot;&gt;&#10;          &lt;mxGeometry x=&quot;372.5&quot; y=&quot;1104.06&quot; width=&quot;50&quot; height=&quot;50&quot; as=&quot;geometry&quot; /&gt;&#10;        &lt;/mxCell&gt;&#10;      &lt;/root&gt;&#10;    &lt;/mxGraphModel&gt;&#10;  &lt;/diagram&gt;&#10;&lt;/mxfile&gt;&#10;"><defs/><g><g><rect x="-0.5" y="-0.94" width="50" height="50" fill="none" stroke="none" pointer-events="all"/><path d="M 12.64 6.08 C 12.36 6.07 12.41 6.04 12.26 5.88 C 12.16 5.79 12.04 5.86 12 5.63 C 11.98 5.52 11.97 5.35 12.09 5.27 C 12.37 5.08 12.8 5.15 13.03 5.32 C 13.21 5.45 12.91 6.08 12.64 6.08 Z M 24.5 -0.94 C 10.7 -0.94 -0.5 10.26 -0.5 24.06 C -0.5 37.86 10.7 49.06 24.5 49.06 C 38.3 49.06 49.5 37.86 49.5 24.06 C 49.5 10.26 38.3 -0.94 24.5 -0.94 Z M 24.5 0.21 C 29.39 0.21 33.93 1.68 37.72 4.2 C 37.69 4.36 37.56 4.48 37.36 4.64 C 37.22 4.76 37.09 4.84 37.09 5.18 C 37.08 5.43 36.69 5.7 36.9 6.01 C 37.23 6.49 37.88 6.76 38.12 6.51 C 38.33 6.29 37.81 6.31 37.81 5.69 C 37.81 5.32 38.1 4.85 38.29 4.6 C 38.94 5.06 39.57 5.56 40.18 6.09 C 40.13 6.17 40.08 6.26 40.05 6.36 C 40 6.48 40.01 7.01 40.05 7.12 C 40.25 7.58 40.02 7.36 39.89 7.19 C 39.73 6.99 39.53 6.96 39.36 6.93 C 39.05 6.88 39.14 7.08 38.82 6.78 C 38.6 6.59 38.44 6.83 38.65 6.99 C 38.84 7.13 39.02 7.23 38.86 7.31 C 38.34 7.56 38.18 7.43 37.87 7.4 C 37.44 7.35 37.57 7.56 37.28 7.6 C 37.09 7.62 37.09 7.56 36.96 7.68 C 36.67 7.93 36.71 7.81 36.54 7.95 C 36.44 8.03 36.28 8.31 36.15 8.28 C 35.79 8.19 36 7.87 35.78 7.79 C 35.59 7.73 35.57 7.88 35.59 8.04 C 35.62 8.36 35.48 8.38 35.29 8.33 C 35.07 8.28 35.11 8.27 34.9 8.5 C 34.82 8.59 34.71 8.58 34.77 8.76 C 34.8 8.87 34.69 8.89 34.64 8.94 C 34.54 9.04 34.63 9.02 34.5 9.16 C 34.2 9.47 34.16 9.33 33.96 9.15 C 33.68 8.9 33.85 8.79 33.65 8.54 C 33.23 8.01 33.41 8.01 33.87 8.26 C 34.25 8.47 34.87 8.45 34.95 8.08 C 35.05 7.61 33.78 6.95 33.48 6.93 C 33.07 6.89 33.19 6.65 32.96 6.59 C 32.75 6.54 32.88 6.57 32.64 6.3 C 32.23 5.83 32.27 5.97 31.67 6.02 C 30.95 6.08 30.94 6.24 30.65 6.22 C 30.3 6.21 30.13 6.84 29.64 7.08 C 29.24 7.27 28.92 7.51 29.45 7.57 C 29.92 7.63 29.49 8.12 29.17 8.41 C 29 8.57 28.68 9.06 28.47 9.09 C 28.2 9.14 28.02 9.5 27.74 9.72 C 27.49 9.92 27.3 9.85 27.27 10.16 C 27.21 10.88 27.31 11.24 27.5 11.54 C 27.69 11.85 27.87 11.45 28.11 11.46 C 28.33 11.46 28.23 11.4 28.46 11.39 C 28.83 11.37 28.59 11.67 28.9 12.05 C 29.19 12.41 28.99 12.5 29.15 12.54 C 29.29 12.57 29.26 12.45 29.47 12.28 C 29.57 12.19 29.84 12.43 29.83 12.09 C 29.8 11.36 29.88 11.49 30.15 11.25 C 30.44 11.01 29.84 10.93 29.85 10.58 C 29.86 10.28 30.09 9.72 30.24 9.52 C 30.44 9.24 30.78 9.29 30.77 8.98 C 30.76 8.47 31 8.33 31.29 8.39 C 31.95 8.54 31.2 9.33 30.99 9.53 C 30.79 9.71 30.99 9.77 30.96 10.21 C 30.95 10.42 31.12 10.62 31.33 10.75 C 31.61 10.91 31.7 10.57 31.87 10.56 C 32.15 10.56 32.16 10.44 32.32 10.43 C 32.66 10.4 32.67 9.94 33.08 10.37 C 33.29 10.6 32.63 10.99 32.39 11.02 C 31.82 11.1 32.02 11.19 31.7 11.28 C 31.4 11.35 31.37 11.4 31.43 11.56 C 31.54 11.9 31.33 11.98 31.24 11.96 C 31.02 11.89 30.98 11.82 30.88 11.99 C 30.72 12.27 30.84 12.32 30.73 12.47 C 30.28 13.01 29.63 13.21 29.43 13.2 C 28.77 13.17 28.86 13.36 28.54 13.35 C 27.98 13.31 28.15 13.41 27.77 13.49 C 27.37 13.59 27.41 13.46 27.24 13.63 C 27.05 13.81 27.1 13.95 26.8 14.22 C 26.57 14.44 26.54 14.49 26.58 14.23 C 26.6 14.06 26.54 14.07 26.39 13.91 C 26.26 13.77 26.24 13.95 26.22 13.69 C 26.21 13.49 26.11 13.5 25.91 13.22 C 25.64 12.81 25.67 12.8 25.66 12.68 C 25.63 12.38 25.83 12.46 25.73 12.25 C 25.65 12.1 25.51 12.28 25.45 11.87 C 25.43 11.72 25.14 11.82 24.97 11.87 C 24.75 11.94 24.63 12.16 24.58 12.43 C 24.54 12.73 24.89 12.99 25 13.17 C 25.1 13.33 25.23 13.18 25.44 13.38 C 25.6 13.53 25.6 13.6 25.46 13.69 C 25.09 13.93 25.25 13.89 25.09 14.06 C 24.92 14.23 25.03 14.31 24.93 14.56 C 24.79 14.91 25.04 15.07 25.4 14.9 C 25.62 14.8 25.68 14.73 25.84 14.75 C 26.11 14.79 26.06 14.66 26.17 14.64 C 26.56 14.56 26.03 14.89 25.85 15 C 25.45 15.22 25.47 15.12 25.32 15.12 C 25.04 15.13 24.96 15.35 25.16 15.47 C 25.6 15.72 25.47 15.72 25.63 15.98 C 25.8 16.26 26.07 16.43 25.77 16.88 C 25.58 17.16 25.45 16.94 24.95 16.91 C 24.28 16.87 24.32 16.96 24.1 17 C 23.95 17.03 23.94 17.04 24 17.16 C 24.12 17.41 24.07 17.87 24.02 18.07 C 23.92 18.48 23.9 18.68 24.02 18.94 C 24.17 19.24 24.31 18.81 24.65 19.27 C 24.79 19.44 24.83 19.36 24.95 19.27 C 25.17 19.09 25.29 19.25 25.47 19.13 C 25.63 19.03 25.52 18.97 25.74 18.87 C 25.93 18.79 26.08 18.62 26.07 18.39 C 26.06 17.95 26.14 18.04 26.17 18.02 C 26.32 17.92 26.33 17.79 26.51 17.65 C 26.74 17.48 26.74 17.56 26.81 17.28 C 26.88 17 27.04 16.91 27.24 17 C 27.38 17.07 27.42 17.23 27.76 16.91 C 28.18 16.52 28.29 16.71 28.45 17.08 C 28.7 17.63 29.28 17.91 29.47 18.07 C 29.54 18.15 29.68 18.3 29.66 18.46 C 29.65 18.56 29.57 18.8 29.43 18.78 C 29.13 18.75 29.32 18.99 29.38 19.07 C 29.52 19.27 29.54 18.83 29.69 18.82 C 29.87 18.8 29.89 18.44 29.86 18.35 C 29.74 18.03 30.22 18.3 30.18 18.1 C 30.14 17.88 29.39 17.58 29.27 17.29 C 29.16 17.02 28.8 16.93 28.83 16.55 C 28.85 16.2 29.35 16.58 29.43 16.69 C 29.72 17.09 29.88 17.11 30 17.17 C 30.54 17.46 30.51 17.64 30.5 17.77 C 30.44 18.46 30.79 18.11 30.81 18.77 C 30.82 19.35 31.45 19.14 31.55 19.06 C 32 18.71 31.14 18.48 31.39 18.16 C 31.81 17.63 32.05 17.98 32.17 18.25 C 32.28 18.51 32.16 18.81 32.4 19.02 C 32.61 19.21 32.54 19.28 32.89 19.38 C 33.21 19.48 33.1 19.09 33.41 19.36 C 33.51 19.44 33.71 19.53 33.88 19.38 C 34.16 19.16 34.31 19.58 34.3 19.99 C 34.3 20 34.18 20.26 34.18 20.58 C 34.18 20.81 33.81 21.08 33.5 21.03 C 32.93 20.92 32.65 21.24 32.3 21.03 C 31.97 20.83 31.78 20.89 31.54 20.72 C 31.01 20.35 30.71 20.51 30.64 20.69 C 30.55 20.96 30.8 21.27 30.09 21.16 C 29.63 21.09 29.78 20.76 29.09 20.56 C 28.61 20.43 28.36 20.13 28.4 20.04 C 28.59 19.61 28.44 19.57 28.52 19.28 C 28.64 18.88 28.02 19.13 26.84 19.15 C 26.26 19.16 26.29 19.29 26.17 19.33 C 25.71 19.5 25.68 19.64 25.53 19.66 C 25.28 19.69 25.26 19.51 25.13 19.63 C 25.07 19.69 25.03 19.66 24.91 19.57 C 24.74 19.43 24.61 19.67 24.58 19.8 C 24.47 20.35 24.22 20.02 23.91 20.52 C 23.54 21.11 24.2 21.35 23.21 22.08 C 22.61 22.51 22.49 23.17 22.31 23.33 C 21.84 23.71 22.05 24.23 22.21 24.84 C 22.48 25.84 21.89 25.52 22.12 26.43 C 22.26 27.01 22.62 27.05 22.83 27.66 C 23.07 28.39 23.43 28.42 23.71 28.75 C 24.07 29.16 24.19 29.14 24.56 29 C 25.11 28.78 25.09 29.13 25.28 29.04 C 26.04 28.66 25.97 28.81 26.24 28.69 C 26.92 28.39 27.05 28.43 27.33 28.98 C 27.51 29.34 27.81 28.94 27.93 29.03 C 28.38 29.34 28.24 29.56 28.26 29.78 C 28.3 30.53 28.12 30.29 28.11 30.63 C 28.08 31.24 28.29 30.81 28.83 32.1 C 29.15 32.86 28.95 33.04 29.13 33.55 C 29.37 34.21 28.88 34.25 28.91 34.63 C 28.94 35.06 28.68 34.85 28.73 35.54 C 28.77 36.09 28.87 35.88 28.98 36.4 C 29.11 37.05 29.35 36.51 29.35 38.06 C 29.35 38.85 29.63 38.71 29.82 39.33 C 30.01 39.92 30.14 40.01 30 40.3 C 29.9 40.52 29.87 40.65 30.27 40.89 C 30.44 41 30.79 40.72 31.04 40.68 C 31.34 40.63 31.52 40.75 31.91 40.57 C 32.12 40.47 32.99 39.24 33.14 38.9 C 33.41 38.31 32.97 38.17 33.5 37.92 C 33.79 37.78 34.02 37.65 33.82 37.03 C 33.65 36.53 33.74 36.42 33.87 36.19 C 34.37 35.39 34.35 36.05 34.94 35.28 C 35.14 35.03 35.17 33.97 35.14 33.62 C 35.1 33.22 34.8 33.29 34.96 32.85 C 35.06 32.55 34.93 32.15 34.93 32.02 C 34.92 31.62 35.28 31.29 35.48 31.02 C 35.72 30.69 35.53 30.8 35.79 30.46 C 36.49 29.51 36.11 30.32 36.78 29.46 C 37.17 28.96 37.15 28.83 37.34 28.24 C 37.49 27.8 37.61 28.02 37.72 27.37 C 37.79 26.96 37.6 27.05 37.43 27.1 C 37.16 27.18 37.16 27.02 36.94 27.2 C 36.67 27.42 36.61 27.27 36.42 27.27 C 36.01 27.27 36.13 27.22 36.06 27.12 C 35.86 26.85 35.95 26.85 35.99 26.78 C 36.07 26.64 36.26 26.76 36.5 26.44 C 36.6 26.3 36.74 26.23 37.07 26.16 C 38.01 25.97 37.99 25.71 38.22 25.45 C 38.58 25.07 38.68 25.16 38.83 25.04 C 38.97 24.93 39.03 24.71 39.08 24.67 C 39.53 24.25 39.73 23.99 39.72 23.75 C 39.71 23.36 38.85 22.94 38.6 23.04 C 38.13 23.24 38.03 23.13 37.78 23 C 37.36 22.76 37.65 22.63 37.47 22.43 C 37.22 22.16 37.28 22.13 37.19 21.95 C 36.97 21.49 37.1 21.32 37.38 21.32 C 37.67 21.33 37.73 21.9 37.89 22.07 C 38.2 22.39 38.49 22.51 38.77 22.4 C 39.13 22.25 39.2 22.6 39.55 22.78 C 39.91 22.96 39.96 22.67 40.12 22.82 C 40.23 22.91 40.01 22.99 40.26 23.27 C 40.69 23.74 40.54 23.78 40.59 24.03 C 40.67 24.41 40.82 24.36 41.06 24.26 C 41.27 24.17 41.21 24.45 41.2 24.66 C 41.19 24.93 41.3 24.85 41.27 25.09 C 41.19 25.77 41.35 25.68 41.39 26.13 C 41.47 27.07 41.8 27.99 41.89 28 C 42.15 28.05 41.96 27.9 42.19 27.79 C 42.4 27.7 42.4 27.69 42.42 27.31 C 42.43 27.14 42.54 27.06 42.54 26.63 C 42.54 25.88 42.84 25.94 43.14 25.6 C 44.05 24.55 43.97 24.91 44.07 24.77 C 44.17 24.63 44.12 24.59 44.22 24.45 C 44.39 24.18 44.5 24.51 44.77 24.23 C 45.11 23.87 45.13 24.21 45.18 24.51 C 45.23 24.84 45.28 24.71 45.41 24.9 C 45.53 25.08 45.48 25.18 45.55 25.29 C 45.79 25.62 45.94 25.19 46.19 26.19 C 46.6 27.82 46.15 27.71 46.28 28.16 C 46.4 28.59 46.48 28.36 46.5 29.06 C 46.51 29.54 46.58 29.94 46.98 30.06 C 47.22 30.13 47.05 29.85 47.05 29.54 C 47.06 29.01 46.97 29.03 46.73 28.62 C 46.22 27.72 46.57 27.71 46.59 27.35 C 46.63 26.65 46.97 26.96 47.17 27.46 C 47.41 28.08 47.75 27.89 48.08 27.66 C 47.84 29.23 47.45 30.75 46.92 32.2 C 46.73 32.15 46.53 32.1 46.52 31.92 C 46.5 31.73 46.64 31.72 46.63 31.46 C 46.61 31.09 46.36 31.25 46.37 30.96 C 46.38 30.59 46.02 30.7 45.81 30.03 C 45.73 29.76 45.43 29.44 45.27 29.57 C 45.07 29.72 45.49 29.9 45.48 30.48 C 45.48 30.79 45.78 30.77 45.88 31.23 C 45.96 31.61 46.07 31.76 46.16 31.98 C 46.35 32.44 46.59 32.5 46.76 32.62 C 45.86 34.97 44.6 37.14 43.04 39.06 C 42.89 38.97 42.73 38.84 42.66 38.7 C 42.56 38.52 42.7 38.33 42.56 38.17 C 42.45 38.06 42.3 38.18 42.3 38.34 C 42.32 38.64 42.14 38.75 42.15 38.87 C 42.16 39.31 42 39.21 41.94 39.41 C 41.8 39.87 41.64 39.87 41.49 39.67 C 41.2 39.29 41.17 39.38 40.94 39.31 C 40.7 39.24 40.89 38.73 41.16 38.53 C 41.37 38.38 41.29 38.27 41.14 38.26 C 40.62 38.24 40.38 38.1 40.08 38.22 C 39.76 38.35 39.85 38.49 39.61 38.81 C 39.38 39.13 39.28 39.01 39.16 38.95 C 39.03 38.87 38.86 38.86 38.72 38.96 C 38.27 39.27 38.17 39.54 37.94 39.68 C 37.73 39.8 37.62 39.97 37.62 40.12 C 37.64 40.47 37.22 40.62 37.12 40.63 C 36.94 40.65 37 40.57 36.63 40.7 C 36.32 40.82 35.89 41.23 35.62 41.49 C 35.56 41.56 35.52 41.54 35.52 41.73 C 35.51 42.09 35.4 42.07 35.38 42.46 C 35.35 42.98 35.44 43.36 35.48 43.38 C 35.57 43.41 35.47 43.49 35.43 43.64 C 35.35 44.04 35.71 43.93 35.3 44.66 C 35.19 44.84 35.3 45.06 35.51 45.22 C 32.22 46.94 28.48 47.91 24.5 47.91 C 20.03 47.91 15.84 46.68 12.27 44.54 C 12.43 44.3 12.47 43.97 12.09 43.88 C 11.92 43.87 11.91 43.75 11.61 43.6 C 11.36 43.4 10.97 43.03 10.57 42.77 C 10.41 42.76 10.3 42.88 10.1 42.7 C 9.98 42.59 9.91 42.51 9.94 42.33 C 9.94 42.25 9.71 42.14 9.59 42.11 C 9.56 41.97 9.68 41.84 9.57 41.71 C 9.31 41.46 9.56 41.22 9.44 41.16 C 9.35 41.12 9.1 41.37 9.15 41.54 C 9.2 41.7 9.43 41.88 9.25 41.98 C 9.16 42.04 9.07 42.1 8.95 42.15 C 3.87 37.78 0.65 31.3 0.65 24.06 C 0.65 21.9 0.94 19.81 1.48 17.82 C 1.71 18.24 1.47 18.45 1.74 18.59 C 1.95 18.68 2.02 19.21 2.01 19.57 C 2.01 19.85 2.33 19.77 2.34 19.97 C 2.34 20.23 2.44 20.17 2.53 20.48 C 2.6 20.64 2.74 20.42 2.8 20.59 C 3.01 21.16 2.99 22.02 3.35 22.69 C 3.48 22.9 3.44 23.15 3.32 23.41 C 3.14 23.9 3.58 24.25 3.98 24.77 C 4.15 24.93 4.21 24.86 4.36 25.04 C 4.55 25.24 4.69 25.4 4.91 25.43 C 5.42 25.49 5.43 25.53 5.5 25.77 C 5.64 26.23 5.85 26.44 6.07 26.54 C 6.47 26.71 6.5 27.09 6.5 27.34 C 6.49 27.6 6.56 27.86 6.65 28.02 C 6.87 28.37 6.9 28.32 7.05 28.57 C 7.16 28.73 7.27 28.91 7.41 28.75 C 7.63 28.46 7.71 28.68 7.85 28.91 C 8.11 29.27 8.38 29.15 8.26 29.54 C 8.09 30.04 8.08 30.31 8.07 30.6 C 8.06 31.21 8.43 31.37 8.37 31.64 C 8.28 32.07 8.55 32.21 8.75 32.37 C 9.23 32.75 9.63 32.74 9.78 33.13 C 9.99 33.69 10.33 33.72 10.47 34 C 10.72 34.46 10.8 34.46 11.46 34.61 C 12.03 34.73 12.35 34.89 12.47 35.25 C 12.59 35.74 12.75 35.96 12.92 36.45 C 13.05 36.84 13.07 37.13 13.25 37.57 C 13.34 37.78 13.43 37.94 13.49 38.34 C 13.62 39.12 13.99 38.79 13.99 39.54 C 13.99 39.9 14.08 40.28 14.22 40.67 C 14.32 40.93 14.27 41.11 14.49 41.26 C 14.66 41.37 14.61 41.46 14.65 41.64 C 14.69 41.8 14.82 41.85 14.83 42.14 C 14.83 42.57 15.08 43.02 15.22 43.24 C 15.41 43.51 15.2 43.67 15.51 43.79 C 15.73 43.88 15.71 44.04 15.65 44.2 C 15.62 44.34 15.67 44.48 15.76 44.61 C 16.1 45.15 16.35 45.65 16.75 45.83 C 17.46 46.18 17.94 46.36 18.49 46.32 L 18.49 46.32 C 18.62 46.31 18.8 46.17 18.64 45.98 C 18.5 45.82 18.28 45.87 17.9 45.58 C 17.65 45.39 17.6 45.05 17.56 44.88 C 17.39 44.11 17.31 44.19 17.38 43.99 C 17.49 43.62 17.4 43.51 17.09 43.35 C 16.72 43.14 16.94 43.06 16.97 42.69 C 17.01 42.13 17.17 41.99 16.83 41.76 C 16.6 41.6 16.51 41.54 16.82 41.41 C 17 41.33 16.99 41.28 16.93 41.11 C 16.8 40.8 16.99 40.52 17.26 40.42 C 17.74 40.25 17.7 39.68 17.34 39.33 C 16.93 38.95 17.26 39.09 17.56 39.01 C 18.02 38.89 17.71 38.72 17.96 38.27 C 18.19 37.84 18.15 37.8 18.14 37.5 C 18.13 37.07 18.2 36.99 18.16 36.64 C 18.13 36.43 17.76 36.15 17.99 35.7 C 18.19 35.33 18.22 35.52 18.36 35.39 C 18.7 35.08 18.52 35.08 18.76 34.9 C 19.21 34.57 18.98 34.52 19.07 33.71 C 19.19 32.64 18.67 31.93 18.7 31.76 C 18.76 31.47 18.86 31.38 18.95 31.07 C 19.11 30.56 18.91 30.92 19.11 30.31 C 19.22 29.98 18.97 29.15 18.49 29.02 C 17.9 28.86 18.03 28.67 17.59 28.64 C 17 28.59 16.86 28.9 16.16 28.58 C 15.48 28.27 15.28 28.57 15.02 28.33 C 14.7 28.02 14.75 27.4 13.84 26.96 C 13.23 26.66 13.07 27.33 12.54 26.91 C 12.19 26.63 12.1 26.78 11.82 26.61 C 11.47 26.38 11.42 25.71 11.09 25.99 C 10.84 26.21 11 26.05 10.63 25.88 C 10.04 25.61 9.88 26.09 10.17 26.2 C 10.55 26.35 10.73 26.26 10.64 26.38 C 10.34 26.77 10.52 26.41 10.19 26.5 C 9.63 26.66 9.97 26.51 9.39 26.32 C 9.24 26.27 9.04 26.2 8.89 26.41 C 8.59 26.81 8.48 26.77 8.17 27.11 C 8.08 27.2 8.12 28.07 8.12 28.44 C 8.12 28.87 8.03 28.64 7.88 28.43 C 7.58 27.98 7.51 28.53 7.23 28.17 C 6.82 27.63 7.04 27.05 7.15 26.93 C 7.46 26.58 7.23 25.95 6.97 25.92 C 6.8 25.9 6.3 25.77 6.58 25.41 C 6.97 24.89 6.67 25.02 6.84 24.73 C 7.1 24.32 7.15 24.25 6.87 24.17 C 6.54 24.07 6.49 24.23 6.29 24.48 C 5.92 24.95 6.06 24.61 5.65 24.69 C 5.5 24.71 5.38 25.03 5.13 24.24 C 4.75 22.99 5.46 22.46 5.43 22.28 C 5.36 21.89 5.61 21.72 5.8 21.66 C 6.47 21.45 6.64 21.24 6.85 21.65 C 7.14 22.2 7.47 21.62 7.74 21.65 C 8.83 21.75 8.29 23.69 8.71 23.45 C 9.18 23.19 8.54 21.73 9.49 21.36 C 10.05 21.15 10.71 20.93 10.62 20.45 C 10.52 19.94 10.78 20.02 10.88 19.92 C 11.12 19.69 10.63 19.74 11.32 19.35 C 12.44 18.71 12.66 18.47 13.14 18.46 C 13.6 18.45 13.3 18.7 14.24 18.51 C 15.5 18.26 15.2 17.62 14.78 17.79 C 14.08 18.08 14.31 17.41 14.37 17.12 C 14.51 16.5 14.16 16.88 13.91 16.85 C 13.6 16.82 13.57 17.2 13.34 16.94 C 13.22 16.81 13.31 16.69 13.69 16.57 C 13.94 16.49 13.93 16.19 14.68 16.43 C 15.15 16.59 15.55 16.6 15.82 16.44 C 16.19 16.21 16.47 16.25 16.59 16.01 C 16.75 15.68 15.91 15.09 15.87 14.78 C 15.83 14.41 15.71 14.48 15.82 14.23 C 16.04 13.75 15.85 13.73 15.84 13.38 C 15.83 13.1 15.9 12.88 15.66 13.04 C 15.14 13.38 15.06 13.57 14.81 12.96 C 14.73 12.75 14.91 12.53 14.91 12.37 C 14.93 12.07 14.8 12.11 14.69 11.9 C 14.59 11.69 14.76 11.57 14.41 11.59 C 14.06 11.61 14.16 11.53 13.91 11.53 C 13.53 11.54 13.6 12.28 13.39 12.41 C 13.06 12.61 13.05 12.63 13.08 12.86 C 13.11 13.19 13.09 13.8 12.68 13.98 C 12.06 14.26 12.17 15.14 11.66 15.3 C 11.35 15.39 11.35 14.68 11.46 14.31 C 11.53 14.05 11.53 13.95 11.3 13.85 C 10.68 13.61 10.88 13.31 10.64 12.96 C 10.4 12.6 10.04 12.62 10.09 12.38 C 10.2 11.92 10.08 12.1 9.99 11.92 C 9.67 11.32 10.48 11.01 10.7 10.87 C 11.14 10.58 11.24 10.26 11.8 10.29 C 12.19 10.31 12.18 10.21 12.28 10.24 C 12.56 10.33 12.16 10.75 12.55 10.75 C 12.84 10.75 13.07 10.5 12.93 10.21 C 12.74 9.82 13.3 9.86 13.64 9.66 C 14.17 9.34 13.68 8.67 14.05 8.36 C 14.67 7.86 15.18 7.99 15.33 8.58 C 15.48 9.21 15.83 9.28 15.54 9.6 C 15.14 10.04 15.05 10.43 14.82 10.42 C 14.27 10.41 13.72 10.71 13.96 10.97 C 14.19 11.23 14.28 10.8 14.96 11.38 C 15.39 11.74 14.85 11.65 15.63 11.94 C 16.1 12.12 15.96 11.81 15.71 11.62 C 15.41 11.39 15.7 11.03 16.08 11.39 C 16.36 11.65 16.56 11.27 16.31 10.96 C 16.04 10.64 16.36 10.25 16.49 10.5 C 16.62 10.73 16.7 10.53 16.74 10.77 C 16.82 11.21 16.96 10.97 17.28 10.63 C 17.43 10.44 17.51 10.06 17.27 9.8 C 17.08 9.61 17.06 9.45 17.02 9.4 C 16.97 9.35 16.87 9.31 16.81 9.24 C 16.72 9.14 16.71 9.04 16.79 8.88 C 16.87 8.73 16.94 8.53 16.74 8.33 C 16.51 8.13 16.28 7.97 16.44 7.58 C 16.48 7.42 16.46 7.32 16.31 7.32 C 16.11 7.31 15.86 7.2 15.88 7.04 C 15.93 6.8 15.93 6.7 15.72 6.66 C 15.4 6.64 15.13 6.65 14.6 6.49 C 13.98 6.33 14.01 6.53 13.94 6.52 C 13.79 6.52 13.89 6.31 13.92 6.1 C 13.94 5.99 13.81 6.03 13.91 5.95 C 13.99 5.88 14.23 5.65 14.09 5.56 C 13.88 5.48 13.85 5.76 13.71 5.99 C 13.63 6.13 13.49 6.45 13.55 6.49 C 13.61 6.52 13.67 6.42 13.71 6.47 C 13.77 6.54 13.69 6.59 13.77 6.63 C 13.93 6.76 13.72 6.84 13.69 6.79 C 13.66 6.68 13.54 6.86 13.47 6.91 C 13.3 7.04 13.3 7.12 13.34 7.23 C 13.45 7.51 13.38 7.55 13.4 7.71 C 13.44 8.05 13.31 8.09 13.51 8.25 C 13.73 8.43 13.59 8.5 13.51 8.6 C 13.34 8.79 13.28 8.72 13.23 8.81 C 13.15 8.93 13.21 8.96 13.1 9.09 C 12.93 9.26 12.79 9.33 12.75 9.17 C 12.73 9.03 12.65 8.97 12.53 8.96 C 12.34 8.95 12.33 8.84 12.38 8.58 C 12.39 8.49 12.31 8.46 12.33 8.43 C 12.37 8.38 12.39 8.25 12.36 8.21 C 12.24 8.02 12.28 7.88 12.49 7.71 C 12.86 7.41 12.36 7.32 12.36 7.01 C 12.36 6.8 12.61 6.64 13.06 6.62 C 13.19 6.62 13.49 6.4 13.53 6.19 C 13.54 6.13 13.56 6.03 13.53 6 C 13.41 5.93 13.35 5.99 13.29 6.03 C 13.2 6.09 13.16 6.16 13.2 6.28 C 13.24 6.49 13.07 6.58 12.91 6.58 C 12.61 6.58 12.63 6.46 12.42 6.39 C 12.14 6.32 12.13 6.44 12.03 6.44 C 11.74 6.42 11.72 6.57 11.51 6.72 C 11.37 6.86 11.4 7.04 11.5 7.08 C 11.62 7.12 11.69 7.18 11.7 7.28 C 11.71 7.44 11.8 7.51 11.92 7.5 C 12.21 7.5 12.23 7.64 12.14 7.82 C 12.08 7.94 12.09 8.02 12.14 8.13 C 12.39 8.38 12.22 8.55 11.97 8.73 C 11.73 8.89 11.49 8.97 11.3 8.9 C 10.88 8.76 10.76 8.72 10.36 8.75 C 10.05 8.76 9.97 8.69 9.91 8.46 C 9.87 8.31 9.71 8.39 9.64 8.43 C 8.94 8.8 8.97 8.49 8.51 8.49 C 8.24 8.49 8.03 8.49 8.11 8.34 C 8.27 8.12 8.09 8.09 7.85 8.04 L 8.14 7.64 C 8.7 8.17 8.98 8.23 9.52 8.02 C 9.71 7.95 10.01 7.88 10.1 8.08 C 10.26 8.32 10.33 8.3 10.77 8.16 C 11.13 8.05 11.23 7.98 10.98 7.66 C 10.55 7.18 10.77 7.08 10.78 6.72 C 10.87 6.37 10.13 6.36 9.76 6.37 C 9.7 6.36 9.74 6.29 9.63 6.27 L 10.34 5.77 C 10.79 5.77 11.22 5.83 11.42 5.61 C 11.57 5.44 11.47 5.32 11.13 5.17 L 11.95 4.58 C 12.12 4.44 12.16 4.58 12.33 4.58 C 12.5 4.57 12.61 4.59 12.65 4.74 C 12.67 4.89 12.75 4.99 12.92 4.98 C 13.19 4.97 13.26 4.86 13.17 4.61 C 13.02 4.32 13.1 4.19 12.65 4.17 L 14.37 3.24 C 14.4 3.45 14.38 3.61 14.35 3.74 C 14.31 3.93 14.27 4.18 14.11 4.2 C 13.91 4.23 13.71 3.97 13.58 4.19 C 13.43 4.44 13.81 4.66 13.72 4.81 C 13.45 5.31 14.11 5.11 14.16 5.29 C 14.21 5.41 14.17 5.51 14.49 5.43 C 14.78 5.38 15.1 5.43 15.42 5.41 C 15.77 5.4 15.74 5.01 16.34 4.56 C 16.45 4.47 16.6 4.11 16.95 3.87 C 17.25 3.79 17.4 3.56 17.58 3.32 C 17.76 3.07 17.98 2.99 18.25 2.87 C 18.57 2.75 18.74 2.64 18.84 2.5 C 18.92 2.38 19.28 2.19 19.51 2.16 C 19.7 2.13 20.36 1.8 20.27 1.53 C 20.19 1.18 18.65 1.3 18.37 1.41 C 18.14 1.48 17.94 1.23 17.78 1.37 C 17.67 1.47 17.5 1.42 17.2 1.52 C 16.76 1.69 16.45 1.72 16.18 1.71 C 18.77 0.74 21.57 0.21 24.5 0.21 Z M 24.41 1.85 C 24.07 1.84 23.75 1.91 23.52 2.08 C 22.95 2.5 23.25 2.2 22.93 2.23 C 22.5 2.28 22.59 2.47 22.39 2.59 C 22.23 2.69 22.4 2.98 22.2 2.99 C 22.03 3 22.21 2.65 21.94 2.66 C 21.18 2.67 21.02 2.85 20.72 2.9 C 19.85 3.04 19.93 3.32 19.41 3.53 C 19.23 3.6 19 3.66 19.29 3.78 C 19.48 3.87 19.48 4.01 19.25 4.11 C 18.87 4.29 18.9 4.06 18.31 4.48 C 18.12 4.61 18.43 4.76 18.28 4.9 C 18.08 5.08 18.14 5.12 18.25 5.25 C 18.48 5.51 18.25 5.15 19.31 5.2 C 19.95 5.23 19.87 5.35 20.04 5.49 C 20.3 5.7 20.31 6.11 20.26 6.3 C 20.2 6.54 20.18 6.66 20.4 6.68 C 21.03 6.75 20.94 6.91 20.94 7.29 C 20.94 7.78 20.38 7.7 20.35 8.1 C 20.31 8.54 20.1 8.64 20.38 9.04 C 20.7 9.5 20.32 9.39 20.73 9.8 C 20.99 10.06 20.84 10.22 21.09 10.17 C 21.36 10.12 21.47 10.34 21.61 10.37 C 21.84 10.43 21.82 10.09 21.98 9.82 C 22.14 9.52 22.14 9.58 22.24 9.4 C 22.39 9.14 22.33 8.85 22.51 8.62 C 22.66 8.44 22.88 8.63 23.2 8.43 C 23.67 8.13 24.04 7.46 24.78 7.51 C 25.1 7.53 25.35 7.12 25.64 6.87 C 25.82 6.72 25.49 6.54 25.73 6.32 C 25.94 6.12 25.91 6.03 25.92 5.77 C 25.94 5.41 26 5.19 26.12 4.97 C 26.18 4.86 25.98 4.8 25.96 4.64 C 25.94 4.51 26.12 4.3 26.11 4.15 C 26.1 3.89 26.34 3.83 26.47 3.57 C 26.72 3.36 26.81 3.25 26.85 2.9 C 26.89 2.53 26.56 2.81 26.31 2.82 C 25.48 2.84 26.26 2.59 26.05 2.28 C 25.97 2.15 25.15 1.85 24.41 1.85 Z M 33.18 3.59 C 32.99 3.59 32.78 3.62 32.54 3.69 C 32.45 3.71 32.29 3.97 32.23 3.98 C 32.12 3.99 32.16 3.81 31.82 3.97 C 31.63 4.07 31.29 3.82 31.17 4.24 C 31.05 4.69 31.25 4.55 31.38 4.85 C 31.52 5.18 31.39 5.22 31.53 5.4 C 31.66 5.59 31.68 5.45 31.96 5.67 C 32.26 5.91 32.6 5.39 32.59 5.18 C 32.59 4.86 33.01 5.01 32.99 5.27 C 32.98 5.41 33.12 5.42 33.29 5.43 C 33.47 5.43 33.78 5.28 33.48 5.08 C 32.98 4.75 32.61 4.72 32.68 4.36 C 32.7 4.26 33.03 4.3 33.17 4.38 C 33.65 4.64 33.86 4.5 33.99 4.34 C 34.16 4.14 34.31 4 34.02 3.84 C 33.85 3.75 33.58 3.6 33.18 3.59 Z M 25.47 8.64 C 25.44 8.64 25.4 8.65 25.36 8.66 C 25.13 8.74 24.83 8.77 24.67 8.74 C 24.54 8.72 24.46 8.99 24.25 9 C 24.05 9 24.28 8.7 23.94 8.75 C 23.78 8.78 23.6 9 23.62 9.16 C 23.72 9.76 23.97 9.66 24.29 9.82 C 24.76 10.05 24.88 9.96 25.09 9.74 C 25.29 9.54 26.14 9.33 25.84 8.94 C 25.8 8.9 25.7 8.63 25.47 8.64 Z M 24.47 13.21 C 24.24 13.22 24.43 13.36 24.21 13.42 C 24.05 13.47 24.19 13.61 24.15 13.74 C 24.08 13.94 23.92 13.98 23.94 14.25 C 23.96 14.56 24.26 14.52 24.41 14.42 C 24.55 14.33 24.77 14.17 24.79 13.98 C 24.81 13.77 24.56 13.69 24.71 13.52 C 24.84 13.37 24.73 13.21 24.47 13.21 Z M 34.67 15.99 C 34.7 15.99 34.74 15.99 34.78 16 C 35.1 16.05 34.75 16.46 34.61 16.55 C 34.37 16.71 34.4 16.76 34.51 16.84 C 34.75 17 34.81 17.2 35.01 17.37 C 35.15 17.49 35.62 17.6 35.44 17.89 C 35.35 18.05 35.11 18.18 34.8 18.15 C 34.48 18.11 34.28 17.88 33.8 17.85 C 33.41 17.82 33.17 18.07 32.85 18.05 C 32.33 18 32.37 17.62 32.48 17.27 C 32.59 16.92 32.84 16.38 33.13 16.35 C 33.46 16.32 33.45 16.65 33.49 16.79 C 33.55 16.97 33.67 17.07 33.84 17 C 34.06 16.9 34.19 16.77 33.97 16.65 C 33.76 16.54 33.87 16.29 34.07 16.25 C 34.31 16.2 34.41 16 34.67 15.99 Z M 16.44 16.91 C 16.32 16.91 16.24 17.16 16.15 17.27 C 15.99 17.51 15.57 17.56 15.63 17.79 C 15.67 17.95 15.73 17.95 16.04 17.96 C 16.28 17.97 16.43 18.13 16.53 18.2 C 16.78 18.36 16.79 18.54 17 18.38 C 17.13 18.29 17.06 18.03 16.89 17.81 C 16.67 17.51 16.84 17.5 16.7 17.37 C 16.47 17.15 16.68 17.11 16.52 16.95 C 16.49 16.92 16.46 16.91 16.44 16.91 Z M 33.79 22.01 C 33.96 22 34.18 22.25 34.39 22.72 C 34.68 23.41 35.01 23.48 34.92 23.88 C 34.77 24.56 35.17 24.52 35.38 24.79 C 35.55 25 35.49 25.3 35.7 25.54 C 35.79 25.64 36.09 26.29 35.79 26.52 C 35.57 26.69 35.42 26.15 35.23 26.01 C 34.67 25.56 35.07 25.32 34.7 24.98 C 34.55 24.84 34.44 24.74 34.53 24.6 C 34.61 24.45 34.54 23.98 34.29 23.79 C 34.05 23.6 34.23 23.55 34.11 23.25 C 34.04 23.07 33.89 22.99 33.82 22.67 C 33.76 22.4 33.66 22.4 33.63 22.23 C 33.61 22.11 33.68 22.06 33.73 22.03 C 33.75 22.02 33.77 22.01 33.79 22.01 Z M 8.48 24.08 C 8.4 24.07 8.33 24.11 8.28 24.22 C 8.11 24.62 9.05 24.6 9.21 25.02 C 9.33 25.33 9.46 25.61 9.78 25.46 C 10.02 25.36 9.91 25.19 9.57 24.92 C 9.4 24.79 9.37 24.59 9.15 24.53 C 9.07 24.51 9.18 24.39 9.01 24.31 C 8.8 24.22 8.62 24.09 8.48 24.08 Z M 36.83 34.07 C 36.76 34.07 36.7 34.15 36.67 34.32 C 36.65 34.44 36.56 34.41 36.44 34.57 C 36.38 34.65 36.35 34.75 36.26 34.84 C 36.17 34.93 36.01 35 35.91 35.05 C 35.55 35.22 35.47 35.63 35.6 35.89 C 35.72 36.13 35.55 36.17 35.39 36.59 C 35.19 37.12 35.39 37.7 35.77 37.78 C 36.19 37.86 36.51 36.56 36.58 36.13 C 36.63 35.79 36.7 35.92 36.79 35.45 C 36.86 35.11 37.07 34.91 37.08 34.64 C 37.08 34.28 36.95 34.07 36.83 34.07 Z" fill="#bea9d4" stroke="none" pointer-events="all"/></g></g></svg>