<?xml version="1.0" encoding="UTF-8"?>
<!-- Do not edit this file with editors other than draw.io -->
<!DOCTYPE svg PUBLIC "-//W3C//DTD SVG 1.1//EN" "http://www.w3.org/Graphics/SVG/1.1/DTD/svg11.dtd">
<svg xmlns="http://www.w3.org/2000/svg" xmlns:xlink="http://www.w3.org/1999/xlink" version="1.1" width="50px" height="50px" viewBox="-0.5 -0.5 50 50" content="&lt;mxfile host=&quot;Electron&quot; modified=&quot;2024-05-28T21:40:00.009Z&quot; agent=&quot;Mozilla/5.0 (Windows NT 10.0; Win64; x64) AppleWebKit/537.36 (KHTML, like Gecko) draw.io/24.4.8 Chrome/124.0.6367.207 Electron/30.0.6 Safari/537.36&quot; version=&quot;24.4.8&quot; etag=&quot;QeCe8un1bk0DYcKJMoAy&quot; type=&quot;device&quot; scale=&quot;1&quot; border=&quot;0&quot;&gt;&#10;  &lt;diagram name=&quot;Page-1&quot; id=&quot;6nKS7FP4AwamXDsJ2EsI&quot;&gt;&#10;    &lt;mxGraphModel dx=&quot;1038&quot; dy=&quot;704&quot; grid=&quot;1&quot; gridSize=&quot;10&quot; guides=&quot;1&quot; tooltips=&quot;1&quot; connect=&quot;1&quot; arrows=&quot;1&quot; fold=&quot;1&quot; page=&quot;1&quot; pageScale=&quot;1&quot; pageWidth=&quot;827&quot; pageHeight=&quot;1169&quot; math=&quot;0&quot; shadow=&quot;0&quot;&gt;&#10;      &lt;root&gt;&#10;        &lt;mxCell id=&quot;0&quot; /&gt;&#10;        &lt;mxCell id=&quot;1&quot; parent=&quot;0&quot; /&gt;&#10;        &lt;mxCell id=&quot;2&quot; value=&quot;&quot; style=&quot;sketch=0;pointerEvents=1;shadow=0;dashed=0;html=1;strokeColor=none;fillColor=#006600;aspect=fixed;labelPosition=center;verticalLabelPosition=bottom;verticalAlign=top;align=center;outlineConnect=0;shape=mxgraph.vvd.networking;&quot; vertex=&quot;1&quot; parent=&quot;1&quot;&gt;&#10;          &lt;mxGeometry x=&quot;243.64000000000001&quot; y=&quot;1104.06&quot; width=&quot;50&quot; height=&quot;50&quot; as=&quot;geometry&quot; /&gt;&#10;        &lt;/mxCell&gt;&#10;      &lt;/root&gt;&#10;    &lt;/mxGraphModel&gt;&#10;  &lt;/diagram&gt;&#10;&lt;/mxfile&gt;&#10;"><defs/><g><g><rect x="-0.36" y="-0.94" width="50" height="50" fill="none" stroke="none" pointer-events="all"/><path d="M 12.78 6.08 C 12.5 6.07 12.55 6.04 12.4 5.88 C 12.3 5.79 12.18 5.86 12.14 5.63 C 12.12 5.52 12.11 5.35 12.23 5.27 C 12.51 5.08 12.94 5.15 13.17 5.32 C 13.35 5.45 13.05 6.08 12.78 6.08 Z M 24.64 -0.94 C 10.84 -0.94 -0.36 10.26 -0.36 24.06 C -0.36 37.86 10.84 49.06 24.64 49.06 C 38.44 49.06 49.64 37.86 49.64 24.06 C 49.64 10.26 38.44 -0.94 24.64 -0.94 Z M 24.64 0.21 C 29.53 0.21 34.07 1.68 37.86 4.2 C 37.83 4.36 37.7 4.48 37.5 4.64 C 37.36 4.76 37.23 4.84 37.23 5.18 C 37.22 5.43 36.83 5.7 37.04 6.01 C 37.37 6.49 38.02 6.76 38.26 6.51 C 38.47 6.29 37.95 6.31 37.95 5.69 C 37.95 5.32 38.24 4.85 38.43 4.6 C 39.08 5.06 39.71 5.56 40.32 6.09 C 40.27 6.17 40.22 6.26 40.19 6.36 C 40.14 6.48 40.15 7.01 40.19 7.12 C 40.39 7.58 40.16 7.36 40.03 7.19 C 39.87 6.99 39.67 6.96 39.5 6.93 C 39.19 6.88 39.28 7.08 38.96 6.78 C 38.74 6.59 38.58 6.83 38.79 6.99 C 38.98 7.13 39.16 7.23 39 7.31 C 38.48 7.56 38.32 7.43 38.01 7.4 C 37.58 7.35 37.71 7.56 37.42 7.6 C 37.23 7.62 37.23 7.56 37.1 7.68 C 36.81 7.93 36.85 7.81 36.68 7.95 C 36.58 8.03 36.42 8.31 36.29 8.28 C 35.93 8.19 36.14 7.87 35.92 7.79 C 35.73 7.73 35.71 7.88 35.73 8.04 C 35.76 8.36 35.62 8.38 35.43 8.33 C 35.21 8.28 35.25 8.27 35.04 8.5 C 34.96 8.59 34.85 8.58 34.91 8.76 C 34.94 8.87 34.83 8.89 34.78 8.94 C 34.68 9.04 34.77 9.02 34.64 9.16 C 34.34 9.47 34.3 9.33 34.1 9.15 C 33.82 8.9 33.99 8.79 33.79 8.54 C 33.37 8.01 33.55 8.01 34.01 8.26 C 34.39 8.47 35.01 8.45 35.09 8.08 C 35.19 7.61 33.92 6.95 33.62 6.93 C 33.21 6.89 33.33 6.65 33.1 6.59 C 32.89 6.54 33.02 6.57 32.78 6.3 C 32.37 5.83 32.41 5.97 31.81 6.02 C 31.09 6.08 31.08 6.24 30.79 6.22 C 30.44 6.21 30.27 6.84 29.78 7.08 C 29.38 7.27 29.06 7.51 29.59 7.57 C 30.06 7.63 29.63 8.12 29.31 8.41 C 29.14 8.57 28.82 9.06 28.61 9.09 C 28.34 9.14 28.16 9.5 27.88 9.72 C 27.63 9.92 27.44 9.85 27.41 10.16 C 27.35 10.88 27.45 11.24 27.64 11.54 C 27.83 11.85 28.01 11.45 28.25 11.46 C 28.47 11.46 28.37 11.4 28.6 11.39 C 28.97 11.37 28.73 11.67 29.04 12.05 C 29.33 12.41 29.13 12.5 29.29 12.54 C 29.43 12.57 29.4 12.45 29.61 12.28 C 29.71 12.19 29.98 12.43 29.97 12.09 C 29.94 11.36 30.02 11.49 30.29 11.25 C 30.58 11.01 29.98 10.93 29.99 10.58 C 30 10.28 30.23 9.72 30.38 9.52 C 30.58 9.24 30.92 9.29 30.91 8.98 C 30.9 8.47 31.14 8.33 31.43 8.39 C 32.09 8.54 31.34 9.33 31.13 9.53 C 30.93 9.71 31.13 9.77 31.1 10.21 C 31.09 10.42 31.26 10.62 31.47 10.75 C 31.75 10.91 31.84 10.57 32.01 10.56 C 32.29 10.56 32.3 10.44 32.46 10.43 C 32.8 10.4 32.81 9.94 33.22 10.37 C 33.43 10.6 32.77 10.99 32.53 11.02 C 31.96 11.1 32.16 11.19 31.84 11.28 C 31.54 11.35 31.51 11.4 31.57 11.56 C 31.68 11.9 31.47 11.98 31.38 11.96 C 31.16 11.89 31.12 11.82 31.02 11.99 C 30.86 12.27 30.98 12.32 30.87 12.47 C 30.42 13.01 29.77 13.21 29.57 13.2 C 28.91 13.17 29 13.36 28.68 13.35 C 28.12 13.31 28.29 13.41 27.91 13.49 C 27.51 13.59 27.55 13.46 27.38 13.63 C 27.19 13.81 27.24 13.95 26.94 14.22 C 26.71 14.44 26.68 14.49 26.72 14.23 C 26.74 14.06 26.68 14.07 26.53 13.91 C 26.4 13.77 26.38 13.95 26.36 13.69 C 26.35 13.49 26.25 13.5 26.05 13.22 C 25.78 12.81 25.81 12.8 25.8 12.68 C 25.77 12.38 25.97 12.46 25.87 12.25 C 25.79 12.1 25.65 12.28 25.59 11.87 C 25.57 11.72 25.28 11.82 25.11 11.87 C 24.89 11.94 24.77 12.16 24.72 12.43 C 24.68 12.73 25.03 12.99 25.14 13.17 C 25.24 13.33 25.37 13.18 25.58 13.38 C 25.74 13.53 25.74 13.6 25.6 13.69 C 25.23 13.93 25.39 13.89 25.23 14.06 C 25.06 14.23 25.17 14.31 25.07 14.56 C 24.93 14.91 25.18 15.07 25.54 14.9 C 25.76 14.8 25.82 14.73 25.98 14.75 C 26.25 14.79 26.2 14.66 26.31 14.64 C 26.7 14.56 26.17 14.89 25.99 15 C 25.59 15.22 25.61 15.12 25.46 15.12 C 25.18 15.13 25.1 15.35 25.3 15.47 C 25.74 15.72 25.61 15.72 25.77 15.98 C 25.94 16.26 26.21 16.43 25.91 16.88 C 25.72 17.16 25.59 16.94 25.09 16.91 C 24.42 16.87 24.46 16.96 24.24 17 C 24.09 17.03 24.08 17.04 24.14 17.16 C 24.26 17.41 24.21 17.87 24.16 18.07 C 24.06 18.48 24.04 18.68 24.16 18.94 C 24.31 19.24 24.45 18.81 24.79 19.27 C 24.93 19.44 24.97 19.36 25.09 19.27 C 25.31 19.09 25.43 19.25 25.61 19.13 C 25.77 19.03 25.66 18.97 25.88 18.87 C 26.07 18.79 26.22 18.62 26.21 18.39 C 26.2 17.95 26.28 18.04 26.31 18.02 C 26.46 17.92 26.47 17.79 26.65 17.65 C 26.88 17.48 26.88 17.56 26.95 17.28 C 27.02 17 27.18 16.91 27.38 17 C 27.52 17.07 27.56 17.23 27.9 16.91 C 28.32 16.52 28.43 16.71 28.59 17.08 C 28.84 17.63 29.42 17.91 29.61 18.07 C 29.68 18.15 29.82 18.3 29.8 18.46 C 29.79 18.56 29.71 18.8 29.57 18.78 C 29.27 18.75 29.46 18.99 29.52 19.07 C 29.66 19.27 29.68 18.83 29.83 18.82 C 30.01 18.8 30.03 18.44 30 18.35 C 29.88 18.03 30.36 18.3 30.32 18.1 C 30.28 17.88 29.53 17.58 29.41 17.29 C 29.3 17.02 28.94 16.93 28.97 16.55 C 28.99 16.2 29.49 16.58 29.57 16.69 C 29.86 17.09 30.02 17.11 30.14 17.17 C 30.68 17.46 30.65 17.64 30.64 17.77 C 30.58 18.46 30.93 18.11 30.95 18.77 C 30.96 19.35 31.59 19.14 31.69 19.06 C 32.14 18.71 31.28 18.48 31.53 18.16 C 31.95 17.63 32.19 17.98 32.31 18.25 C 32.42 18.51 32.3 18.81 32.54 19.02 C 32.75 19.21 32.68 19.28 33.03 19.38 C 33.35 19.48 33.24 19.09 33.55 19.36 C 33.65 19.44 33.85 19.53 34.02 19.38 C 34.3 19.16 34.45 19.58 34.44 19.99 C 34.44 20 34.32 20.26 34.32 20.58 C 34.32 20.81 33.95 21.08 33.64 21.03 C 33.07 20.92 32.79 21.24 32.44 21.03 C 32.11 20.83 31.92 20.89 31.68 20.72 C 31.15 20.35 30.85 20.51 30.78 20.69 C 30.69 20.96 30.94 21.27 30.23 21.16 C 29.77 21.09 29.92 20.76 29.23 20.56 C 28.75 20.43 28.5 20.13 28.54 20.04 C 28.73 19.61 28.58 19.57 28.66 19.28 C 28.78 18.88 28.16 19.13 26.98 19.15 C 26.4 19.16 26.43 19.29 26.31 19.33 C 25.85 19.5 25.82 19.64 25.67 19.66 C 25.42 19.69 25.4 19.51 25.27 19.63 C 25.21 19.69 25.17 19.66 25.05 19.57 C 24.88 19.43 24.75 19.67 24.72 19.8 C 24.61 20.35 24.36 20.02 24.05 20.52 C 23.68 21.11 24.34 21.35 23.35 22.08 C 22.75 22.51 22.63 23.17 22.45 23.33 C 21.98 23.71 22.19 24.23 22.35 24.84 C 22.62 25.84 22.03 25.52 22.26 26.43 C 22.4 27.01 22.76 27.05 22.97 27.66 C 23.21 28.39 23.57 28.42 23.85 28.75 C 24.21 29.16 24.33 29.14 24.7 29 C 25.25 28.78 25.23 29.13 25.42 29.04 C 26.18 28.66 26.11 28.81 26.38 28.69 C 27.06 28.39 27.19 28.43 27.47 28.98 C 27.65 29.34 27.95 28.94 28.07 29.03 C 28.52 29.34 28.38 29.56 28.4 29.78 C 28.44 30.53 28.26 30.29 28.25 30.63 C 28.22 31.24 28.43 30.81 28.97 32.1 C 29.29 32.86 29.09 33.04 29.27 33.55 C 29.51 34.21 29.02 34.25 29.05 34.63 C 29.08 35.06 28.82 34.85 28.87 35.54 C 28.91 36.09 29.01 35.88 29.12 36.4 C 29.25 37.05 29.49 36.51 29.49 38.06 C 29.49 38.85 29.77 38.71 29.96 39.33 C 30.15 39.92 30.28 40.01 30.14 40.3 C 30.04 40.52 30.01 40.65 30.41 40.89 C 30.58 41 30.93 40.72 31.18 40.68 C 31.48 40.63 31.66 40.75 32.05 40.57 C 32.26 40.47 33.13 39.24 33.28 38.9 C 33.55 38.31 33.11 38.17 33.64 37.92 C 33.93 37.78 34.16 37.65 33.96 37.03 C 33.79 36.53 33.88 36.42 34.01 36.19 C 34.51 35.39 34.49 36.05 35.08 35.28 C 35.28 35.03 35.31 33.97 35.28 33.62 C 35.24 33.22 34.94 33.29 35.1 32.85 C 35.2 32.55 35.07 32.15 35.07 32.02 C 35.06 31.62 35.42 31.29 35.62 31.02 C 35.86 30.69 35.67 30.8 35.93 30.46 C 36.63 29.51 36.25 30.32 36.92 29.46 C 37.31 28.96 37.29 28.83 37.48 28.24 C 37.63 27.8 37.75 28.02 37.86 27.37 C 37.93 26.96 37.74 27.05 37.57 27.1 C 37.3 27.18 37.3 27.02 37.08 27.2 C 36.81 27.42 36.75 27.27 36.56 27.27 C 36.15 27.27 36.27 27.22 36.2 27.12 C 36 26.85 36.09 26.85 36.13 26.78 C 36.21 26.64 36.4 26.76 36.64 26.44 C 36.74 26.3 36.88 26.23 37.21 26.16 C 38.15 25.97 38.13 25.71 38.36 25.45 C 38.72 25.07 38.82 25.16 38.97 25.04 C 39.11 24.93 39.17 24.71 39.22 24.67 C 39.67 24.25 39.87 23.99 39.86 23.75 C 39.85 23.36 38.99 22.94 38.74 23.04 C 38.27 23.24 38.17 23.13 37.92 23 C 37.5 22.76 37.79 22.63 37.61 22.43 C 37.36 22.16 37.42 22.13 37.33 21.95 C 37.11 21.49 37.24 21.32 37.52 21.32 C 37.81 21.33 37.87 21.9 38.03 22.07 C 38.34 22.39 38.63 22.51 38.91 22.4 C 39.27 22.25 39.34 22.6 39.69 22.78 C 40.05 22.96 40.1 22.67 40.26 22.82 C 40.37 22.91 40.15 22.99 40.4 23.27 C 40.83 23.74 40.68 23.78 40.73 24.03 C 40.81 24.41 40.96 24.36 41.2 24.26 C 41.41 24.17 41.35 24.45 41.34 24.66 C 41.33 24.93 41.44 24.85 41.41 25.09 C 41.33 25.77 41.49 25.68 41.53 26.13 C 41.61 27.07 41.94 27.99 42.03 28 C 42.29 28.05 42.1 27.9 42.33 27.79 C 42.54 27.7 42.54 27.69 42.56 27.31 C 42.57 27.14 42.68 27.06 42.68 26.63 C 42.68 25.88 42.98 25.94 43.28 25.6 C 44.19 24.55 44.11 24.91 44.21 24.77 C 44.31 24.63 44.26 24.59 44.36 24.45 C 44.53 24.18 44.64 24.51 44.91 24.23 C 45.25 23.87 45.27 24.21 45.32 24.51 C 45.37 24.84 45.42 24.71 45.55 24.9 C 45.67 25.08 45.62 25.18 45.69 25.29 C 45.93 25.62 46.08 25.19 46.33 26.19 C 46.74 27.82 46.29 27.71 46.42 28.16 C 46.54 28.59 46.62 28.36 46.64 29.06 C 46.65 29.54 46.72 29.94 47.12 30.06 C 47.36 30.13 47.19 29.85 47.19 29.54 C 47.2 29.01 47.11 29.03 46.87 28.62 C 46.36 27.72 46.71 27.71 46.73 27.35 C 46.77 26.65 47.11 26.96 47.31 27.46 C 47.55 28.08 47.89 27.89 48.22 27.66 C 47.98 29.23 47.59 30.75 47.06 32.2 C 46.87 32.15 46.67 32.1 46.66 31.92 C 46.64 31.73 46.78 31.72 46.77 31.46 C 46.75 31.09 46.5 31.25 46.51 30.96 C 46.52 30.59 46.16 30.7 45.95 30.03 C 45.87 29.76 45.57 29.44 45.41 29.57 C 45.21 29.72 45.63 29.9 45.62 30.48 C 45.62 30.79 45.92 30.77 46.02 31.23 C 46.1 31.61 46.21 31.76 46.3 31.98 C 46.49 32.44 46.73 32.5 46.9 32.62 C 46 34.97 44.74 37.14 43.18 39.06 C 43.03 38.97 42.87 38.84 42.8 38.7 C 42.7 38.52 42.84 38.33 42.7 38.17 C 42.59 38.06 42.44 38.18 42.44 38.34 C 42.46 38.64 42.28 38.75 42.29 38.87 C 42.3 39.31 42.14 39.21 42.08 39.41 C 41.94 39.87 41.78 39.87 41.63 39.67 C 41.34 39.29 41.31 39.38 41.08 39.31 C 40.84 39.24 41.03 38.73 41.3 38.53 C 41.51 38.38 41.43 38.27 41.28 38.26 C 40.76 38.24 40.52 38.1 40.22 38.22 C 39.9 38.35 39.99 38.49 39.75 38.81 C 39.52 39.13 39.42 39.01 39.3 38.95 C 39.17 38.87 39 38.86 38.86 38.96 C 38.41 39.27 38.31 39.54 38.08 39.68 C 37.87 39.8 37.76 39.97 37.76 40.12 C 37.78 40.47 37.36 40.62 37.26 40.63 C 37.08 40.65 37.14 40.57 36.77 40.7 C 36.46 40.82 36.03 41.23 35.76 41.49 C 35.7 41.56 35.66 41.54 35.66 41.73 C 35.65 42.09 35.54 42.07 35.52 42.46 C 35.49 42.98 35.58 43.36 35.62 43.38 C 35.71 43.41 35.61 43.49 35.57 43.64 C 35.49 44.04 35.85 43.93 35.44 44.66 C 35.33 44.84 35.44 45.06 35.65 45.22 C 32.36 46.94 28.62 47.91 24.64 47.91 C 20.17 47.91 15.98 46.68 12.41 44.54 C 12.57 44.3 12.61 43.97 12.23 43.88 C 12.06 43.87 12.05 43.75 11.75 43.6 C 11.5 43.4 11.11 43.03 10.71 42.77 C 10.55 42.76 10.44 42.88 10.24 42.7 C 10.12 42.59 10.05 42.51 10.08 42.33 C 10.08 42.25 9.85 42.14 9.73 42.11 C 9.7 41.97 9.82 41.84 9.71 41.71 C 9.45 41.46 9.7 41.22 9.58 41.16 C 9.49 41.12 9.24 41.37 9.29 41.54 C 9.34 41.7 9.57 41.88 9.39 41.98 C 9.3 42.04 9.21 42.1 9.09 42.15 C 4.01 37.78 0.79 31.3 0.79 24.06 C 0.79 21.9 1.08 19.81 1.62 17.82 C 1.85 18.24 1.61 18.45 1.88 18.59 C 2.09 18.68 2.16 19.21 2.15 19.57 C 2.15 19.85 2.47 19.77 2.48 19.97 C 2.48 20.23 2.58 20.17 2.67 20.48 C 2.74 20.64 2.88 20.42 2.94 20.59 C 3.15 21.16 3.13 22.02 3.49 22.69 C 3.62 22.9 3.58 23.15 3.46 23.41 C 3.28 23.9 3.72 24.25 4.12 24.77 C 4.29 24.93 4.35 24.86 4.5 25.04 C 4.69 25.24 4.83 25.4 5.05 25.43 C 5.56 25.49 5.57 25.53 5.64 25.77 C 5.78 26.23 5.99 26.44 6.21 26.54 C 6.61 26.71 6.64 27.09 6.64 27.34 C 6.63 27.6 6.7 27.86 6.79 28.02 C 7.01 28.37 7.04 28.32 7.19 28.57 C 7.3 28.73 7.41 28.91 7.55 28.75 C 7.77 28.46 7.85 28.68 7.99 28.91 C 8.25 29.27 8.52 29.15 8.4 29.54 C 8.23 30.04 8.22 30.31 8.21 30.6 C 8.2 31.21 8.57 31.37 8.51 31.64 C 8.42 32.07 8.69 32.21 8.89 32.37 C 9.37 32.75 9.77 32.74 9.92 33.13 C 10.13 33.69 10.47 33.72 10.61 34 C 10.86 34.46 10.94 34.46 11.6 34.61 C 12.17 34.73 12.49 34.89 12.61 35.25 C 12.73 35.74 12.89 35.96 13.06 36.45 C 13.19 36.84 13.21 37.13 13.39 37.57 C 13.48 37.78 13.57 37.94 13.63 38.34 C 13.76 39.12 14.13 38.79 14.13 39.54 C 14.13 39.9 14.22 40.28 14.36 40.67 C 14.46 40.93 14.41 41.11 14.63 41.26 C 14.8 41.37 14.75 41.46 14.79 41.64 C 14.83 41.8 14.96 41.85 14.97 42.14 C 14.97 42.57 15.22 43.02 15.36 43.24 C 15.55 43.51 15.34 43.67 15.65 43.79 C 15.87 43.88 15.85 44.04 15.79 44.2 C 15.76 44.34 15.81 44.48 15.9 44.61 C 16.24 45.15 16.49 45.65 16.89 45.83 C 17.6 46.18 18.08 46.36 18.63 46.32 L 18.63 46.32 C 18.76 46.31 18.94 46.17 18.78 45.98 C 18.64 45.82 18.42 45.87 18.04 45.58 C 17.79 45.39 17.74 45.05 17.7 44.88 C 17.53 44.11 17.45 44.19 17.52 43.99 C 17.63 43.62 17.54 43.51 17.23 43.35 C 16.86 43.14 17.08 43.06 17.11 42.69 C 17.15 42.13 17.31 41.99 16.97 41.76 C 16.74 41.6 16.65 41.54 16.96 41.41 C 17.14 41.33 17.13 41.28 17.07 41.11 C 16.94 40.8 17.13 40.52 17.4 40.42 C 17.88 40.25 17.84 39.68 17.48 39.33 C 17.07 38.95 17.4 39.09 17.7 39.01 C 18.16 38.89 17.85 38.72 18.1 38.27 C 18.33 37.84 18.29 37.8 18.28 37.5 C 18.27 37.07 18.34 36.99 18.3 36.64 C 18.27 36.43 17.9 36.15 18.13 35.7 C 18.33 35.33 18.36 35.52 18.5 35.39 C 18.84 35.08 18.66 35.08 18.9 34.9 C 19.35 34.57 19.12 34.52 19.21 33.71 C 19.33 32.64 18.81 31.93 18.84 31.76 C 18.9 31.47 19 31.38 19.09 31.07 C 19.25 30.56 19.05 30.92 19.25 30.31 C 19.36 29.98 19.11 29.15 18.63 29.02 C 18.04 28.86 18.17 28.67 17.73 28.64 C 17.14 28.59 17 28.9 16.3 28.58 C 15.62 28.27 15.42 28.57 15.16 28.33 C 14.84 28.02 14.89 27.4 13.98 26.96 C 13.37 26.66 13.21 27.33 12.68 26.91 C 12.33 26.63 12.24 26.78 11.96 26.61 C 11.61 26.38 11.56 25.71 11.23 25.99 C 10.98 26.21 11.14 26.05 10.77 25.88 C 10.18 25.61 10.02 26.09 10.31 26.2 C 10.69 26.35 10.87 26.26 10.78 26.38 C 10.48 26.77 10.66 26.41 10.33 26.5 C 9.77 26.66 10.11 26.51 9.53 26.32 C 9.38 26.27 9.18 26.2 9.03 26.41 C 8.73 26.81 8.62 26.77 8.31 27.11 C 8.22 27.2 8.26 28.07 8.26 28.44 C 8.26 28.87 8.17 28.64 8.02 28.43 C 7.72 27.98 7.65 28.53 7.37 28.17 C 6.96 27.63 7.18 27.05 7.29 26.93 C 7.6 26.58 7.37 25.95 7.11 25.92 C 6.94 25.9 6.44 25.77 6.72 25.41 C 7.11 24.89 6.81 25.02 6.98 24.73 C 7.24 24.32 7.29 24.25 7.01 24.17 C 6.68 24.07 6.63 24.23 6.43 24.48 C 6.06 24.95 6.2 24.61 5.79 24.69 C 5.64 24.71 5.52 25.03 5.27 24.24 C 4.89 22.99 5.6 22.46 5.57 22.28 C 5.5 21.89 5.75 21.72 5.94 21.66 C 6.61 21.45 6.78 21.24 6.99 21.65 C 7.28 22.2 7.61 21.62 7.88 21.65 C 8.97 21.75 8.43 23.69 8.85 23.45 C 9.32 23.19 8.68 21.73 9.63 21.36 C 10.19 21.15 10.85 20.93 10.76 20.45 C 10.66 19.94 10.92 20.02 11.02 19.92 C 11.26 19.69 10.77 19.74 11.46 19.35 C 12.58 18.71 12.8 18.47 13.28 18.46 C 13.74 18.45 13.44 18.7 14.38 18.51 C 15.64 18.26 15.34 17.62 14.92 17.79 C 14.22 18.08 14.45 17.41 14.51 17.12 C 14.65 16.5 14.3 16.88 14.05 16.85 C 13.74 16.82 13.71 17.2 13.48 16.94 C 13.36 16.81 13.45 16.69 13.83 16.57 C 14.08 16.49 14.07 16.19 14.82 16.43 C 15.29 16.59 15.69 16.6 15.96 16.44 C 16.33 16.21 16.61 16.25 16.73 16.01 C 16.89 15.68 16.05 15.09 16.01 14.78 C 15.97 14.41 15.85 14.48 15.96 14.23 C 16.18 13.75 15.99 13.73 15.98 13.38 C 15.97 13.1 16.04 12.88 15.8 13.04 C 15.28 13.38 15.2 13.57 14.95 12.96 C 14.87 12.75 15.05 12.53 15.05 12.37 C 15.07 12.07 14.94 12.11 14.83 11.9 C 14.73 11.69 14.9 11.57 14.55 11.59 C 14.2 11.61 14.3 11.53 14.05 11.53 C 13.67 11.54 13.74 12.28 13.53 12.41 C 13.2 12.61 13.19 12.63 13.22 12.86 C 13.25 13.19 13.23 13.8 12.82 13.98 C 12.2 14.26 12.31 15.14 11.8 15.3 C 11.49 15.39 11.49 14.68 11.6 14.31 C 11.67 14.05 11.67 13.95 11.44 13.85 C 10.82 13.61 11.02 13.31 10.78 12.96 C 10.54 12.6 10.18 12.62 10.23 12.38 C 10.34 11.92 10.22 12.1 10.13 11.92 C 9.81 11.32 10.62 11.01 10.84 10.87 C 11.28 10.58 11.38 10.26 11.94 10.29 C 12.33 10.31 12.32 10.21 12.42 10.24 C 12.7 10.33 12.3 10.75 12.69 10.75 C 12.98 10.75 13.21 10.5 13.07 10.21 C 12.88 9.82 13.44 9.86 13.78 9.66 C 14.31 9.34 13.82 8.67 14.19 8.36 C 14.81 7.86 15.32 7.99 15.47 8.58 C 15.62 9.21 15.97 9.28 15.68 9.6 C 15.28 10.04 15.19 10.43 14.96 10.42 C 14.41 10.41 13.86 10.71 14.1 10.97 C 14.33 11.23 14.42 10.8 15.1 11.38 C 15.53 11.74 14.99 11.65 15.77 11.94 C 16.24 12.12 16.1 11.81 15.85 11.62 C 15.55 11.39 15.84 11.03 16.22 11.39 C 16.5 11.65 16.7 11.27 16.45 10.96 C 16.18 10.64 16.5 10.25 16.63 10.5 C 16.76 10.73 16.84 10.53 16.88 10.77 C 16.96 11.21 17.1 10.97 17.42 10.63 C 17.57 10.44 17.65 10.06 17.41 9.8 C 17.22 9.61 17.2 9.45 17.16 9.4 C 17.11 9.35 17.01 9.31 16.95 9.24 C 16.86 9.14 16.85 9.04 16.93 8.88 C 17.01 8.73 17.08 8.53 16.88 8.33 C 16.65 8.13 16.42 7.97 16.58 7.58 C 16.62 7.42 16.6 7.32 16.45 7.32 C 16.25 7.31 16 7.2 16.02 7.04 C 16.07 6.8 16.07 6.7 15.86 6.66 C 15.54 6.64 15.27 6.65 14.74 6.49 C 14.12 6.33 14.15 6.53 14.08 6.52 C 13.93 6.52 14.03 6.31 14.06 6.1 C 14.08 5.99 13.95 6.03 14.05 5.95 C 14.13 5.88 14.37 5.65 14.23 5.56 C 14.02 5.48 13.99 5.76 13.85 5.99 C 13.77 6.13 13.63 6.45 13.69 6.49 C 13.75 6.52 13.81 6.42 13.85 6.47 C 13.91 6.54 13.83 6.59 13.91 6.63 C 14.07 6.76 13.86 6.84 13.83 6.79 C 13.8 6.68 13.68 6.86 13.61 6.91 C 13.44 7.04 13.44 7.12 13.48 7.23 C 13.59 7.51 13.52 7.55 13.54 7.71 C 13.58 8.05 13.45 8.09 13.65 8.25 C 13.87 8.43 13.73 8.5 13.65 8.6 C 13.48 8.79 13.42 8.72 13.37 8.81 C 13.29 8.93 13.35 8.96 13.24 9.09 C 13.07 9.26 12.93 9.33 12.89 9.17 C 12.87 9.03 12.79 8.97 12.67 8.96 C 12.48 8.95 12.47 8.84 12.52 8.58 C 12.53 8.49 12.45 8.46 12.47 8.43 C 12.51 8.38 12.53 8.25 12.5 8.21 C 12.38 8.02 12.42 7.88 12.63 7.71 C 13 7.41 12.5 7.32 12.5 7.01 C 12.5 6.8 12.75 6.64 13.2 6.62 C 13.33 6.62 13.63 6.4 13.67 6.19 C 13.68 6.13 13.7 6.03 13.67 6 C 13.55 5.93 13.49 5.99 13.43 6.03 C 13.34 6.09 13.3 6.16 13.34 6.28 C 13.38 6.49 13.21 6.58 13.05 6.58 C 12.75 6.58 12.77 6.46 12.56 6.39 C 12.28 6.32 12.27 6.44 12.17 6.44 C 11.88 6.42 11.86 6.57 11.65 6.72 C 11.51 6.86 11.54 7.04 11.64 7.08 C 11.76 7.12 11.83 7.18 11.84 7.28 C 11.85 7.44 11.94 7.51 12.06 7.5 C 12.35 7.5 12.37 7.64 12.28 7.82 C 12.22 7.94 12.23 8.02 12.28 8.13 C 12.53 8.38 12.36 8.55 12.11 8.73 C 11.87 8.89 11.63 8.97 11.44 8.9 C 11.02 8.76 10.9 8.72 10.5 8.75 C 10.19 8.76 10.11 8.69 10.05 8.46 C 10.01 8.31 9.85 8.39 9.78 8.43 C 9.08 8.8 9.11 8.49 8.65 8.49 C 8.38 8.49 8.17 8.49 8.25 8.34 C 8.41 8.12 8.23 8.09 7.99 8.04 L 8.28 7.64 C 8.84 8.17 9.12 8.23 9.66 8.02 C 9.85 7.95 10.15 7.88 10.24 8.08 C 10.4 8.32 10.47 8.3 10.91 8.16 C 11.27 8.05 11.37 7.98 11.12 7.66 C 10.69 7.18 10.91 7.08 10.92 6.72 C 11.01 6.37 10.27 6.36 9.9 6.37 C 9.84 6.36 9.88 6.29 9.77 6.27 L 10.48 5.77 C 10.93 5.77 11.36 5.83 11.56 5.61 C 11.71 5.44 11.61 5.32 11.27 5.17 L 12.09 4.58 C 12.26 4.44 12.3 4.58 12.47 4.58 C 12.64 4.57 12.75 4.59 12.79 4.74 C 12.81 4.89 12.89 4.99 13.06 4.98 C 13.33 4.97 13.4 4.86 13.31 4.61 C 13.16 4.32 13.24 4.19 12.79 4.17 L 14.51 3.24 C 14.54 3.45 14.52 3.61 14.49 3.74 C 14.45 3.93 14.41 4.18 14.25 4.2 C 14.05 4.23 13.85 3.97 13.72 4.19 C 13.57 4.44 13.95 4.66 13.86 4.81 C 13.59 5.31 14.25 5.11 14.3 5.29 C 14.35 5.41 14.31 5.51 14.63 5.43 C 14.92 5.38 15.24 5.43 15.56 5.41 C 15.91 5.4 15.88 5.01 16.48 4.56 C 16.59 4.47 16.74 4.11 17.09 3.87 C 17.39 3.79 17.54 3.56 17.72 3.32 C 17.9 3.07 18.12 2.99 18.39 2.87 C 18.71 2.75 18.88 2.64 18.98 2.5 C 19.06 2.38 19.42 2.19 19.65 2.16 C 19.84 2.13 20.5 1.8 20.41 1.53 C 20.33 1.18 18.79 1.3 18.51 1.41 C 18.28 1.48 18.08 1.23 17.92 1.37 C 17.81 1.47 17.64 1.42 17.34 1.52 C 16.9 1.69 16.59 1.72 16.32 1.71 C 18.91 0.74 21.71 0.21 24.64 0.21 Z M 24.55 1.85 C 24.21 1.84 23.89 1.91 23.66 2.08 C 23.09 2.5 23.39 2.2 23.07 2.23 C 22.64 2.28 22.73 2.47 22.53 2.59 C 22.37 2.69 22.54 2.98 22.34 2.99 C 22.17 3 22.35 2.65 22.08 2.66 C 21.32 2.67 21.16 2.85 20.86 2.9 C 19.99 3.04 20.07 3.32 19.55 3.53 C 19.37 3.6 19.14 3.66 19.43 3.78 C 19.62 3.87 19.62 4.01 19.39 4.11 C 19.01 4.29 19.04 4.06 18.45 4.48 C 18.26 4.61 18.57 4.76 18.42 4.9 C 18.22 5.08 18.28 5.12 18.39 5.25 C 18.62 5.51 18.39 5.15 19.45 5.2 C 20.09 5.23 20.01 5.35 20.18 5.49 C 20.44 5.7 20.45 6.11 20.4 6.3 C 20.34 6.54 20.32 6.66 20.54 6.68 C 21.17 6.75 21.08 6.91 21.08 7.29 C 21.08 7.78 20.52 7.7 20.49 8.1 C 20.45 8.54 20.24 8.64 20.52 9.04 C 20.84 9.5 20.46 9.39 20.87 9.8 C 21.13 10.06 20.98 10.22 21.23 10.17 C 21.5 10.12 21.61 10.34 21.75 10.37 C 21.98 10.43 21.96 10.09 22.12 9.82 C 22.28 9.52 22.28 9.58 22.38 9.4 C 22.53 9.14 22.47 8.85 22.65 8.62 C 22.8 8.44 23.02 8.63 23.34 8.43 C 23.81 8.13 24.18 7.46 24.92 7.51 C 25.24 7.53 25.49 7.12 25.78 6.87 C 25.96 6.72 25.63 6.54 25.87 6.32 C 26.08 6.12 26.05 6.03 26.06 5.77 C 26.08 5.41 26.14 5.19 26.26 4.97 C 26.32 4.86 26.12 4.8 26.1 4.64 C 26.08 4.51 26.26 4.3 26.25 4.15 C 26.24 3.89 26.48 3.83 26.61 3.57 C 26.86 3.36 26.95 3.25 26.99 2.9 C 27.03 2.53 26.7 2.81 26.45 2.82 C 25.62 2.84 26.4 2.59 26.19 2.28 C 26.11 2.15 25.29 1.85 24.55 1.85 Z M 33.32 3.59 C 33.13 3.59 32.92 3.62 32.68 3.69 C 32.59 3.71 32.43 3.97 32.37 3.98 C 32.26 3.99 32.3 3.81 31.96 3.97 C 31.77 4.07 31.43 3.82 31.31 4.24 C 31.19 4.69 31.39 4.55 31.52 4.85 C 31.66 5.18 31.53 5.22 31.67 5.4 C 31.8 5.59 31.82 5.45 32.1 5.67 C 32.4 5.91 32.74 5.39 32.73 5.18 C 32.73 4.86 33.15 5.01 33.13 5.27 C 33.12 5.41 33.26 5.42 33.43 5.43 C 33.61 5.43 33.92 5.28 33.62 5.08 C 33.12 4.75 32.75 4.72 32.82 4.36 C 32.84 4.26 33.17 4.3 33.31 4.38 C 33.79 4.64 34 4.5 34.13 4.34 C 34.3 4.14 34.45 4 34.16 3.84 C 33.99 3.75 33.72 3.6 33.32 3.59 Z M 25.61 8.64 C 25.58 8.64 25.54 8.65 25.5 8.66 C 25.27 8.74 24.97 8.77 24.81 8.74 C 24.68 8.72 24.6 8.99 24.39 9 C 24.19 9 24.42 8.7 24.08 8.75 C 23.92 8.78 23.74 9 23.76 9.16 C 23.86 9.76 24.11 9.66 24.43 9.82 C 24.9 10.05 25.02 9.96 25.23 9.74 C 25.43 9.54 26.28 9.33 25.98 8.94 C 25.94 8.9 25.84 8.63 25.61 8.64 Z M 24.61 13.21 C 24.38 13.22 24.57 13.36 24.35 13.42 C 24.19 13.47 24.33 13.61 24.29 13.74 C 24.22 13.94 24.06 13.98 24.08 14.25 C 24.1 14.56 24.4 14.52 24.55 14.42 C 24.69 14.33 24.91 14.17 24.93 13.98 C 24.95 13.77 24.7 13.69 24.85 13.52 C 24.98 13.37 24.87 13.21 24.61 13.21 Z M 34.81 15.99 C 34.84 15.99 34.88 15.99 34.92 16 C 35.24 16.05 34.89 16.46 34.75 16.55 C 34.51 16.71 34.54 16.76 34.65 16.84 C 34.89 17 34.95 17.2 35.15 17.37 C 35.29 17.49 35.76 17.6 35.58 17.89 C 35.49 18.05 35.25 18.18 34.94 18.15 C 34.62 18.11 34.42 17.88 33.94 17.85 C 33.55 17.82 33.31 18.07 32.99 18.05 C 32.47 18 32.51 17.62 32.62 17.27 C 32.73 16.92 32.98 16.38 33.27 16.35 C 33.6 16.32 33.59 16.65 33.63 16.79 C 33.69 16.97 33.81 17.07 33.98 17 C 34.2 16.9 34.33 16.77 34.11 16.65 C 33.9 16.54 34.01 16.29 34.21 16.25 C 34.45 16.2 34.55 16 34.81 15.99 Z M 16.58 16.91 C 16.46 16.91 16.38 17.16 16.29 17.27 C 16.13 17.51 15.71 17.56 15.77 17.79 C 15.81 17.95 15.87 17.95 16.18 17.96 C 16.42 17.97 16.57 18.13 16.67 18.2 C 16.92 18.36 16.93 18.54 17.14 18.38 C 17.27 18.29 17.2 18.03 17.03 17.81 C 16.81 17.51 16.98 17.5 16.84 17.37 C 16.61 17.15 16.82 17.11 16.66 16.95 C 16.63 16.92 16.6 16.91 16.58 16.91 Z M 33.93 22.01 C 34.1 22 34.32 22.25 34.53 22.72 C 34.82 23.41 35.15 23.48 35.06 23.88 C 34.91 24.56 35.31 24.52 35.52 24.79 C 35.69 25 35.63 25.3 35.84 25.54 C 35.93 25.64 36.23 26.29 35.93 26.52 C 35.71 26.69 35.56 26.15 35.37 26.01 C 34.81 25.56 35.21 25.32 34.84 24.98 C 34.69 24.84 34.58 24.74 34.67 24.6 C 34.75 24.45 34.68 23.98 34.43 23.79 C 34.19 23.6 34.37 23.55 34.25 23.25 C 34.18 23.07 34.03 22.99 33.96 22.67 C 33.9 22.4 33.8 22.4 33.77 22.23 C 33.75 22.11 33.82 22.06 33.87 22.03 C 33.89 22.02 33.91 22.01 33.93 22.01 Z M 8.62 24.08 C 8.54 24.07 8.47 24.11 8.42 24.22 C 8.25 24.62 9.19 24.6 9.35 25.02 C 9.47 25.33 9.6 25.61 9.92 25.46 C 10.16 25.36 10.05 25.19 9.71 24.92 C 9.54 24.79 9.51 24.59 9.29 24.53 C 9.21 24.51 9.32 24.39 9.15 24.31 C 8.94 24.22 8.76 24.09 8.62 24.08 Z M 36.97 34.07 C 36.9 34.07 36.84 34.15 36.81 34.32 C 36.79 34.44 36.7 34.41 36.58 34.57 C 36.52 34.65 36.49 34.75 36.4 34.84 C 36.31 34.93 36.15 35 36.05 35.05 C 35.69 35.22 35.61 35.63 35.74 35.89 C 35.86 36.13 35.69 36.17 35.53 36.59 C 35.33 37.12 35.53 37.7 35.91 37.78 C 36.33 37.86 36.65 36.56 36.72 36.13 C 36.77 35.79 36.84 35.92 36.93 35.45 C 37 35.11 37.21 34.91 37.22 34.64 C 37.22 34.28 37.09 34.07 36.97 34.07 Z" fill="#006600" stroke="none" pointer-events="all"/></g></g></svg>