<?xml version="1.0" encoding="UTF-8"?>
<!-- Do not edit this file with editors other than draw.io -->
<!DOCTYPE svg PUBLIC "-//W3C//DTD SVG 1.1//EN" "http://www.w3.org/Graphics/SVG/1.1/DTD/svg11.dtd">
<svg xmlns="http://www.w3.org/2000/svg" xmlns:xlink="http://www.w3.org/1999/xlink" version="1.1" width="56px" height="56px" viewBox="-0.5 -0.5 56 56" content="&lt;mxfile host=&quot;Electron&quot; modified=&quot;2024-05-27T21:17:06.192Z&quot; agent=&quot;Mozilla/5.0 (Windows NT 10.0; Win64; x64) AppleWebKit/537.36 (KHTML, like Gecko) draw.io/24.4.8 Chrome/124.0.6367.207 Electron/30.0.6 Safari/537.36&quot; version=&quot;24.4.8&quot; etag=&quot;tykKbPmP383CTX6BLVzB&quot; type=&quot;device&quot; scale=&quot;1&quot; border=&quot;0&quot;&gt;&#10;  &lt;diagram name=&quot;Page-1&quot; id=&quot;4jxpdnqtXgqqk79qn1MW&quot;&gt;&#10;    &lt;mxGraphModel dx=&quot;519&quot; dy=&quot;352&quot; grid=&quot;1&quot; gridSize=&quot;10&quot; guides=&quot;1&quot; tooltips=&quot;1&quot; connect=&quot;1&quot; arrows=&quot;1&quot; fold=&quot;1&quot; page=&quot;1&quot; pageScale=&quot;1&quot; pageWidth=&quot;827&quot; pageHeight=&quot;1169&quot; math=&quot;0&quot; shadow=&quot;0&quot;&gt;&#10;      &lt;root&gt;&#10;        &lt;mxCell id=&quot;0&quot; /&gt;&#10;        &lt;mxCell id=&quot;1&quot; parent=&quot;0&quot; /&gt;&#10;        &lt;mxCell id=&quot;2&quot; value=&quot;&quot; style=&quot;sketch=0;points=[[0.5,0,0],[1,0.5,0],[0.5,1,0],[0,0.5,0],[0.145,0.145,0],[0.8555,0.145,0],[0.855,0.8555,0],[0.145,0.855,0]];verticalLabelPosition=bottom;html=1;verticalAlign=top;aspect=fixed;align=center;pointerEvents=1;shape=mxgraph.cisco19.rect;prIcon=router;fillColor=#E8E8E8;strokeColor=#3C708A;&quot; vertex=&quot;1&quot; parent=&quot;1&quot;&gt;&#10;          &lt;mxGeometry x=&quot;319&quot; y=&quot;915&quot; width=&quot;55&quot; height=&quot;55&quot; as=&quot;geometry&quot; /&gt;&#10;        &lt;/mxCell&gt;&#10;      &lt;/root&gt;&#10;    &lt;/mxGraphModel&gt;&#10;  &lt;/diagram&gt;&#10;&lt;/mxfile&gt;&#10;"><defs/><g><g><ellipse cx="27.5" cy="27.5" rx="27.5" ry="27.5" fill="#e8e8e8" stroke="none" pointer-events="all"/><rect x="0" y="0" width="55" height="55" fill="none" stroke="none" pointer-events="all"/><path d="M 41.89 44.42 L 34.95 37.61 L 32.13 40.49 L 29.97 30.11 L 40.42 32.03 L 37.62 34.89 L 44.56 41.69 Z M 26.32 31.21 L 19.51 38.15 L 22.39 40.97 L 12.01 43.14 L 13.93 32.68 L 16.79 35.48 L 23.59 28.54 Z M 13.22 10.53 L 20.16 17.33 L 22.98 14.46 L 25.14 24.84 L 14.69 22.91 L 17.49 20.06 L 10.55 13.26 Z M 28.5 23.66 L 35.31 16.72 L 32.43 13.89 L 42.81 11.73 L 40.89 22.19 L 38.03 19.39 L 31.23 26.33 Z M 27.5 0 C 12.32 0 0 12.32 0 27.5 C 0 42.68 12.32 55 27.5 55 C 42.68 55 55 42.68 55 27.5 C 55 12.32 42.68 0 27.5 0 Z M 27.5 0.7 C 42.31 0.7 54.3 12.69 54.3 27.5 C 54.3 42.31 42.31 54.3 27.5 54.3 C 12.69 54.3 0.7 42.31 0.7 27.5 C 0.7 12.69 12.69 0.7 27.5 0.7 Z" fill="#3c708a" stroke="none" pointer-events="all"/></g></g></svg>