<?xml version="1.0" encoding="UTF-8"?>
<!-- Do not edit this file with editors other than draw.io -->
<!DOCTYPE svg PUBLIC "-//W3C//DTD SVG 1.1//EN" "http://www.w3.org/Graphics/SVG/1.1/DTD/svg11.dtd">
<svg xmlns="http://www.w3.org/2000/svg" xmlns:xlink="http://www.w3.org/1999/xlink" version="1.1" width="36px" height="56px" viewBox="-0.5 -0.5 36 56" content="&lt;mxfile host=&quot;Electron&quot; modified=&quot;2024-05-28T07:06:54.477Z&quot; agent=&quot;Mozilla/5.0 (Windows NT 10.0; Win64; x64) AppleWebKit/537.36 (KHTML, like Gecko) draw.io/24.4.8 Chrome/124.0.6367.207 Electron/30.0.6 Safari/537.36&quot; version=&quot;24.4.8&quot; etag=&quot;UXUzE7rEhjaYsBBHiFf6&quot; type=&quot;device&quot; scale=&quot;1&quot; border=&quot;0&quot;&gt;&#10;  &lt;diagram name=&quot;Page-1&quot; id=&quot;czIKREmdQjOS14ysgVqi&quot;&gt;&#10;    &lt;mxGraphModel dx=&quot;519&quot; dy=&quot;352&quot; grid=&quot;1&quot; gridSize=&quot;10&quot; guides=&quot;1&quot; tooltips=&quot;1&quot; connect=&quot;1&quot; arrows=&quot;1&quot; fold=&quot;1&quot; page=&quot;1&quot; pageScale=&quot;1&quot; pageWidth=&quot;827&quot; pageHeight=&quot;1169&quot; math=&quot;0&quot; shadow=&quot;0&quot;&gt;&#10;      &lt;root&gt;&#10;        &lt;mxCell id=&quot;0&quot; /&gt;&#10;        &lt;mxCell id=&quot;1&quot; parent=&quot;0&quot; /&gt;&#10;        &lt;mxCell id=&quot;2&quot; value=&quot;&quot; style=&quot;sketch=0;points=[[0.015,0.015,0],[0.985,0.015,0],[0.985,0.985,0],[0.015,0.985,0],[0.25,0,0],[0.5,0,0],[0.75,0,0],[1,0.25,0],[1,0.5,0],[1,0.75,0],[0.75,1,0],[0.5,1,0],[0.25,1,0],[0,0.75,0],[0,0.5,0],[0,0.25,0]];verticalLabelPosition=bottom;html=1;verticalAlign=top;align=center;pointerEvents=1;shape=mxgraph.cisco19.dns_server;fillColor=#3C708A;strokeColor=none;&quot; vertex=&quot;1&quot; parent=&quot;1&quot;&gt;&#10;          &lt;mxGeometry x=&quot;482&quot; y=&quot;655&quot; width=&quot;36&quot; height=&quot;56&quot; as=&quot;geometry&quot; /&gt;&#10;        &lt;/mxCell&gt;&#10;      &lt;/root&gt;&#10;    &lt;/mxGraphModel&gt;&#10;  &lt;/diagram&gt;&#10;&lt;/mxfile&gt;&#10;"><defs/><g><g><rect x="0" y="0" width="36" height="56" fill="none" stroke="none" pointer-events="all"/><path d="M 23.22 8.31 L 24.88 8.17 Q 25.03 8.9 25.48 9.24 Q 25.94 9.58 26.71 9.58 Q 27.53 9.58 27.94 9.28 Q 28.36 8.98 28.36 8.57 Q 28.36 8.3 28.18 8.12 Q 28.01 7.94 27.58 7.8 Q 27.28 7.71 26.22 7.48 Q 24.85 7.18 24.3 6.75 Q 23.53 6.14 23.53 5.27 Q 23.53 4.71 23.89 4.22 Q 24.26 3.72 24.94 3.47 Q 25.63 3.21 26.6 3.21 Q 28.18 3.21 28.98 3.82 Q 29.78 4.43 29.82 5.44 L 28.12 5.51 Q 28.01 4.94 27.65 4.7 Q 27.3 4.44 26.58 4.44 Q 25.84 4.44 25.42 4.71 Q 25.15 4.88 25.15 5.17 Q 25.15 5.43 25.4 5.62 Q 25.72 5.85 26.96 6.11 Q 28.2 6.37 28.79 6.64 Q 29.39 6.91 29.72 7.39 Q 30.06 7.86 30.06 8.56 Q 30.06 9.2 29.66 9.75 Q 29.26 10.3 28.52 10.57 Q 27.79 10.84 26.69 10.84 Q 25.1 10.84 24.24 10.2 Q 23.39 9.55 23.22 8.31 Z M 15.19 10.71 L 15.19 3.34 L 16.84 3.34 L 20.28 8.26 L 20.28 3.34 L 21.85 3.34 L 21.85 10.71 L 20.15 10.71 L 16.76 5.9 L 16.76 10.71 Z M 6.68 3.34 L 9.78 3.34 Q 10.83 3.34 11.38 3.48 Q 12.12 3.67 12.65 4.16 Q 13.17 4.64 13.45 5.35 Q 13.72 6.06 13.72 7.09 Q 13.72 8 13.46 8.66 Q 13.15 9.47 12.57 9.97 Q 12.12 10.34 11.37 10.55 Q 10.81 10.71 9.87 10.71 L 6.68 10.71 Z M 8.37 4.59 L 8.37 9.47 L 9.64 9.47 Q 10.35 9.47 10.67 9.4 Q 11.08 9.31 11.35 9.09 Q 11.62 8.87 11.8 8.38 Q 11.97 7.88 11.97 7.03 Q 11.97 6.17 11.8 5.72 Q 11.62 5.26 11.31 5 Q 11 4.75 10.53 4.66 Q 10.17 4.59 9.14 4.59 Z M 36 14.06 L 36 3.42 C 36 1.54 34.2 0 32.06 0 L 3.9 0 C 1.76 0 0 1.54 0 3.42 L 0 14.06 Z M 0 47.84 L 0 52.58 C 0 54.46 1.76 56 3.9 56 L 32.06 56 C 34.2 56 36 54.46 36 52.58 L 36 47.84 Z M 34.34 49.36 L 34.34 52.58 C 34.34 53.68 33.31 54.54 32.06 54.54 L 3.9 54.54 C 2.65 54.54 1.66 53.68 1.66 52.58 L 1.66 49.36 Z M 1.66 12.56 L 1.66 3.42 C 1.66 2.32 2.65 1.46 3.9 1.46 L 32.06 1.46 C 33.31 1.46 34.34 2.32 34.34 3.42 L 34.34 12.56 Z M 18.02 19.12 C 15.9 19.12 14.17 20.64 14.17 22.5 C 14.17 24.36 15.9 25.88 18.02 25.88 C 20.14 25.88 21.87 24.36 21.87 22.5 C 21.87 20.64 20.14 19.12 18.02 19.12 Z M 17.52 20.19 L 17.52 22.57 C 17.52 22.73 17.62 22.87 17.77 22.95 C 17.93 23.03 18.12 23.03 18.27 22.95 C 18.43 22.87 18.52 22.73 18.52 22.57 L 18.52 20.19 C 19.77 20.39 20.71 21.34 20.71 22.5 C 20.71 23.81 19.51 24.86 18.02 24.86 C 16.53 24.86 15.33 23.81 15.33 22.5 C 15.33 21.34 16.27 20.39 17.52 20.19 Z M 0 38.84 L 0 39.57 L 0 46.44 L 36 46.44 L 36 38.84 Z M 1.66 40.3 L 34.34 40.3 L 34.34 44.98 L 1.66 44.98 Z M 0 15.15 L 0 15.88 L 0 37.28 L 36 37.28 L 36 15.15 Z M 1.66 16.61 L 34.34 16.61 L 34.34 35.82 L 1.66 35.82 Z" fill="#3c708a" stroke="none" pointer-events="all"/></g></g></svg>