<?xml version="1.0" encoding="UTF-8"?>
<!-- Do not edit this file with editors other than draw.io -->
<!DOCTYPE svg PUBLIC "-//W3C//DTD SVG 1.1//EN" "http://www.w3.org/Graphics/SVG/1.1/DTD/svg11.dtd">
<svg xmlns="http://www.w3.org/2000/svg" xmlns:xlink="http://www.w3.org/1999/xlink" version="1.1" width="37px" height="57px" viewBox="-0.5 -0.5 37 57" content="&lt;mxfile host=&quot;Electron&quot; modified=&quot;2024-05-28T07:24:01.721Z&quot; agent=&quot;Mozilla/5.0 (Windows NT 10.0; Win64; x64) AppleWebKit/537.36 (KHTML, like Gecko) draw.io/24.4.8 Chrome/124.0.6367.207 Electron/30.0.6 Safari/537.36&quot; version=&quot;24.4.8&quot; etag=&quot;LIXuj0ria8hRrDaamIwE&quot; type=&quot;device&quot; scale=&quot;1&quot; border=&quot;0&quot;&gt;&#10;  &lt;diagram name=&quot;Page-1&quot; id=&quot;hlXtpmY8hIEp7F3kBDvX&quot;&gt;&#10;    &lt;mxGraphModel dx=&quot;519&quot; dy=&quot;352&quot; grid=&quot;1&quot; gridSize=&quot;10&quot; guides=&quot;1&quot; tooltips=&quot;1&quot; connect=&quot;1&quot; arrows=&quot;1&quot; fold=&quot;1&quot; page=&quot;1&quot; pageScale=&quot;1&quot; pageWidth=&quot;827&quot; pageHeight=&quot;1169&quot; math=&quot;0&quot; shadow=&quot;0&quot;&gt;&#10;      &lt;root&gt;&#10;        &lt;mxCell id=&quot;0&quot; /&gt;&#10;        &lt;mxCell id=&quot;1&quot; parent=&quot;0&quot; /&gt;&#10;        &lt;mxCell id=&quot;2&quot; value=&quot;&quot; style=&quot;group&quot; vertex=&quot;1&quot; connectable=&quot;0&quot; parent=&quot;1&quot;&gt;&#10;          &lt;mxGeometry x=&quot;640&quot; y=&quot;590&quot; width=&quot;36&quot; height=&quot;55.5&quot; as=&quot;geometry&quot; /&gt;&#10;        &lt;/mxCell&gt;&#10;        &lt;mxCell id=&quot;3&quot; value=&quot;&quot; style=&quot;sketch=0;points=[[0.015,0.015,0],[0.985,0.015,0],[0.985,0.985,0],[0.015,0.985,0],[0.25,0,0],[0.5,0,0],[0.75,0,0],[1,0.25,0],[1,0.5,0],[1,0.75,0],[0.75,1,0],[0.5,1,0],[0.25,1,0],[0,0.75,0],[0,0.5,0],[0,0.25,0]];verticalLabelPosition=bottom;html=1;verticalAlign=top;align=center;pointerEvents=1;shape=mxgraph.cisco19.server;fillColor=#3C708A;strokeColor=#3C708A;gradientColor=none;container=0;&quot; vertex=&quot;1&quot; parent=&quot;2&quot;&gt;&#10;          &lt;mxGeometry width=&quot;36&quot; height=&quot;55.5&quot; as=&quot;geometry&quot; /&gt;&#10;        &lt;/mxCell&gt;&#10;        &lt;mxCell id=&quot;4&quot; value=&quot;&quot; style=&quot;rounded=0;whiteSpace=wrap;html=1;strokeColor=none;container=0;&quot; vertex=&quot;1&quot; parent=&quot;2&quot;&gt;&#10;          &lt;mxGeometry x=&quot;4&quot; y=&quot;18&quot; width=&quot;28&quot; height=&quot;14&quot; as=&quot;geometry&quot; /&gt;&#10;        &lt;/mxCell&gt;&#10;        &lt;mxCell id=&quot;5&quot; value=&quot;&quot; style=&quot;sketch=0;pointerEvents=1;shadow=0;dashed=0;html=1;strokeColor=none;fillColor=#3C708A;aspect=fixed;labelPosition=center;verticalLabelPosition=bottom;verticalAlign=top;align=center;outlineConnect=0;shape=mxgraph.vvd.security;&quot; vertex=&quot;1&quot; parent=&quot;2&quot;&gt;&#10;          &lt;mxGeometry x=&quot;11.419999999999959&quot; y=&quot;18.269999999999982&quot; width=&quot;12.32&quot; height=&quot;16&quot; as=&quot;geometry&quot; /&gt;&#10;        &lt;/mxCell&gt;&#10;      &lt;/root&gt;&#10;    &lt;/mxGraphModel&gt;&#10;  &lt;/diagram&gt;&#10;&lt;/mxfile&gt;&#10;"><defs/><g><g/><g><rect x="0" y="0" width="36" height="55.5" fill="none" stroke="none" pointer-events="all"/><path d="M 18.02 18.95 C 15.9 18.95 14.17 20.46 14.17 22.3 C 14.17 24.14 15.9 25.65 18.02 25.65 C 20.14 25.65 21.87 24.14 21.87 22.3 C 21.87 20.46 20.14 18.95 18.02 18.95 Z M 17.52 20.01 L 17.52 22.37 C 17.52 22.61 17.74 22.81 18.02 22.81 C 18.3 22.81 18.52 22.61 18.52 22.37 L 18.52 20.01 C 19.77 20.21 20.71 21.15 20.71 22.3 C 20.71 23.6 19.51 24.64 18.02 24.64 C 16.53 24.64 15.33 23.6 15.33 22.3 C 15.33 21.15 16.27 20.21 17.52 20.01 Z M 0 38.49 L 0 39.21 L 0 46.02 L 36 46.02 L 36 38.49 Z M 1.66 39.94 L 34.34 39.94 L 34.34 44.58 L 1.66 44.58 Z M 0 15.02 L 0 15.74 L 0 36.95 L 36 36.95 L 36 15.02 Z M 1.66 16.46 L 34.34 16.46 L 34.34 35.5 L 1.66 35.5 Z M 36 13.93 L 36 3.39 C 36 1.52 34.2 0 32.05 0 L 3.9 0 C 1.76 0 0 1.52 0 3.39 L 0 13.93 Z M 0 47.41 L 0 52.11 C 0 53.98 1.76 55.5 3.9 55.5 L 32.05 55.5 C 34.2 55.5 36 53.98 36 52.11 L 36 47.41 Z M 34.34 48.92 L 34.34 52.11 C 34.34 53.2 33.31 54.05 32.05 54.05 L 3.9 54.05 C 2.65 54.05 1.66 53.2 1.66 52.11 L 1.66 48.92 Z M 1.66 12.44 L 1.66 3.39 C 1.66 2.3 2.65 1.45 3.9 1.45 L 32.05 1.45 C 33.31 1.45 34.34 2.3 34.34 3.39 L 34.34 12.44 Z" fill="#3c708a" stroke="none" pointer-events="all"/></g><g><rect x="4" y="18" width="28" height="14" fill="rgb(255, 255, 255)" stroke="none" pointer-events="all"/></g><g><rect x="11.42" y="18.27" width="12.32" height="16" fill="none" stroke="none" pointer-events="all"/><path d="M 17.57 18.27 C 16.3 18.27 15.3 18.82 14.64 19.58 C 13.98 20.33 13.65 21.28 13.65 22.14 L 13.65 22.14 L 13.66 25.19 L 12.58 25.19 C 11.94 25.19 11.42 25.71 11.42 26.35 L 11.42 33.11 C 11.42 33.75 11.94 34.27 12.58 34.27 L 22.58 34.27 C 23.22 34.27 23.74 33.75 23.74 33.11 L 23.74 26.35 C 23.74 25.71 23.22 25.19 22.58 25.19 L 21.51 25.19 L 21.47 22.15 C 21.47 20.06 19.82 18.27 17.57 18.27 Z M 17.57 18.85 C 19.51 18.85 20.9 20.36 20.9 22.15 L 20.9 22.15 L 20.93 24.97 L 20.19 24.97 L 20.2 22.12 L 20.2 22.12 C 20.2 21.45 20.04 20.81 19.61 20.32 C 19.19 19.84 18.52 19.55 17.63 19.55 C 16.7 19.55 16.01 19.79 15.56 20.27 C 15.11 20.74 14.93 21.41 14.93 22.18 L 14.93 22.18 L 14.96 24.97 L 14.23 24.97 L 14.22 22.14 C 14.22 21.44 14.51 20.6 15.07 19.96 C 15.64 19.31 16.46 18.85 17.57 18.85 Z M 17.63 20.13 C 18.41 20.13 18.88 20.36 19.18 20.7 C 19.48 21.05 19.62 21.54 19.62 22.12 L 19.61 25.19 L 15.53 25.19 L 15.51 22.18 L 15.51 22.18 C 15.51 21.5 15.66 21 15.98 20.67 C 16.29 20.33 16.8 20.13 17.63 20.13 Z M 12.58 25.76 L 22.58 25.76 C 22.91 25.76 23.17 26.02 23.17 26.35 L 23.17 33.11 C 23.17 33.44 22.91 33.69 22.58 33.69 L 12.58 33.69 C 12.25 33.69 11.99 33.44 11.99 33.11 L 11.99 26.35 C 11.99 26.02 12.25 25.76 12.58 25.76 Z M 17.59 27.25 C 16.84 27.25 16.34 27.87 16.34 28.48 C 16.34 28.95 16.54 29.34 16.98 29.62 L 16.3 32.07 C 16.2 32.35 16.42 32.62 16.69 32.62 L 18.36 32.62 C 18.76 32.62 18.89 32.32 18.79 32.03 L 18.15 29.6 C 18.52 29.4 18.83 29.1 18.83 28.5 C 18.83 27.72 18.16 27.25 17.59 27.25 Z" fill="#3c708a" stroke="none" pointer-events="all"/></g></g></svg>