<?xml version="1.0" encoding="UTF-8"?>
<!-- Do not edit this file with editors other than draw.io -->
<!DOCTYPE svg PUBLIC "-//W3C//DTD SVG 1.1//EN" "http://www.w3.org/Graphics/SVG/1.1/DTD/svg11.dtd">
<svg xmlns="http://www.w3.org/2000/svg" xmlns:xlink="http://www.w3.org/1999/xlink" version="1.1" width="53px" height="53px" viewBox="-0.5 -0.5 53 53" content="&lt;mxfile host=&quot;Electron&quot; modified=&quot;2024-05-27T22:22:10.696Z&quot; agent=&quot;Mozilla/5.0 (Windows NT 10.0; Win64; x64) AppleWebKit/537.36 (KHTML, like Gecko) draw.io/24.4.8 Chrome/124.0.6367.207 Electron/30.0.6 Safari/537.36&quot; version=&quot;24.4.8&quot; etag=&quot;3LgtEmLuy5G2GhF2U3VF&quot; type=&quot;device&quot; scale=&quot;1&quot; border=&quot;0&quot;&gt;&#10;  &lt;diagram name=&quot;Page-1&quot; id=&quot;RmzdisIV6zOR7ckYzMZI&quot;&gt;&#10;    &lt;mxGraphModel dx=&quot;519&quot; dy=&quot;352&quot; grid=&quot;1&quot; gridSize=&quot;10&quot; guides=&quot;1&quot; tooltips=&quot;1&quot; connect=&quot;1&quot; arrows=&quot;1&quot; fold=&quot;1&quot; page=&quot;1&quot; pageScale=&quot;1&quot; pageWidth=&quot;827&quot; pageHeight=&quot;1169&quot; math=&quot;0&quot; shadow=&quot;0&quot;&gt;&#10;      &lt;root&gt;&#10;        &lt;mxCell id=&quot;0&quot; /&gt;&#10;        &lt;mxCell id=&quot;1&quot; parent=&quot;0&quot; /&gt;&#10;        &lt;mxCell id=&quot;2&quot; value=&quot;&quot; style=&quot;sketch=0;points=[[0.015,0.015,0],[0.985,0.015,0],[0.985,0.985,0],[0.015,0.985,0],[0.25,0,0],[0.5,0,0],[0.75,0,0],[1,0.25,0],[1,0.5,0],[1,0.75,0],[0.75,1,0],[0.5,1,0],[0.25,1,0],[0,0.75,0],[0,0.5,0],[0,0.25,0]];verticalLabelPosition=bottom;html=1;verticalAlign=top;aspect=fixed;align=center;pointerEvents=1;shape=mxgraph.cisco19.rect;prIcon=l3_switch;fillColor=#FFFFFF;strokeColor=#3C708A;gradientColor=none;&quot; vertex=&quot;1&quot; parent=&quot;1&quot;&gt;&#10;          &lt;mxGeometry x=&quot;369&quot; y=&quot;20.72&quot; width=&quot;52&quot; height=&quot;52&quot; as=&quot;geometry&quot; /&gt;&#10;        &lt;/mxCell&gt;&#10;      &lt;/root&gt;&#10;    &lt;/mxGraphModel&gt;&#10;  &lt;/diagram&gt;&#10;&lt;/mxfile&gt;&#10;"><defs/><g><g><rect x="0" y="-0.28" width="52" height="52" fill="none" stroke="none" pointer-events="all"/><path d="M 3.19 -0.28 C 1.43 -0.28 0 1.15 0 2.9 L 0 48.54 C 0 50.29 1.43 51.72 3.19 51.72 L 48.81 51.72 C 50.57 51.72 52 50.29 52 48.54 L 52 2.9 C 52 1.15 50.57 -0.28 48.81 -0.28 Z" fill="#ffffff" stroke="none" pointer-events="all"/><rect x="0" y="-0.28" width="52" height="52" fill="none" stroke="none" pointer-events="all"/><path d="M 26.03 4.5 L 21.67 10.74 L 24.57 10.74 L 24.57 17.36 C 23.29 17.58 22.09 18.08 21.04 18.83 L 16.32 14.16 L 18.36 12.12 L 10.88 10.76 L 12.26 18.23 L 14.3 16.19 L 19.02 20.86 C 18.3 21.89 17.82 23.06 17.61 24.29 L 10.95 24.29 L 10.95 21.41 L 4.68 25.69 L 10.95 30.03 L 10.95 27.15 L 17.6 27.15 C 17.81 28.39 18.31 29.57 19.04 30.6 L 14.33 35.29 L 12.28 33.26 L 10.93 40.73 L 18.41 39.34 L 16.36 37.31 L 21.06 32.63 C 22.11 33.37 23.3 33.86 24.57 34.07 L 24.57 40.7 L 21.67 40.7 L 26.03 46.94 L 30.33 40.7 L 27.44 40.7 L 27.44 34.08 C 28.69 33.87 29.88 33.37 30.92 32.64 L 35.64 37.31 L 33.6 39.36 L 41.12 40.68 L 39.71 33.25 L 37.67 35.29 L 32.95 30.62 C 33.69 29.58 34.18 28.4 34.39 27.15 L 41.05 27.15 L 41.05 30.03 L 47.32 25.69 L 41.05 21.41 L 41.05 24.29 L 34.4 24.29 C 34.18 23.03 33.68 21.84 32.93 20.8 L 37.63 16.11 L 39.68 18.14 L 41.07 10.7 L 33.56 12.06 L 35.6 14.09 L 30.9 18.78 C 29.86 18.06 28.68 17.58 27.44 17.37 L 27.44 10.74 L 30.33 10.74 Z M 3.19 -0.28 C 1.43 -0.28 0 1.15 0 2.89 L 0 48.54 C 0 50.29 1.43 51.72 3.19 51.72 L 48.81 51.72 C 50.57 51.72 52 50.29 52 48.54 L 52 2.89 C 52 1.15 50.57 -0.28 48.81 -0.28 Z M 3.19 1.15 L 48.81 1.15 C 49.79 1.15 50.56 1.92 50.56 2.89 L 50.56 48.54 C 50.56 49.52 49.79 50.29 48.81 50.29 L 3.19 50.29 C 2.21 50.29 1.44 49.52 1.44 48.54 L 1.44 2.89 C 1.44 1.92 2.21 1.15 3.19 1.15 Z" fill="#3c708a" stroke="none" pointer-events="all"/></g></g></svg>