<?xml version="1.0" encoding="UTF-8"?>
<!-- Do not edit this file with editors other than draw.io -->
<!DOCTYPE svg PUBLIC "-//W3C//DTD SVG 1.1//EN" "http://www.w3.org/Graphics/SVG/1.1/DTD/svg11.dtd">
<svg xmlns="http://www.w3.org/2000/svg" xmlns:xlink="http://www.w3.org/1999/xlink" version="1.1" width="72px" height="37px" viewBox="-0.5 -0.5 72 37" content="&lt;mxfile host=&quot;app.diagrams.net&quot; modified=&quot;2024-05-26T09:01:13.782Z&quot; agent=&quot;Mozilla/5.0 (Windows NT 10.0; Win64; x64; rv:126.0) Gecko/20100101 Firefox/126.0&quot; version=&quot;24.4.8&quot; etag=&quot;0Pk70GTMAPDlCHG_FzNO&quot; type=&quot;onedrive&quot; scale=&quot;1&quot; border=&quot;0&quot;&gt;&#xA;  &lt;diagram name=&quot;Page-1&quot; id=&quot;6xT7YyXJzg3utiZBhu8u&quot;&gt;&#xA;    &lt;mxGraphModel dx=&quot;525&quot; dy=&quot;290&quot; grid=&quot;1&quot; gridSize=&quot;10&quot; guides=&quot;1&quot; tooltips=&quot;1&quot; connect=&quot;1&quot; arrows=&quot;1&quot; fold=&quot;1&quot; page=&quot;1&quot; pageScale=&quot;1&quot; pageWidth=&quot;827&quot; pageHeight=&quot;1169&quot; math=&quot;0&quot; shadow=&quot;0&quot;&gt;&#xA;      &lt;root&gt;&#xA;        &lt;mxCell id=&quot;0&quot; /&gt;&#xA;        &lt;mxCell id=&quot;1&quot; parent=&quot;0&quot; /&gt;&#xA;        &lt;mxCell id=&quot;2&quot; value=&quot;&quot; style=&quot;shape=mxgraph.cisco.switches.workgroup_switch;sketch=0;html=1;pointerEvents=1;dashed=0;fillColor=#3C708A;strokeColor=#4B8CAD;strokeWidth=2;verticalLabelPosition=bottom;verticalAlign=top;align=center;outlineConnect=0;aspect=fixed;&quot; vertex=&quot;1&quot; parent=&quot;1&quot;&gt;&#xA;          &lt;mxGeometry x=&quot;369.5&quot; y=&quot;446.44000000000005&quot; width=&quot;70&quot; height=&quot;34.66&quot; as=&quot;geometry&quot; /&gt;&#xA;        &lt;/mxCell&gt;&#xA;      &lt;/root&gt;&#xA;    &lt;/mxGraphModel&gt;&#xA;  &lt;/diagram&gt;&#xA;&lt;/mxfile&gt;&#xA;"><defs/><g><g><rect x="0.5" y="0.44" width="70" height="34.66" fill="none" stroke="none" pointer-events="all"/><path d="M 53.27 35.1 L 53.27 17.58 L 0.5 17.58 L 0.5 35.1 Z M 0.5 17.58 L 21.75 0.44 L 70.5 0.44 L 52.91 17.58 Z M 53.27 35.1 L 70.5 16.13 L 70.5 0.44 L 53.27 17.58 Z" fill="#3c708a" stroke="#4b8cad" stroke-width="2" stroke-linejoin="round" stroke-miterlimit="10" pointer-events="all"/><rect x="0.5" y="0.44" width="0" height="0" fill="none" stroke="#4b8cad" stroke-width="2" pointer-events="all"/><path d="M 31.28 13.2 L 30.18 13.94 L 17.35 13.94 L 15.89 15.39 L 12.23 13.94 L 19.55 11.75 L 18.09 13.2 Z M 41.54 6.64 L 40.44 7.73 L 27.62 7.73 L 26.15 8.83 L 22.49 7.37 L 29.82 5.54 L 28.35 6.64 Z M 33.48 11.02 L 34.58 10.29 L 47.78 10.29 L 48.87 8.83 L 52.54 10.29 L 45.58 12.48 L 46.68 11.02 Z M 40.44 4.45 L 41.54 3.72 L 54.37 3.72 L 55.83 2.26 L 59.51 4.09 L 52.17 5.91 L 53.63 4.45 Z" fill="#ffffff" stroke="none" pointer-events="all"/></g></g></svg>