<?xml version="1.0" encoding="UTF-8"?>
<!-- Do not edit this file with editors other than draw.io -->
<!DOCTYPE svg PUBLIC "-//W3C//DTD SVG 1.1//EN" "http://www.w3.org/Graphics/SVG/1.1/DTD/svg11.dtd">
<svg xmlns="http://www.w3.org/2000/svg" xmlns:xlink="http://www.w3.org/1999/xlink" version="1.1" width="37px" height="57px" viewBox="-0.5 -0.5 37 57" content="&lt;mxfile host=&quot;Electron&quot; modified=&quot;2024-05-28T07:04:09.108Z&quot; agent=&quot;Mozilla/5.0 (Windows NT 10.0; Win64; x64) AppleWebKit/537.36 (KHTML, like Gecko) draw.io/24.4.8 Chrome/124.0.6367.207 Electron/30.0.6 Safari/537.36&quot; version=&quot;24.4.8&quot; etag=&quot;cmPUXTa6IzN8s9TE-oh-&quot; type=&quot;device&quot; scale=&quot;1&quot; border=&quot;0&quot;&gt;&#10;  &lt;diagram name=&quot;Page-1&quot; id=&quot;-z-B76YGKDfAz8WF6vYW&quot;&gt;&#10;    &lt;mxGraphModel dx=&quot;519&quot; dy=&quot;352&quot; grid=&quot;1&quot; gridSize=&quot;10&quot; guides=&quot;1&quot; tooltips=&quot;1&quot; connect=&quot;1&quot; arrows=&quot;1&quot; fold=&quot;1&quot; page=&quot;1&quot; pageScale=&quot;1&quot; pageWidth=&quot;827&quot; pageHeight=&quot;1169&quot; math=&quot;0&quot; shadow=&quot;0&quot;&gt;&#10;      &lt;root&gt;&#10;        &lt;mxCell id=&quot;0&quot; /&gt;&#10;        &lt;mxCell id=&quot;1&quot; parent=&quot;0&quot; /&gt;&#10;        &lt;mxCell id=&quot;2&quot; value=&quot;&quot; style=&quot;sketch=0;points=[[0.015,0.015,0],[0.985,0.015,0],[0.985,0.985,0],[0.015,0.985,0],[0.25,0,0],[0.5,0,0],[0.75,0,0],[1,0.25,0],[1,0.5,0],[1,0.75,0],[0.75,1,0],[0.5,1,0],[0.25,1,0],[0,0.75,0],[0,0.5,0],[0,0.25,0]];verticalLabelPosition=bottom;html=1;verticalAlign=top;align=center;pointerEvents=1;shape=mxgraph.cisco19.server;fillColor=#3C708A;strokeColor=#3C708A;gradientColor=none;container=0;&quot; vertex=&quot;1&quot; parent=&quot;1&quot;&gt;&#10;          &lt;mxGeometry x=&quot;640&quot; y=&quot;590&quot; width=&quot;36&quot; height=&quot;55.5&quot; as=&quot;geometry&quot; /&gt;&#10;        &lt;/mxCell&gt;&#10;      &lt;/root&gt;&#10;    &lt;/mxGraphModel&gt;&#10;  &lt;/diagram&gt;&#10;&lt;/mxfile&gt;&#10;"><defs/><g><g><rect x="0" y="0" width="36" height="55.5" fill="none" stroke="none" pointer-events="all"/><path d="M 18.02 18.95 C 15.9 18.95 14.17 20.46 14.17 22.3 C 14.17 24.14 15.9 25.65 18.02 25.65 C 20.14 25.65 21.87 24.14 21.87 22.3 C 21.87 20.46 20.14 18.95 18.02 18.95 Z M 17.52 20.01 L 17.52 22.37 C 17.52 22.61 17.74 22.81 18.02 22.81 C 18.3 22.81 18.52 22.61 18.52 22.37 L 18.52 20.01 C 19.77 20.21 20.71 21.15 20.71 22.3 C 20.71 23.6 19.51 24.64 18.02 24.64 C 16.53 24.64 15.33 23.6 15.33 22.3 C 15.33 21.15 16.27 20.21 17.52 20.01 Z M 0 38.49 L 0 39.21 L 0 46.02 L 36 46.02 L 36 38.49 Z M 1.66 39.94 L 34.34 39.94 L 34.34 44.58 L 1.66 44.58 Z M 0 15.02 L 0 15.74 L 0 36.95 L 36 36.95 L 36 15.02 Z M 1.66 16.46 L 34.34 16.46 L 34.34 35.5 L 1.66 35.5 Z M 36 13.93 L 36 3.39 C 36 1.52 34.2 0 32.05 0 L 3.9 0 C 1.76 0 0 1.52 0 3.39 L 0 13.93 Z M 0 47.41 L 0 52.11 C 0 53.98 1.76 55.5 3.9 55.5 L 32.05 55.5 C 34.2 55.5 36 53.98 36 52.11 L 36 47.41 Z M 34.34 48.92 L 34.34 52.11 C 34.34 53.2 33.31 54.05 32.05 54.05 L 3.9 54.05 C 2.65 54.05 1.66 53.2 1.66 52.11 L 1.66 48.92 Z M 1.66 12.44 L 1.66 3.39 C 1.66 2.3 2.65 1.45 3.9 1.45 L 32.05 1.45 C 33.31 1.45 34.34 2.3 34.34 3.39 L 34.34 12.44 Z" fill="#3c708a" stroke="none" pointer-events="all"/></g></g></svg>