<?xml version="1.0" encoding="UTF-8"?>
<!-- Do not edit this file with editors other than draw.io -->
<!DOCTYPE svg PUBLIC "-//W3C//DTD SVG 1.1//EN" "http://www.w3.org/Graphics/SVG/1.1/DTD/svg11.dtd">
<svg xmlns="http://www.w3.org/2000/svg" xmlns:xlink="http://www.w3.org/1999/xlink" version="1.1" width="46px" height="67px" viewBox="-0.5 -0.5 46 67" content="&lt;mxfile host=&quot;Electron&quot; modified=&quot;2024-05-27T21:50:07.450Z&quot; agent=&quot;Mozilla/5.0 (Windows NT 10.0; Win64; x64) AppleWebKit/537.36 (KHTML, like Gecko) draw.io/24.4.8 Chrome/124.0.6367.207 Electron/30.0.6 Safari/537.36&quot; version=&quot;24.4.8&quot; etag=&quot;2x3w9WfU1j1sd9tJr0wi&quot; type=&quot;device&quot; scale=&quot;1&quot; border=&quot;0&quot;&gt;&#10;  &lt;diagram name=&quot;Page-1&quot; id=&quot;dZTtu8sx1CypFKWgkaf6&quot;&gt;&#10;    &lt;mxGraphModel dx=&quot;1038&quot; dy=&quot;704&quot; grid=&quot;1&quot; gridSize=&quot;10&quot; guides=&quot;1&quot; tooltips=&quot;1&quot; connect=&quot;1&quot; arrows=&quot;1&quot; fold=&quot;1&quot; page=&quot;1&quot; pageScale=&quot;1&quot; pageWidth=&quot;827&quot; pageHeight=&quot;1169&quot; math=&quot;0&quot; shadow=&quot;0&quot;&gt;&#10;      &lt;root&gt;&#10;        &lt;mxCell id=&quot;0&quot; /&gt;&#10;        &lt;mxCell id=&quot;1&quot; parent=&quot;0&quot; /&gt;&#10;        &lt;mxCell id=&quot;2&quot; value=&quot;&quot; style=&quot;sketch=0;points=[[0.015,0.015,0],[0.985,0.015,0],[0.985,0.985,0],[0.015,0.985,0],[0.25,0,0],[0.5,0,0],[0.75,0,0],[1,0.25,0],[1,0.5,0],[1,0.75,0],[0.75,1,0],[0.5,1,0],[0.25,1,0],[0,0.75,0],[0,0.5,0],[0,0.25,0]];verticalLabelPosition=bottom;html=1;verticalAlign=top;aspect=fixed;align=center;pointerEvents=1;shape=mxgraph.cisco19.rect;prIcon=l3_modular;fillColor=#FAFAFA;strokeColor=#005073;&quot; vertex=&quot;1&quot; parent=&quot;1&quot;&gt;&#10;          &lt;mxGeometry x=&quot;101.5&quot; y=&quot;17.480000000000018&quot; width=&quot;45&quot; height=&quot;65.7&quot; as=&quot;geometry&quot; /&gt;&#10;        &lt;/mxCell&gt;&#10;      &lt;/root&gt;&#10;    &lt;/mxGraphModel&gt;&#10;  &lt;/diagram&gt;&#10;&lt;/mxfile&gt;&#10;"><defs/><g><g><rect x="0.5" y="0.48" width="45" height="65.7" fill="none" stroke="none" pointer-events="all"/><path d="M 3.26 21.04 C 1.74 21.04 0.5 22.27 0.5 23.79 L 0.5 63.43 C 0.5 64.94 1.74 66.18 3.26 66.18 L 42.74 66.18 C 44.26 66.18 45.5 64.94 45.5 63.43 L 45.5 23.79 C 45.5 22.27 44.26 21.04 42.74 21.04 Z M 3.26 0.48 C 1.74 0.48 0.5 1.72 0.5 3.24 L 0.5 16.46 C 0.5 17.97 1.74 19.21 3.26 19.21 L 42.74 19.21 C 44.26 19.21 45.5 17.97 45.5 16.46 L 45.5 3.24 C 45.5 1.72 44.26 0.48 42.74 0.48 Z" fill="#fafafa" stroke="none" pointer-events="all"/><rect x="0.5" y="0.48" width="45" height="65.7" fill="none" stroke="none" pointer-events="all"/><path d="M 23.17 25.55 L 19.4 30.96 L 21.91 30.96 L 21.91 36.71 C 20.8 36.9 19.76 37.34 18.85 37.99 L 14.77 33.93 L 16.53 32.16 L 10.06 30.98 L 11.25 37.46 L 13.02 35.69 L 17.1 39.75 C 16.48 40.64 16.06 41.66 15.88 42.73 L 10.12 42.73 L 10.12 40.23 L 4.69 43.95 L 10.12 47.7 L 10.12 45.21 L 15.87 45.21 C 16.06 46.29 16.49 47.31 17.12 48.2 L 13.05 52.28 L 11.27 50.51 L 10.11 57 L 16.57 55.8 L 14.8 54.03 L 18.87 49.97 C 19.77 50.61 20.81 51.04 21.91 51.22 L 21.91 56.97 L 19.4 56.97 L 23.17 62.39 L 26.89 56.97 L 24.39 56.97 L 24.39 51.23 C 25.47 51.04 26.5 50.61 27.4 49.97 L 31.49 54.03 L 29.73 55.8 L 36.23 56.96 L 35.01 50.5 L 33.24 52.27 L 29.16 48.22 C 29.8 47.32 30.22 46.29 30.41 45.21 L 36.17 45.21 L 36.17 47.7 L 41.6 43.95 L 36.17 40.23 L 36.17 42.73 L 30.42 42.73 C 30.23 41.63 29.79 40.6 29.14 39.7 L 33.21 35.63 L 34.98 37.39 L 36.18 30.93 L 29.69 32.11 L 31.46 33.87 L 27.38 37.94 C 26.49 37.32 25.47 36.9 24.39 36.72 L 24.39 30.96 L 26.89 30.96 Z M 23.22 10.3 L 30.43 13.12 L 30.43 13.64 L 15.86 13.64 L 15.86 13.17 Z M 15.86 6.04 L 30.43 6.04 L 30.43 6.73 L 23.22 9.54 L 15.86 6.67 Z M 9.16 4.03 L 9.16 7.35 L 15.65 7.35 L 22.25 9.92 L 15.86 12.41 L 15.86 12.36 L 9.16 12.36 L 9.16 15.67 L 15.86 15.67 L 15.86 14.34 L 30.43 14.34 L 30.43 15.67 L 37.13 15.67 L 37.13 12.36 L 30.43 12.36 L 30.43 12.36 L 24.19 9.92 L 30.79 7.35 L 37.13 7.35 L 37.13 4.03 L 30.43 4.03 L 30.43 5.34 L 15.86 5.34 L 15.86 4.03 Z M 3.26 0.48 C 1.74 0.48 0.5 1.72 0.5 3.24 L 0.5 16.46 C 0.5 17.97 1.74 19.21 3.26 19.21 L 42.74 19.21 C 44.26 19.21 45.5 17.97 45.5 16.46 L 45.5 3.24 C 45.5 1.72 44.26 0.48 42.74 0.48 Z M 3.26 1.72 L 42.74 1.72 C 43.59 1.72 44.25 2.39 44.25 3.24 L 44.25 16.46 C 44.25 17.31 43.59 17.97 42.74 17.97 L 3.26 17.97 C 2.41 17.97 1.75 17.31 1.75 16.46 L 1.75 3.24 C 1.75 2.39 2.41 1.72 3.26 1.72 Z M 3.26 21.04 C 1.74 21.04 0.5 22.27 0.5 23.79 L 0.5 63.43 C 0.5 64.94 1.74 66.18 3.26 66.18 L 42.74 66.18 C 44.26 66.18 45.5 64.94 45.5 63.43 L 45.5 23.79 C 45.5 22.27 44.26 21.04 42.74 21.04 Z M 3.26 22.28 L 42.74 22.28 C 43.59 22.28 44.25 22.94 44.25 23.79 L 44.25 63.43 C 44.25 64.27 43.59 64.94 42.74 64.94 L 3.26 64.94 C 2.41 64.94 1.75 64.27 1.75 63.43 L 1.75 23.79 C 1.75 22.94 2.41 22.28 3.26 22.28 Z" fill="#005073" stroke="none" pointer-events="all"/></g></g></svg>