<?xml version="1.0" encoding="UTF-8"?>
<!-- Do not edit this file with editors other than draw.io -->
<!DOCTYPE svg PUBLIC "-//W3C//DTD SVG 1.1//EN" "http://www.w3.org/Graphics/SVG/1.1/DTD/svg11.dtd">
<svg xmlns="http://www.w3.org/2000/svg" xmlns:xlink="http://www.w3.org/1999/xlink" version="1.1" width="57px" height="57px" viewBox="-0.5 -0.5 57 57" content="&lt;mxfile host=&quot;app.diagrams.net&quot; modified=&quot;2024-05-26T09:00:48.356Z&quot; agent=&quot;Mozilla/5.0 (Windows NT 10.0; Win64; x64; rv:126.0) Gecko/20100101 Firefox/126.0&quot; version=&quot;24.4.8&quot; etag=&quot;mw1d5oqgA_EnuzbYLnga&quot; type=&quot;onedrive&quot; scale=&quot;1&quot; border=&quot;0&quot;&gt;&#xA;  &lt;diagram name=&quot;Page-1&quot; id=&quot;3xOdRHu5pJsEIpLKYZ1V&quot;&gt;&#xA;    &lt;mxGraphModel dx=&quot;525&quot; dy=&quot;290&quot; grid=&quot;1&quot; gridSize=&quot;10&quot; guides=&quot;1&quot; tooltips=&quot;1&quot; connect=&quot;1&quot; arrows=&quot;1&quot; fold=&quot;1&quot; page=&quot;1&quot; pageScale=&quot;1&quot; pageWidth=&quot;827&quot; pageHeight=&quot;1169&quot; math=&quot;0&quot; shadow=&quot;0&quot;&gt;&#xA;      &lt;root&gt;&#xA;        &lt;mxCell id=&quot;0&quot; /&gt;&#xA;        &lt;mxCell id=&quot;1&quot; parent=&quot;0&quot; /&gt;&#xA;        &lt;mxCell id=&quot;2&quot; value=&quot;&quot; style=&quot;shape=mxgraph.cisco.switches.layer_3_switch;sketch=0;html=1;pointerEvents=1;dashed=0;fillColor=#3c708a;strokeColor=#4B8CAD;strokeWidth=2;verticalLabelPosition=bottom;verticalAlign=top;align=center;outlineConnect=0;points=[[0,0.5,0,0,0],[0,0.76,0,0,0],[0,1,0,0,0],[0.08,0.05,0,0,0],[0.27,1,0,0,0],[0.5,0,0,0,0],[0.5,1,0,0,0],[0.76,0,0,0,0],[0.95,0.94,0,0,0],[1,0,0,0,0],[1,0.27,0,0,0],[1,0.5,0,0,0]];gradientColor=none;&quot; vertex=&quot;1&quot; parent=&quot;1&quot;&gt;&#xA;          &lt;mxGeometry x=&quot;165&quot; y=&quot;433&quot; width=&quot;55&quot; height=&quot;55&quot; as=&quot;geometry&quot; /&gt;&#xA;        &lt;/mxCell&gt;&#xA;      &lt;/root&gt;&#xA;    &lt;/mxGraphModel&gt;&#xA;  &lt;/diagram&gt;&#xA;&lt;/mxfile&gt;&#xA;"><defs/><g><g><rect x="1" y="1" width="55" height="55" fill="none" stroke="none" pointer-events="all"/><path d="M 1 56 L 1 7.42 L 49.64 7.42 L 49.64 56 Z M 56 50.05 L 56 1 L 49.64 7.42 L 49.64 56 Z M 9.63 1 L 1 7.42 L 49.64 7.42 L 56 1 Z" fill="#3c708a" stroke="#4b8cad" stroke-width="2" stroke-linejoin="round" stroke-miterlimit="10" pointer-events="all"/><path d="M 26.46 24.38 L 26.46 13.84 L 28.27 13.84 L 25.55 10.17 L 23.27 13.84 L 24.63 13.84 L 24.63 24.38 Z M 21.01 26.22 L 13.72 18.42 L 15.09 17.5 L 10.55 16.59 L 11.46 21.17 L 12.36 19.8 L 20.09 27.13 Z M 18.28 31.25 L 7.82 31.25 L 7.82 29.42 L 4.18 31.72 L 7.82 34.47 L 7.82 32.63 L 18.28 32.63 Z M 20.09 36.3 L 12.36 44.09 L 11.46 42.72 L 10.55 47.3 L 15.09 46.38 L 13.72 45 L 21.01 37.67 Z M 24.63 39.05 L 24.63 49.59 L 23.27 49.59 L 25.55 53.72 L 28.27 49.59 L 26.46 49.59 L 26.46 39.05 Z M 30.09 37.67 L 37.82 45 L 36.46 46.38 L 41 47.3 L 40.1 42.72 L 38.73 44.09 L 31.45 36.3 Z M 32.82 32.63 L 43.28 32.63 L 43.28 34.47 L 47.37 31.72 L 43.28 29.42 L 43.28 31.25 L 32.82 31.25 Z M 31.45 27.13 L 38.73 19.8 L 40.1 21.17 L 41 16.59 L 36.46 17.5 L 37.82 18.42 L 30.09 26.22 Z" fill="#ffffff" stroke="none" pointer-events="all"/><path d="M 31.92 40.88 C 36.91 37.22 38.27 30.34 34.64 25.3 C 31.45 20.25 24.63 19.34 19.64 22.55 C 14.64 26.22 13.27 33.09 16.91 38.13 C 20.54 43.17 27.36 44.55 31.92 40.88 Z" fill="#ffffff" stroke="#036c9b" stroke-width="0.91" stroke-miterlimit="10" pointer-events="all"/></g></g></svg>