<?xml version="1.0" encoding="UTF-8"?>
<!-- Do not edit this file with editors other than draw.io -->
<!DOCTYPE svg PUBLIC "-//W3C//DTD SVG 1.1//EN" "http://www.w3.org/Graphics/SVG/1.1/DTD/svg11.dtd">
<svg xmlns="http://www.w3.org/2000/svg" xmlns:xlink="http://www.w3.org/1999/xlink" version="1.1" width="46px" height="67px" viewBox="-0.5 -0.5 46 67" content="&lt;mxfile host=&quot;Electron&quot; modified=&quot;2024-05-27T21:45:08.819Z&quot; agent=&quot;Mozilla/5.0 (Windows NT 10.0; Win64; x64) AppleWebKit/537.36 (KHTML, like Gecko) draw.io/24.4.8 Chrome/124.0.6367.207 Electron/30.0.6 Safari/537.36&quot; version=&quot;24.4.8&quot; etag=&quot;oFIvG3H7ubsFwbQRlOQX&quot; type=&quot;device&quot; scale=&quot;1&quot; border=&quot;0&quot;&gt;&#10;  &lt;diagram name=&quot;Page-1&quot; id=&quot;5jGZN1WIPDXpAIVSOnyr&quot;&gt;&#10;    &lt;mxGraphModel dx=&quot;1038&quot; dy=&quot;704&quot; grid=&quot;1&quot; gridSize=&quot;10&quot; guides=&quot;1&quot; tooltips=&quot;1&quot; connect=&quot;1&quot; arrows=&quot;1&quot; fold=&quot;1&quot; page=&quot;1&quot; pageScale=&quot;1&quot; pageWidth=&quot;827&quot; pageHeight=&quot;1169&quot; math=&quot;0&quot; shadow=&quot;0&quot;&gt;&#10;      &lt;root&gt;&#10;        &lt;mxCell id=&quot;0&quot; /&gt;&#10;        &lt;mxCell id=&quot;1&quot; parent=&quot;0&quot; /&gt;&#10;        &lt;mxCell id=&quot;2&quot; value=&quot;&quot; style=&quot;sketch=0;points=[[0.015,0.015,0],[0.985,0.015,0],[0.985,0.985,0],[0.015,0.985,0],[0.25,0,0],[0.5,0,0],[0.75,0,0],[1,0.25,0],[1,0.5,0],[1,0.75,0],[0.75,1,0],[0.5,1,0],[0.25,1,0],[0,0.75,0],[0,0.5,0],[0,0.25,0]];verticalLabelPosition=bottom;html=1;verticalAlign=top;aspect=fixed;align=center;pointerEvents=1;shape=mxgraph.cisco19.rect;prIcon=nexus_7k;fillColor=#FAFAFA;strokeColor=#005073;&quot; vertex=&quot;1&quot; parent=&quot;1&quot;&gt;&#10;          &lt;mxGeometry x=&quot;22.860000000000014&quot; y=&quot;117.93&quot; width=&quot;45&quot; height=&quot;65.7&quot; as=&quot;geometry&quot; /&gt;&#10;        &lt;/mxCell&gt;&#10;      &lt;/root&gt;&#10;    &lt;/mxGraphModel&gt;&#10;  &lt;/diagram&gt;&#10;&lt;/mxfile&gt;&#10;"><defs/><g><g><rect x="-0.14" y="-0.07" width="45" height="65.7" fill="none" stroke="none" pointer-events="all"/><path d="M 2.62 20.49 C 1.1 20.49 -0.14 21.72 -0.14 23.24 L -0.14 62.88 C -0.14 64.39 1.1 65.63 2.62 65.63 L 42.1 65.63 C 43.62 65.63 44.86 64.39 44.86 62.88 L 44.86 23.24 C 44.86 21.72 43.62 20.49 42.1 20.49 Z M 2.62 -0.07 C 1.1 -0.07 -0.14 1.17 -0.14 2.69 L -0.14 15.91 C -0.14 17.42 1.1 18.66 2.62 18.66 L 42.1 18.66 C 43.62 18.66 44.86 17.42 44.86 15.91 L 44.86 2.69 C 44.86 1.17 43.62 -0.07 42.1 -0.07 Z" fill="#fafafa" stroke="none" pointer-events="all"/><rect x="-0.14" y="-0.07" width="45" height="65.7" fill="none" stroke="none" pointer-events="all"/><path d="M 16.76 44.61 C 17.3 46.54 18.8 48.06 20.72 48.62 C 18.61 50.44 16.62 51.94 14.92 53.02 C 13.58 53.87 12.41 54.45 11.57 54.71 C 11.15 54.85 10.82 54.89 10.61 54.89 C 10.41 54.88 10.38 54.84 10.38 54.84 C 10.38 54.83 10.34 54.81 10.34 54.6 C 10.33 54.4 10.38 54.07 10.52 53.65 C 10.8 52.82 11.4 51.66 12.27 50.33 C 13.38 48.65 14.91 46.69 16.76 44.61 Z M 27.95 44.61 C 29.8 46.68 31.34 48.65 32.45 50.33 C 33.32 51.66 33.92 52.82 34.2 53.65 C 34.34 54.07 34.39 54.4 34.39 54.6 C 34.38 54.81 34.34 54.84 34.34 54.84 C 34.34 54.84 34.31 54.88 34.11 54.89 C 33.9 54.89 33.57 54.85 33.15 54.71 C 32.31 54.45 31.14 53.87 29.8 53.02 C 28.1 51.94 26.11 50.44 24 48.62 C 25.92 48.05 27.42 46.54 27.95 44.61 Z M 10.62 31.23 C 10.82 31.22 11.15 31.27 11.57 31.4 C 12.41 31.67 13.58 32.25 14.92 33.1 C 16.62 34.18 18.61 35.68 20.72 37.5 C 18.8 38.06 17.3 39.58 16.77 41.51 C 14.92 39.43 13.38 37.47 12.27 35.78 C 11.4 34.46 10.8 33.3 10.52 32.47 C 10.38 32.05 10.33 31.71 10.34 31.51 C 10.34 31.31 10.38 31.28 10.38 31.28 C 10.38 31.28 10.41 31.24 10.62 31.23 Z M 34.11 31.23 C 34.31 31.24 34.34 31.27 34.34 31.28 C 34.34 31.28 34.38 31.31 34.39 31.51 C 34.39 31.71 34.34 32.05 34.2 32.47 C 33.92 33.3 33.32 34.46 32.45 35.78 C 31.34 37.46 29.81 39.43 27.96 41.5 C 27.42 39.58 25.92 38.06 24 37.49 C 26.11 35.68 28.1 34.18 29.8 33.1 C 31.14 32.25 32.31 31.67 33.15 31.4 C 33.57 31.27 33.9 31.22 34.11 31.23 Z M 22.42 27.02 L 19.4 29.9 L 21.54 29.9 L 21.54 36.02 C 19.48 34.27 17.52 32.8 15.8 31.71 C 14.39 30.81 13.14 30.17 12.07 29.83 C 11.53 29.66 11.04 29.57 10.56 29.58 C 10.08 29.6 9.57 29.75 9.2 30.12 C 8.84 30.49 8.7 31 8.69 31.48 C 8.68 31.96 8.78 32.45 8.96 32.99 C 9.31 34.05 9.98 35.29 10.9 36.69 C 11.99 38.36 13.46 40.25 15.21 42.24 L 9.18 42.24 L 9.18 40.11 L 6.3 43.12 L 9.18 46.01 L 9.18 44.03 L 15.07 44.03 C 13.38 45.96 11.97 47.8 10.9 49.43 C 9.98 50.83 9.31 52.07 8.96 53.13 C 8.78 53.66 8.68 54.15 8.69 54.63 C 8.69 55.12 8.84 55.62 9.2 55.99 C 9.57 56.36 10.08 56.52 10.56 56.53 C 11.04 56.55 11.53 56.45 12.07 56.28 C 13.14 55.95 14.39 55.3 15.8 54.41 C 17.52 53.32 19.48 51.85 21.54 50.09 L 21.54 56.21 L 19.4 56.21 L 22.42 59.1 L 25.32 56.21 L 23.34 56.21 L 23.34 50.22 C 25.34 51.92 27.24 53.34 28.92 54.41 C 30.33 55.3 31.58 55.95 32.65 56.29 C 33.19 56.45 33.68 56.55 34.16 56.53 C 34.64 56.52 35.15 56.37 35.52 55.99 C 35.88 55.62 36.02 55.12 36.03 54.63 C 36.04 54.15 35.94 53.66 35.76 53.13 C 35.41 52.07 34.74 50.83 33.82 49.43 C 32.76 47.8 31.34 45.96 29.65 44.03 L 35.54 44.03 L 35.54 46.01 L 38.42 43.12 L 35.54 40.11 L 35.54 42.24 L 29.51 42.24 C 31.26 40.25 32.73 38.36 33.82 36.69 C 34.74 35.29 35.41 34.05 35.76 32.99 C 35.94 32.45 36.04 31.96 36.03 31.48 C 36.02 31 35.88 30.49 35.52 30.12 C 35.15 29.75 34.64 29.6 34.16 29.58 C 33.68 29.57 33.19 29.67 32.65 29.83 C 31.58 30.17 30.33 30.81 28.92 31.71 C 27.24 32.77 25.34 34.2 23.34 35.89 L 23.34 29.9 L 25.32 29.9 Z M 22.43 9.75 L 29.65 12.57 L 29.65 13.09 L 15.07 13.09 L 15.07 12.62 Z M 15.07 5.49 L 29.65 5.49 L 29.65 6.18 L 22.43 8.99 L 15.07 6.12 Z M 8.37 3.48 L 8.37 6.8 L 14.86 6.8 L 21.46 9.37 L 15.07 11.86 L 15.07 11.81 L 8.37 11.81 L 8.37 15.12 L 15.07 15.12 L 15.07 13.79 L 29.65 13.79 L 29.65 15.12 L 36.35 15.12 L 36.35 11.81 L 29.65 11.81 L 29.65 11.81 L 23.4 9.37 L 30 6.8 L 36.35 6.8 L 36.35 3.48 L 29.65 3.48 L 29.65 4.79 L 15.07 4.79 L 15.07 3.48 Z M 2.62 21.73 L 42.1 21.73 C 42.95 21.73 43.61 22.39 43.61 23.24 L 43.61 62.88 C 43.61 63.72 42.95 64.39 42.1 64.39 L 2.62 64.39 C 1.77 64.39 1.11 63.72 1.11 62.88 L 1.11 23.24 C 1.11 22.39 1.77 21.73 2.62 21.73 Z M 2.62 20.49 C 1.1 20.49 -0.14 21.72 -0.14 23.24 L -0.14 62.88 C -0.14 64.39 1.1 65.63 2.62 65.63 L 42.1 65.63 C 43.62 65.63 44.86 64.39 44.86 62.88 L 44.86 23.24 C 44.86 21.72 43.62 20.49 42.1 20.49 Z M 2.62 1.17 L 42.1 1.17 C 42.95 1.17 43.61 1.84 43.61 2.69 L 43.61 15.91 C 43.61 16.76 42.95 17.42 42.1 17.42 L 2.62 17.42 C 1.77 17.42 1.11 16.76 1.11 15.91 L 1.11 2.69 C 1.11 1.84 1.77 1.17 2.62 1.17 Z M 2.62 -0.07 C 1.1 -0.07 -0.14 1.17 -0.14 2.69 L -0.14 15.91 C -0.14 17.42 1.1 18.66 2.62 18.66 L 42.1 18.66 C 43.62 18.66 44.86 17.42 44.86 15.91 L 44.86 2.69 C 44.86 1.17 43.62 -0.07 42.1 -0.07 Z" fill="#005073" stroke="none" pointer-events="all"/></g></g></svg>