<?xml version="1.0" encoding="UTF-8"?>
<!-- Do not edit this file with editors other than draw.io -->
<!DOCTYPE svg PUBLIC "-//W3C//DTD SVG 1.1//EN" "http://www.w3.org/Graphics/SVG/1.1/DTD/svg11.dtd">
<svg xmlns="http://www.w3.org/2000/svg" xmlns:xlink="http://www.w3.org/1999/xlink" version="1.1" width="50px" height="50px" viewBox="-0.5 -0.5 50 50" content="&lt;mxfile host=&quot;Electron&quot; modified=&quot;2024-05-28T21:40:21.993Z&quot; agent=&quot;Mozilla/5.0 (Windows NT 10.0; Win64; x64) AppleWebKit/537.36 (KHTML, like Gecko) draw.io/24.4.8 Chrome/124.0.6367.207 Electron/30.0.6 Safari/537.36&quot; version=&quot;24.4.8&quot; etag=&quot;uhMa27n9-igaSlKxa8mJ&quot; type=&quot;device&quot; scale=&quot;1&quot; border=&quot;0&quot;&gt;&#10;  &lt;diagram name=&quot;Page-1&quot; id=&quot;FqlKblShMDp1hVggWe9O&quot;&gt;&#10;    &lt;mxGraphModel dx=&quot;1038&quot; dy=&quot;704&quot; grid=&quot;1&quot; gridSize=&quot;10&quot; guides=&quot;1&quot; tooltips=&quot;1&quot; connect=&quot;1&quot; arrows=&quot;1&quot; fold=&quot;1&quot; page=&quot;1&quot; pageScale=&quot;1&quot; pageWidth=&quot;827&quot; pageHeight=&quot;1169&quot; math=&quot;0&quot; shadow=&quot;0&quot;&gt;&#10;      &lt;root&gt;&#10;        &lt;mxCell id=&quot;0&quot; /&gt;&#10;        &lt;mxCell id=&quot;1&quot; parent=&quot;0&quot; /&gt;&#10;        &lt;mxCell id=&quot;2&quot; value=&quot;&quot; style=&quot;sketch=0;pointerEvents=1;shadow=0;dashed=0;html=1;strokeColor=none;fillColor=#FF8000;aspect=fixed;labelPosition=center;verticalLabelPosition=bottom;verticalAlign=top;align=center;outlineConnect=0;shape=mxgraph.vvd.networking;&quot; vertex=&quot;1&quot; parent=&quot;1&quot;&gt;&#10;          &lt;mxGeometry x=&quot;309.72&quot; y=&quot;1104.06&quot; width=&quot;50&quot; height=&quot;50&quot; as=&quot;geometry&quot; /&gt;&#10;        &lt;/mxCell&gt;&#10;      &lt;/root&gt;&#10;    &lt;/mxGraphModel&gt;&#10;  &lt;/diagram&gt;&#10;&lt;/mxfile&gt;&#10;"><defs/><g><g><rect x="-0.28" y="-0.94" width="50" height="50" fill="none" stroke="none" pointer-events="all"/><path d="M 12.86 6.08 C 12.58 6.07 12.63 6.04 12.48 5.88 C 12.38 5.79 12.26 5.86 12.22 5.63 C 12.2 5.52 12.19 5.35 12.31 5.27 C 12.59 5.08 13.02 5.15 13.25 5.32 C 13.43 5.45 13.13 6.08 12.86 6.08 Z M 24.72 -0.94 C 10.92 -0.94 -0.28 10.26 -0.28 24.06 C -0.28 37.86 10.92 49.06 24.72 49.06 C 38.52 49.06 49.72 37.86 49.72 24.06 C 49.72 10.26 38.52 -0.94 24.72 -0.94 Z M 24.72 0.21 C 29.61 0.21 34.15 1.68 37.94 4.2 C 37.91 4.36 37.78 4.48 37.58 4.64 C 37.44 4.76 37.31 4.84 37.31 5.18 C 37.3 5.43 36.91 5.7 37.12 6.01 C 37.45 6.49 38.1 6.76 38.34 6.51 C 38.55 6.29 38.03 6.31 38.03 5.69 C 38.03 5.32 38.32 4.85 38.51 4.6 C 39.16 5.06 39.79 5.56 40.4 6.09 C 40.35 6.17 40.3 6.26 40.27 6.36 C 40.22 6.48 40.23 7.01 40.27 7.12 C 40.47 7.58 40.24 7.36 40.11 7.19 C 39.95 6.99 39.75 6.96 39.58 6.93 C 39.27 6.88 39.36 7.08 39.04 6.78 C 38.82 6.59 38.66 6.83 38.87 6.99 C 39.06 7.13 39.24 7.23 39.08 7.31 C 38.56 7.56 38.4 7.43 38.09 7.4 C 37.66 7.35 37.79 7.56 37.5 7.6 C 37.31 7.62 37.31 7.56 37.18 7.68 C 36.89 7.93 36.93 7.81 36.76 7.95 C 36.66 8.03 36.5 8.31 36.37 8.28 C 36.01 8.19 36.22 7.87 36 7.79 C 35.81 7.73 35.79 7.88 35.81 8.04 C 35.84 8.36 35.7 8.38 35.51 8.33 C 35.29 8.28 35.33 8.27 35.12 8.5 C 35.04 8.59 34.93 8.58 34.99 8.76 C 35.02 8.87 34.91 8.89 34.86 8.94 C 34.76 9.04 34.85 9.02 34.72 9.16 C 34.42 9.47 34.38 9.33 34.18 9.15 C 33.9 8.9 34.07 8.79 33.87 8.54 C 33.45 8.01 33.63 8.01 34.09 8.26 C 34.47 8.47 35.09 8.45 35.17 8.08 C 35.27 7.61 34 6.95 33.7 6.93 C 33.29 6.89 33.41 6.65 33.18 6.59 C 32.97 6.54 33.1 6.57 32.86 6.3 C 32.45 5.83 32.49 5.97 31.89 6.02 C 31.17 6.08 31.16 6.24 30.87 6.22 C 30.52 6.21 30.35 6.84 29.86 7.08 C 29.46 7.27 29.14 7.51 29.67 7.57 C 30.14 7.63 29.71 8.12 29.39 8.41 C 29.22 8.57 28.9 9.06 28.69 9.09 C 28.42 9.14 28.24 9.5 27.96 9.72 C 27.71 9.92 27.52 9.85 27.49 10.16 C 27.43 10.88 27.53 11.24 27.72 11.54 C 27.91 11.85 28.09 11.45 28.33 11.46 C 28.55 11.46 28.45 11.4 28.68 11.39 C 29.05 11.37 28.81 11.67 29.12 12.05 C 29.41 12.41 29.21 12.5 29.37 12.54 C 29.51 12.57 29.48 12.45 29.69 12.28 C 29.79 12.19 30.06 12.43 30.05 12.09 C 30.02 11.36 30.1 11.49 30.37 11.25 C 30.66 11.01 30.06 10.93 30.07 10.58 C 30.08 10.28 30.31 9.72 30.46 9.52 C 30.66 9.24 31 9.29 30.99 8.98 C 30.98 8.47 31.22 8.33 31.51 8.39 C 32.17 8.54 31.42 9.33 31.21 9.53 C 31.01 9.71 31.21 9.77 31.18 10.21 C 31.17 10.42 31.34 10.62 31.55 10.75 C 31.83 10.91 31.92 10.57 32.09 10.56 C 32.37 10.56 32.38 10.44 32.54 10.43 C 32.88 10.4 32.89 9.94 33.3 10.37 C 33.51 10.6 32.85 10.99 32.61 11.02 C 32.04 11.1 32.24 11.19 31.92 11.28 C 31.62 11.35 31.59 11.4 31.65 11.56 C 31.76 11.9 31.55 11.98 31.46 11.96 C 31.24 11.89 31.2 11.82 31.1 11.99 C 30.94 12.27 31.06 12.32 30.95 12.47 C 30.5 13.01 29.85 13.21 29.65 13.2 C 28.99 13.17 29.08 13.36 28.76 13.35 C 28.2 13.31 28.37 13.41 27.99 13.49 C 27.59 13.59 27.63 13.46 27.46 13.63 C 27.27 13.81 27.32 13.95 27.02 14.22 C 26.79 14.44 26.76 14.49 26.8 14.23 C 26.82 14.06 26.76 14.07 26.61 13.91 C 26.48 13.77 26.46 13.95 26.44 13.69 C 26.43 13.49 26.33 13.5 26.13 13.22 C 25.86 12.81 25.89 12.8 25.88 12.68 C 25.85 12.38 26.05 12.46 25.95 12.25 C 25.87 12.1 25.73 12.28 25.67 11.87 C 25.65 11.72 25.36 11.82 25.19 11.87 C 24.97 11.94 24.85 12.16 24.8 12.43 C 24.76 12.73 25.11 12.99 25.22 13.17 C 25.32 13.33 25.45 13.18 25.66 13.38 C 25.82 13.53 25.82 13.6 25.68 13.69 C 25.31 13.93 25.47 13.89 25.31 14.06 C 25.14 14.23 25.25 14.31 25.15 14.56 C 25.01 14.91 25.26 15.07 25.62 14.9 C 25.84 14.8 25.9 14.73 26.06 14.75 C 26.33 14.79 26.28 14.66 26.39 14.64 C 26.78 14.56 26.25 14.89 26.07 15 C 25.67 15.22 25.69 15.12 25.54 15.12 C 25.26 15.13 25.18 15.35 25.38 15.47 C 25.82 15.72 25.69 15.72 25.85 15.98 C 26.02 16.26 26.29 16.43 25.99 16.88 C 25.8 17.16 25.67 16.94 25.17 16.91 C 24.5 16.87 24.54 16.96 24.32 17 C 24.17 17.03 24.16 17.04 24.22 17.16 C 24.34 17.41 24.29 17.87 24.24 18.07 C 24.14 18.48 24.12 18.68 24.24 18.94 C 24.39 19.24 24.53 18.81 24.87 19.27 C 25.01 19.44 25.05 19.36 25.17 19.27 C 25.39 19.09 25.51 19.25 25.69 19.13 C 25.85 19.03 25.74 18.97 25.96 18.87 C 26.15 18.79 26.3 18.62 26.29 18.39 C 26.28 17.95 26.36 18.04 26.39 18.02 C 26.54 17.92 26.55 17.79 26.73 17.65 C 26.96 17.48 26.96 17.56 27.03 17.28 C 27.1 17 27.26 16.91 27.46 17 C 27.6 17.07 27.64 17.23 27.98 16.91 C 28.4 16.52 28.51 16.71 28.67 17.08 C 28.92 17.63 29.5 17.91 29.69 18.07 C 29.76 18.15 29.9 18.3 29.88 18.46 C 29.87 18.56 29.79 18.8 29.65 18.78 C 29.35 18.75 29.54 18.99 29.6 19.07 C 29.74 19.27 29.76 18.83 29.91 18.82 C 30.09 18.8 30.11 18.44 30.08 18.35 C 29.96 18.03 30.44 18.3 30.4 18.1 C 30.36 17.88 29.61 17.58 29.49 17.29 C 29.38 17.02 29.02 16.93 29.05 16.55 C 29.07 16.2 29.57 16.58 29.65 16.69 C 29.94 17.09 30.1 17.11 30.22 17.17 C 30.76 17.46 30.73 17.64 30.72 17.77 C 30.66 18.46 31.01 18.11 31.03 18.77 C 31.04 19.35 31.67 19.14 31.77 19.06 C 32.22 18.71 31.36 18.48 31.61 18.16 C 32.03 17.63 32.27 17.98 32.39 18.25 C 32.5 18.51 32.38 18.81 32.62 19.02 C 32.83 19.21 32.76 19.28 33.11 19.38 C 33.43 19.48 33.32 19.09 33.63 19.36 C 33.73 19.44 33.93 19.53 34.1 19.38 C 34.38 19.16 34.53 19.58 34.52 19.99 C 34.52 20 34.4 20.26 34.4 20.58 C 34.4 20.81 34.03 21.08 33.72 21.03 C 33.15 20.92 32.87 21.24 32.52 21.03 C 32.19 20.83 32 20.89 31.76 20.72 C 31.23 20.35 30.93 20.51 30.86 20.69 C 30.77 20.96 31.02 21.27 30.31 21.16 C 29.85 21.09 30 20.76 29.31 20.56 C 28.83 20.43 28.58 20.13 28.62 20.04 C 28.81 19.61 28.66 19.57 28.74 19.28 C 28.86 18.88 28.24 19.13 27.06 19.15 C 26.48 19.16 26.51 19.29 26.39 19.33 C 25.93 19.5 25.9 19.64 25.75 19.66 C 25.5 19.69 25.48 19.51 25.35 19.63 C 25.29 19.69 25.25 19.66 25.13 19.57 C 24.96 19.43 24.83 19.67 24.8 19.8 C 24.69 20.35 24.44 20.02 24.13 20.52 C 23.76 21.11 24.42 21.35 23.43 22.08 C 22.83 22.51 22.71 23.17 22.53 23.33 C 22.06 23.71 22.27 24.23 22.43 24.84 C 22.7 25.84 22.11 25.52 22.34 26.43 C 22.48 27.01 22.84 27.05 23.05 27.66 C 23.29 28.39 23.65 28.42 23.93 28.75 C 24.29 29.16 24.41 29.14 24.78 29 C 25.33 28.78 25.31 29.13 25.5 29.04 C 26.26 28.66 26.19 28.81 26.46 28.69 C 27.14 28.39 27.27 28.43 27.55 28.98 C 27.73 29.34 28.03 28.94 28.15 29.03 C 28.6 29.34 28.46 29.56 28.48 29.78 C 28.52 30.53 28.34 30.29 28.33 30.63 C 28.3 31.24 28.51 30.81 29.05 32.1 C 29.37 32.86 29.17 33.04 29.35 33.55 C 29.59 34.21 29.1 34.25 29.13 34.63 C 29.16 35.06 28.9 34.85 28.95 35.54 C 28.99 36.09 29.09 35.88 29.2 36.4 C 29.33 37.05 29.57 36.51 29.57 38.06 C 29.57 38.85 29.85 38.71 30.04 39.33 C 30.23 39.92 30.36 40.01 30.22 40.3 C 30.12 40.52 30.09 40.65 30.49 40.89 C 30.66 41 31.01 40.72 31.26 40.68 C 31.56 40.63 31.74 40.75 32.13 40.57 C 32.34 40.47 33.21 39.24 33.36 38.9 C 33.63 38.31 33.19 38.17 33.72 37.92 C 34.01 37.78 34.24 37.65 34.04 37.03 C 33.87 36.53 33.96 36.42 34.09 36.19 C 34.59 35.39 34.57 36.05 35.16 35.28 C 35.36 35.03 35.39 33.97 35.36 33.62 C 35.32 33.22 35.02 33.29 35.18 32.85 C 35.28 32.55 35.15 32.15 35.15 32.02 C 35.14 31.62 35.5 31.29 35.7 31.02 C 35.94 30.69 35.75 30.8 36.01 30.46 C 36.71 29.51 36.33 30.32 37 29.46 C 37.39 28.96 37.37 28.83 37.56 28.24 C 37.71 27.8 37.83 28.02 37.94 27.37 C 38.01 26.96 37.82 27.05 37.65 27.1 C 37.38 27.18 37.38 27.02 37.16 27.2 C 36.89 27.42 36.83 27.27 36.64 27.27 C 36.23 27.27 36.35 27.22 36.28 27.12 C 36.08 26.85 36.17 26.85 36.21 26.78 C 36.29 26.64 36.48 26.76 36.72 26.44 C 36.82 26.3 36.96 26.23 37.29 26.16 C 38.23 25.97 38.21 25.71 38.44 25.45 C 38.8 25.07 38.9 25.16 39.05 25.04 C 39.19 24.93 39.25 24.71 39.3 24.67 C 39.75 24.25 39.95 23.99 39.94 23.75 C 39.93 23.36 39.07 22.94 38.82 23.04 C 38.35 23.24 38.25 23.13 38 23 C 37.58 22.76 37.87 22.63 37.69 22.43 C 37.44 22.16 37.5 22.13 37.41 21.95 C 37.19 21.49 37.32 21.32 37.6 21.32 C 37.89 21.33 37.95 21.9 38.11 22.07 C 38.42 22.39 38.71 22.51 38.99 22.4 C 39.35 22.25 39.42 22.6 39.77 22.78 C 40.13 22.96 40.18 22.67 40.34 22.82 C 40.45 22.91 40.23 22.99 40.48 23.27 C 40.91 23.74 40.76 23.78 40.81 24.03 C 40.89 24.41 41.04 24.36 41.28 24.26 C 41.49 24.17 41.43 24.45 41.42 24.66 C 41.41 24.93 41.52 24.85 41.49 25.09 C 41.41 25.77 41.57 25.68 41.61 26.13 C 41.69 27.07 42.02 27.99 42.11 28 C 42.37 28.05 42.18 27.9 42.41 27.79 C 42.62 27.7 42.62 27.69 42.64 27.31 C 42.65 27.14 42.76 27.06 42.76 26.63 C 42.76 25.88 43.06 25.94 43.36 25.6 C 44.27 24.55 44.19 24.91 44.29 24.77 C 44.39 24.63 44.34 24.59 44.44 24.45 C 44.61 24.18 44.72 24.51 44.99 24.23 C 45.33 23.87 45.35 24.21 45.4 24.51 C 45.45 24.84 45.5 24.71 45.63 24.9 C 45.75 25.08 45.7 25.18 45.77 25.29 C 46.01 25.62 46.16 25.19 46.41 26.19 C 46.82 27.82 46.37 27.71 46.5 28.16 C 46.62 28.59 46.7 28.36 46.72 29.06 C 46.73 29.54 46.8 29.94 47.2 30.06 C 47.44 30.13 47.27 29.85 47.27 29.54 C 47.28 29.01 47.19 29.03 46.95 28.62 C 46.44 27.72 46.79 27.71 46.81 27.35 C 46.85 26.65 47.19 26.96 47.39 27.46 C 47.63 28.08 47.97 27.89 48.3 27.66 C 48.06 29.23 47.67 30.75 47.14 32.2 C 46.95 32.15 46.75 32.1 46.74 31.92 C 46.72 31.73 46.86 31.72 46.85 31.46 C 46.83 31.09 46.58 31.25 46.59 30.96 C 46.6 30.59 46.24 30.7 46.03 30.03 C 45.95 29.76 45.65 29.44 45.49 29.57 C 45.29 29.72 45.71 29.9 45.7 30.48 C 45.7 30.79 46 30.77 46.1 31.23 C 46.18 31.61 46.29 31.76 46.38 31.98 C 46.57 32.44 46.81 32.5 46.98 32.62 C 46.08 34.97 44.82 37.14 43.26 39.06 C 43.11 38.97 42.95 38.84 42.88 38.7 C 42.78 38.52 42.92 38.33 42.78 38.17 C 42.67 38.06 42.52 38.18 42.52 38.34 C 42.54 38.64 42.36 38.75 42.37 38.87 C 42.38 39.31 42.22 39.21 42.16 39.41 C 42.02 39.87 41.86 39.87 41.71 39.67 C 41.42 39.29 41.39 39.38 41.16 39.31 C 40.92 39.24 41.11 38.73 41.38 38.53 C 41.59 38.38 41.51 38.27 41.36 38.26 C 40.84 38.24 40.6 38.1 40.3 38.22 C 39.98 38.35 40.07 38.49 39.83 38.81 C 39.6 39.13 39.5 39.01 39.38 38.95 C 39.25 38.87 39.08 38.86 38.94 38.96 C 38.49 39.27 38.39 39.54 38.16 39.68 C 37.95 39.8 37.84 39.97 37.84 40.12 C 37.86 40.47 37.44 40.62 37.34 40.63 C 37.16 40.65 37.22 40.57 36.85 40.7 C 36.54 40.82 36.11 41.23 35.84 41.49 C 35.78 41.56 35.74 41.54 35.74 41.73 C 35.73 42.09 35.62 42.07 35.6 42.46 C 35.57 42.98 35.66 43.36 35.7 43.38 C 35.79 43.41 35.69 43.49 35.65 43.64 C 35.57 44.04 35.93 43.93 35.52 44.66 C 35.41 44.84 35.52 45.06 35.73 45.22 C 32.44 46.94 28.7 47.91 24.72 47.91 C 20.25 47.91 16.06 46.68 12.49 44.54 C 12.65 44.3 12.69 43.97 12.31 43.88 C 12.14 43.87 12.13 43.75 11.83 43.6 C 11.58 43.4 11.19 43.03 10.79 42.77 C 10.63 42.76 10.52 42.88 10.32 42.7 C 10.2 42.59 10.13 42.51 10.16 42.33 C 10.16 42.25 9.93 42.14 9.81 42.11 C 9.78 41.97 9.9 41.84 9.79 41.71 C 9.53 41.46 9.78 41.22 9.66 41.16 C 9.57 41.12 9.32 41.37 9.37 41.54 C 9.42 41.7 9.65 41.88 9.47 41.98 C 9.38 42.04 9.29 42.1 9.17 42.15 C 4.09 37.78 0.87 31.3 0.87 24.06 C 0.87 21.9 1.16 19.81 1.7 17.82 C 1.93 18.24 1.69 18.45 1.96 18.59 C 2.17 18.68 2.24 19.21 2.23 19.57 C 2.23 19.85 2.55 19.77 2.56 19.97 C 2.56 20.23 2.66 20.17 2.75 20.48 C 2.82 20.64 2.96 20.42 3.02 20.59 C 3.23 21.16 3.21 22.02 3.57 22.69 C 3.7 22.9 3.66 23.15 3.54 23.41 C 3.36 23.9 3.8 24.25 4.2 24.77 C 4.37 24.93 4.43 24.86 4.58 25.04 C 4.77 25.24 4.91 25.4 5.13 25.43 C 5.64 25.49 5.65 25.53 5.72 25.77 C 5.86 26.23 6.07 26.44 6.29 26.54 C 6.69 26.71 6.72 27.09 6.72 27.34 C 6.71 27.6 6.78 27.86 6.87 28.02 C 7.09 28.37 7.12 28.32 7.27 28.57 C 7.38 28.73 7.49 28.91 7.63 28.75 C 7.85 28.46 7.93 28.68 8.07 28.91 C 8.33 29.27 8.6 29.15 8.48 29.54 C 8.31 30.04 8.3 30.31 8.29 30.6 C 8.28 31.21 8.65 31.37 8.59 31.64 C 8.5 32.07 8.77 32.21 8.97 32.37 C 9.45 32.75 9.85 32.74 10 33.13 C 10.21 33.69 10.55 33.72 10.69 34 C 10.94 34.46 11.02 34.46 11.68 34.61 C 12.25 34.73 12.57 34.89 12.69 35.25 C 12.81 35.74 12.97 35.96 13.14 36.45 C 13.27 36.84 13.29 37.13 13.47 37.57 C 13.56 37.78 13.65 37.94 13.71 38.34 C 13.84 39.12 14.21 38.79 14.21 39.54 C 14.21 39.9 14.3 40.28 14.44 40.67 C 14.54 40.93 14.49 41.11 14.71 41.26 C 14.88 41.37 14.83 41.46 14.87 41.64 C 14.91 41.8 15.04 41.85 15.05 42.14 C 15.05 42.57 15.3 43.02 15.44 43.24 C 15.63 43.51 15.42 43.67 15.73 43.79 C 15.95 43.88 15.93 44.04 15.87 44.2 C 15.84 44.34 15.89 44.48 15.98 44.61 C 16.32 45.15 16.57 45.65 16.97 45.83 C 17.68 46.18 18.16 46.36 18.71 46.32 L 18.71 46.32 C 18.84 46.31 19.02 46.17 18.86 45.98 C 18.72 45.82 18.5 45.87 18.12 45.58 C 17.87 45.39 17.82 45.05 17.78 44.88 C 17.61 44.11 17.53 44.19 17.6 43.99 C 17.71 43.62 17.62 43.51 17.31 43.35 C 16.94 43.14 17.16 43.06 17.19 42.69 C 17.23 42.13 17.39 41.99 17.05 41.76 C 16.82 41.6 16.73 41.54 17.04 41.41 C 17.22 41.33 17.21 41.28 17.15 41.11 C 17.02 40.8 17.21 40.52 17.48 40.42 C 17.96 40.25 17.92 39.68 17.56 39.33 C 17.15 38.95 17.48 39.09 17.78 39.01 C 18.24 38.89 17.93 38.72 18.18 38.27 C 18.41 37.84 18.37 37.8 18.36 37.5 C 18.35 37.07 18.42 36.99 18.38 36.64 C 18.35 36.43 17.98 36.15 18.21 35.7 C 18.41 35.33 18.44 35.52 18.58 35.39 C 18.92 35.08 18.74 35.08 18.98 34.9 C 19.43 34.57 19.2 34.52 19.29 33.71 C 19.41 32.64 18.89 31.93 18.92 31.76 C 18.98 31.47 19.08 31.38 19.17 31.07 C 19.33 30.56 19.13 30.92 19.33 30.31 C 19.44 29.98 19.19 29.15 18.71 29.02 C 18.12 28.86 18.25 28.67 17.81 28.64 C 17.22 28.59 17.08 28.9 16.38 28.58 C 15.7 28.27 15.5 28.57 15.24 28.33 C 14.92 28.02 14.97 27.4 14.06 26.96 C 13.45 26.66 13.29 27.33 12.76 26.91 C 12.41 26.63 12.32 26.78 12.04 26.61 C 11.69 26.38 11.64 25.71 11.31 25.99 C 11.06 26.21 11.22 26.05 10.85 25.88 C 10.26 25.61 10.1 26.09 10.39 26.2 C 10.77 26.35 10.95 26.26 10.86 26.38 C 10.56 26.77 10.74 26.41 10.41 26.5 C 9.85 26.66 10.19 26.51 9.61 26.32 C 9.46 26.27 9.26 26.2 9.11 26.41 C 8.81 26.81 8.7 26.77 8.39 27.11 C 8.3 27.2 8.34 28.07 8.34 28.44 C 8.34 28.87 8.25 28.64 8.1 28.43 C 7.8 27.98 7.73 28.53 7.45 28.17 C 7.04 27.63 7.26 27.05 7.37 26.93 C 7.68 26.58 7.45 25.95 7.19 25.92 C 7.02 25.9 6.52 25.77 6.8 25.41 C 7.19 24.89 6.89 25.02 7.06 24.73 C 7.32 24.32 7.37 24.25 7.09 24.17 C 6.76 24.07 6.71 24.23 6.51 24.48 C 6.14 24.95 6.28 24.61 5.87 24.69 C 5.72 24.71 5.6 25.03 5.35 24.24 C 4.97 22.99 5.68 22.46 5.65 22.28 C 5.58 21.89 5.83 21.72 6.02 21.66 C 6.69 21.45 6.86 21.24 7.07 21.65 C 7.36 22.2 7.69 21.62 7.96 21.65 C 9.05 21.75 8.51 23.69 8.93 23.45 C 9.4 23.19 8.76 21.73 9.71 21.36 C 10.27 21.15 10.93 20.93 10.84 20.45 C 10.74 19.94 11 20.02 11.1 19.92 C 11.34 19.69 10.85 19.74 11.54 19.35 C 12.66 18.71 12.88 18.47 13.36 18.46 C 13.82 18.45 13.52 18.7 14.46 18.51 C 15.72 18.26 15.42 17.62 15 17.79 C 14.3 18.08 14.53 17.41 14.59 17.12 C 14.73 16.5 14.38 16.88 14.13 16.85 C 13.82 16.82 13.79 17.2 13.56 16.94 C 13.44 16.81 13.53 16.69 13.91 16.57 C 14.16 16.49 14.15 16.19 14.9 16.43 C 15.37 16.59 15.77 16.6 16.04 16.44 C 16.41 16.21 16.69 16.25 16.81 16.01 C 16.97 15.68 16.13 15.09 16.09 14.78 C 16.05 14.41 15.93 14.48 16.04 14.23 C 16.26 13.75 16.07 13.73 16.06 13.38 C 16.05 13.1 16.12 12.88 15.88 13.04 C 15.36 13.38 15.28 13.57 15.03 12.96 C 14.95 12.75 15.13 12.53 15.13 12.37 C 15.15 12.07 15.02 12.11 14.91 11.9 C 14.81 11.69 14.98 11.57 14.63 11.59 C 14.28 11.61 14.38 11.53 14.13 11.53 C 13.75 11.54 13.82 12.28 13.61 12.41 C 13.28 12.61 13.27 12.63 13.3 12.86 C 13.33 13.19 13.31 13.8 12.9 13.98 C 12.28 14.26 12.39 15.14 11.88 15.3 C 11.57 15.39 11.57 14.68 11.68 14.31 C 11.75 14.05 11.75 13.95 11.52 13.85 C 10.9 13.61 11.1 13.31 10.86 12.96 C 10.62 12.6 10.26 12.62 10.31 12.38 C 10.42 11.92 10.3 12.1 10.21 11.92 C 9.89 11.32 10.7 11.01 10.92 10.87 C 11.36 10.58 11.46 10.26 12.02 10.29 C 12.41 10.31 12.4 10.21 12.5 10.24 C 12.78 10.33 12.38 10.75 12.77 10.75 C 13.06 10.75 13.29 10.5 13.15 10.21 C 12.96 9.82 13.52 9.86 13.86 9.66 C 14.39 9.34 13.9 8.67 14.27 8.36 C 14.89 7.86 15.4 7.99 15.55 8.58 C 15.7 9.21 16.05 9.28 15.76 9.6 C 15.36 10.04 15.27 10.43 15.04 10.42 C 14.49 10.41 13.94 10.71 14.18 10.97 C 14.41 11.23 14.5 10.8 15.18 11.38 C 15.61 11.74 15.07 11.65 15.85 11.94 C 16.32 12.12 16.18 11.81 15.93 11.62 C 15.63 11.39 15.92 11.03 16.3 11.39 C 16.58 11.65 16.78 11.27 16.53 10.96 C 16.26 10.64 16.58 10.25 16.71 10.5 C 16.84 10.73 16.92 10.53 16.96 10.77 C 17.04 11.21 17.18 10.97 17.5 10.63 C 17.65 10.44 17.73 10.06 17.49 9.8 C 17.3 9.61 17.28 9.45 17.24 9.4 C 17.19 9.35 17.09 9.31 17.03 9.24 C 16.94 9.14 16.93 9.04 17.01 8.88 C 17.09 8.73 17.16 8.53 16.96 8.33 C 16.73 8.13 16.5 7.97 16.66 7.58 C 16.7 7.42 16.68 7.32 16.53 7.32 C 16.33 7.31 16.08 7.2 16.1 7.04 C 16.15 6.8 16.15 6.7 15.94 6.66 C 15.62 6.64 15.35 6.65 14.82 6.49 C 14.2 6.33 14.23 6.53 14.16 6.52 C 14.01 6.52 14.11 6.31 14.14 6.1 C 14.16 5.99 14.03 6.03 14.13 5.95 C 14.21 5.88 14.45 5.65 14.31 5.56 C 14.1 5.48 14.07 5.76 13.93 5.99 C 13.85 6.13 13.71 6.45 13.77 6.49 C 13.83 6.52 13.89 6.42 13.93 6.47 C 13.99 6.54 13.91 6.59 13.99 6.63 C 14.15 6.76 13.94 6.84 13.91 6.79 C 13.88 6.68 13.76 6.86 13.69 6.91 C 13.52 7.04 13.52 7.12 13.56 7.23 C 13.67 7.51 13.6 7.55 13.62 7.71 C 13.66 8.05 13.53 8.09 13.73 8.25 C 13.95 8.43 13.81 8.5 13.73 8.6 C 13.56 8.79 13.5 8.72 13.45 8.81 C 13.37 8.93 13.43 8.96 13.32 9.09 C 13.15 9.26 13.01 9.33 12.97 9.17 C 12.95 9.03 12.87 8.97 12.75 8.96 C 12.56 8.95 12.55 8.84 12.6 8.58 C 12.61 8.49 12.53 8.46 12.55 8.43 C 12.59 8.38 12.61 8.25 12.58 8.21 C 12.46 8.02 12.5 7.88 12.71 7.71 C 13.08 7.41 12.58 7.32 12.58 7.01 C 12.58 6.8 12.83 6.64 13.28 6.62 C 13.41 6.62 13.71 6.4 13.75 6.19 C 13.76 6.13 13.78 6.03 13.75 6 C 13.63 5.93 13.57 5.99 13.51 6.03 C 13.42 6.09 13.38 6.16 13.42 6.28 C 13.46 6.49 13.29 6.58 13.13 6.58 C 12.83 6.58 12.85 6.46 12.64 6.39 C 12.36 6.32 12.35 6.44 12.25 6.44 C 11.96 6.42 11.94 6.57 11.73 6.72 C 11.59 6.86 11.62 7.04 11.72 7.08 C 11.84 7.12 11.91 7.18 11.92 7.28 C 11.93 7.44 12.02 7.51 12.14 7.5 C 12.43 7.5 12.45 7.64 12.36 7.82 C 12.3 7.94 12.31 8.02 12.36 8.13 C 12.61 8.38 12.44 8.55 12.19 8.73 C 11.95 8.89 11.71 8.97 11.52 8.9 C 11.1 8.76 10.98 8.72 10.58 8.75 C 10.27 8.76 10.19 8.69 10.13 8.46 C 10.09 8.31 9.93 8.39 9.86 8.43 C 9.16 8.8 9.19 8.49 8.73 8.49 C 8.46 8.49 8.25 8.49 8.33 8.34 C 8.49 8.12 8.31 8.09 8.07 8.04 L 8.36 7.64 C 8.92 8.17 9.2 8.23 9.74 8.02 C 9.93 7.95 10.23 7.88 10.32 8.08 C 10.48 8.32 10.55 8.3 10.99 8.16 C 11.35 8.05 11.45 7.98 11.2 7.66 C 10.77 7.18 10.99 7.08 11 6.72 C 11.09 6.37 10.35 6.36 9.98 6.37 C 9.92 6.36 9.96 6.29 9.85 6.27 L 10.56 5.77 C 11.01 5.77 11.44 5.83 11.64 5.61 C 11.79 5.44 11.69 5.32 11.35 5.17 L 12.17 4.58 C 12.34 4.44 12.38 4.58 12.55 4.58 C 12.72 4.57 12.83 4.59 12.87 4.74 C 12.89 4.89 12.97 4.99 13.14 4.98 C 13.41 4.97 13.48 4.86 13.39 4.61 C 13.24 4.32 13.32 4.19 12.87 4.17 L 14.59 3.24 C 14.62 3.45 14.6 3.61 14.57 3.74 C 14.53 3.93 14.49 4.18 14.33 4.2 C 14.13 4.23 13.93 3.97 13.8 4.19 C 13.65 4.44 14.03 4.66 13.94 4.81 C 13.67 5.31 14.33 5.11 14.38 5.29 C 14.43 5.41 14.39 5.51 14.71 5.43 C 15 5.38 15.32 5.43 15.64 5.41 C 15.99 5.4 15.96 5.01 16.56 4.56 C 16.67 4.47 16.82 4.11 17.17 3.87 C 17.47 3.79 17.62 3.56 17.8 3.32 C 17.98 3.07 18.2 2.99 18.47 2.87 C 18.79 2.75 18.96 2.64 19.06 2.5 C 19.14 2.38 19.5 2.19 19.73 2.16 C 19.92 2.13 20.58 1.8 20.49 1.53 C 20.41 1.18 18.87 1.3 18.59 1.41 C 18.36 1.48 18.16 1.23 18 1.37 C 17.89 1.47 17.72 1.42 17.42 1.52 C 16.98 1.69 16.67 1.72 16.4 1.71 C 18.99 0.74 21.79 0.21 24.72 0.21 Z M 24.63 1.85 C 24.29 1.84 23.97 1.91 23.74 2.08 C 23.17 2.5 23.47 2.2 23.15 2.23 C 22.72 2.28 22.81 2.47 22.61 2.59 C 22.45 2.69 22.62 2.98 22.42 2.99 C 22.25 3 22.43 2.65 22.16 2.66 C 21.4 2.67 21.24 2.85 20.94 2.9 C 20.07 3.04 20.15 3.32 19.63 3.53 C 19.45 3.6 19.22 3.66 19.51 3.78 C 19.7 3.87 19.7 4.01 19.47 4.11 C 19.09 4.29 19.12 4.06 18.53 4.48 C 18.34 4.61 18.65 4.76 18.5 4.9 C 18.3 5.08 18.36 5.12 18.47 5.25 C 18.7 5.51 18.47 5.15 19.53 5.2 C 20.17 5.23 20.09 5.35 20.26 5.49 C 20.52 5.7 20.53 6.11 20.48 6.3 C 20.42 6.54 20.4 6.66 20.62 6.68 C 21.25 6.75 21.16 6.91 21.16 7.29 C 21.16 7.78 20.6 7.7 20.57 8.1 C 20.53 8.54 20.32 8.64 20.6 9.04 C 20.92 9.5 20.54 9.39 20.95 9.8 C 21.21 10.06 21.06 10.22 21.31 10.17 C 21.58 10.12 21.69 10.34 21.83 10.37 C 22.06 10.43 22.04 10.09 22.2 9.82 C 22.36 9.52 22.36 9.58 22.46 9.4 C 22.61 9.14 22.55 8.85 22.73 8.62 C 22.88 8.44 23.1 8.63 23.42 8.43 C 23.89 8.13 24.26 7.46 25 7.51 C 25.32 7.53 25.57 7.12 25.86 6.87 C 26.04 6.72 25.71 6.54 25.95 6.32 C 26.16 6.12 26.13 6.03 26.14 5.77 C 26.16 5.41 26.22 5.19 26.34 4.97 C 26.4 4.86 26.2 4.8 26.18 4.64 C 26.16 4.51 26.34 4.3 26.33 4.15 C 26.32 3.89 26.56 3.83 26.69 3.57 C 26.94 3.36 27.03 3.25 27.07 2.9 C 27.11 2.53 26.78 2.81 26.53 2.82 C 25.7 2.84 26.48 2.59 26.27 2.28 C 26.19 2.15 25.37 1.85 24.63 1.85 Z M 33.4 3.59 C 33.21 3.59 33 3.62 32.76 3.69 C 32.67 3.71 32.51 3.97 32.45 3.98 C 32.34 3.99 32.38 3.81 32.04 3.97 C 31.85 4.07 31.51 3.82 31.39 4.24 C 31.27 4.69 31.47 4.55 31.6 4.85 C 31.74 5.18 31.61 5.22 31.75 5.4 C 31.88 5.59 31.9 5.45 32.18 5.67 C 32.48 5.91 32.82 5.39 32.81 5.18 C 32.81 4.86 33.23 5.01 33.21 5.27 C 33.2 5.41 33.34 5.42 33.51 5.43 C 33.69 5.43 34 5.28 33.7 5.08 C 33.2 4.75 32.83 4.72 32.9 4.36 C 32.92 4.26 33.25 4.3 33.39 4.38 C 33.87 4.64 34.08 4.5 34.21 4.34 C 34.38 4.14 34.53 4 34.24 3.84 C 34.07 3.75 33.8 3.6 33.4 3.59 Z M 25.69 8.64 C 25.66 8.64 25.62 8.65 25.58 8.66 C 25.35 8.74 25.05 8.77 24.89 8.74 C 24.76 8.72 24.68 8.99 24.47 9 C 24.27 9 24.5 8.7 24.16 8.75 C 24 8.78 23.82 9 23.84 9.16 C 23.94 9.76 24.19 9.66 24.51 9.82 C 24.98 10.05 25.1 9.96 25.31 9.74 C 25.51 9.54 26.36 9.33 26.06 8.94 C 26.02 8.9 25.92 8.63 25.69 8.64 Z M 24.69 13.21 C 24.46 13.22 24.65 13.36 24.43 13.42 C 24.27 13.47 24.41 13.61 24.37 13.74 C 24.3 13.94 24.14 13.98 24.16 14.25 C 24.18 14.56 24.48 14.52 24.63 14.42 C 24.77 14.33 24.99 14.17 25.01 13.98 C 25.03 13.77 24.78 13.69 24.93 13.52 C 25.06 13.37 24.95 13.21 24.69 13.21 Z M 34.89 15.99 C 34.92 15.99 34.96 15.99 35 16 C 35.32 16.05 34.97 16.46 34.83 16.55 C 34.59 16.71 34.62 16.76 34.73 16.84 C 34.97 17 35.03 17.2 35.23 17.37 C 35.37 17.49 35.84 17.6 35.66 17.89 C 35.57 18.05 35.33 18.18 35.02 18.15 C 34.7 18.11 34.5 17.88 34.02 17.85 C 33.63 17.82 33.39 18.07 33.07 18.05 C 32.55 18 32.59 17.62 32.7 17.27 C 32.81 16.92 33.06 16.38 33.35 16.35 C 33.68 16.32 33.67 16.65 33.71 16.79 C 33.77 16.97 33.89 17.07 34.06 17 C 34.28 16.9 34.41 16.77 34.19 16.65 C 33.98 16.54 34.09 16.29 34.29 16.25 C 34.53 16.2 34.63 16 34.89 15.99 Z M 16.66 16.91 C 16.54 16.91 16.46 17.16 16.37 17.27 C 16.21 17.51 15.79 17.56 15.85 17.79 C 15.89 17.95 15.95 17.95 16.26 17.96 C 16.5 17.97 16.65 18.13 16.75 18.2 C 17 18.36 17.01 18.54 17.22 18.38 C 17.35 18.29 17.28 18.03 17.11 17.81 C 16.89 17.51 17.06 17.5 16.92 17.37 C 16.69 17.15 16.9 17.11 16.74 16.95 C 16.71 16.92 16.68 16.91 16.66 16.91 Z M 34.01 22.01 C 34.18 22 34.4 22.25 34.61 22.72 C 34.9 23.41 35.23 23.48 35.14 23.88 C 34.99 24.56 35.39 24.52 35.6 24.79 C 35.77 25 35.71 25.3 35.92 25.54 C 36.01 25.64 36.31 26.29 36.01 26.52 C 35.79 26.69 35.64 26.15 35.45 26.01 C 34.89 25.56 35.29 25.32 34.92 24.98 C 34.77 24.84 34.66 24.74 34.75 24.6 C 34.83 24.45 34.76 23.98 34.51 23.79 C 34.27 23.6 34.45 23.55 34.33 23.25 C 34.26 23.07 34.11 22.99 34.04 22.67 C 33.98 22.4 33.88 22.4 33.85 22.23 C 33.83 22.11 33.9 22.06 33.95 22.03 C 33.97 22.02 33.99 22.01 34.01 22.01 Z M 8.7 24.08 C 8.62 24.07 8.55 24.11 8.5 24.22 C 8.33 24.62 9.27 24.6 9.43 25.02 C 9.55 25.33 9.68 25.61 10 25.46 C 10.24 25.36 10.13 25.19 9.79 24.92 C 9.62 24.79 9.59 24.59 9.37 24.53 C 9.29 24.51 9.4 24.39 9.23 24.31 C 9.02 24.22 8.84 24.09 8.7 24.08 Z M 37.05 34.07 C 36.98 34.07 36.92 34.15 36.89 34.32 C 36.87 34.44 36.78 34.41 36.66 34.57 C 36.6 34.65 36.57 34.75 36.48 34.84 C 36.39 34.93 36.23 35 36.13 35.05 C 35.77 35.22 35.69 35.63 35.82 35.89 C 35.94 36.13 35.77 36.17 35.61 36.59 C 35.41 37.12 35.61 37.7 35.99 37.78 C 36.41 37.86 36.73 36.56 36.8 36.13 C 36.85 35.79 36.92 35.92 37.01 35.45 C 37.08 35.11 37.29 34.91 37.3 34.64 C 37.3 34.28 37.17 34.07 37.05 34.07 Z" fill="#ff8000" stroke="none" pointer-events="all"/></g></g></svg>