<?xml version="1.0" encoding="UTF-8"?>
<!-- Do not edit this file with editors other than draw.io -->
<!DOCTYPE svg PUBLIC "-//W3C//DTD SVG 1.1//EN" "http://www.w3.org/Graphics/SVG/1.1/DTD/svg11.dtd">
<svg xmlns="http://www.w3.org/2000/svg" xmlns:xlink="http://www.w3.org/1999/xlink" version="1.1" width="43px" height="26px" viewBox="-0.5 -0.5 43 26" content="&lt;mxfile host=&quot;Electron&quot; modified=&quot;2024-05-28T17:30:50.738Z&quot; agent=&quot;Mozilla/5.0 (Windows NT 10.0; Win64; x64) AppleWebKit/537.36 (KHTML, like Gecko) draw.io/24.4.8 Chrome/124.0.6367.207 Electron/30.0.6 Safari/537.36&quot; version=&quot;24.4.8&quot; etag=&quot;t0Kr7QOsR6muIrP-jNoG&quot; type=&quot;device&quot; scale=&quot;1&quot; border=&quot;0&quot;&gt;&#10;  &lt;diagram name=&quot;Page-1&quot; id=&quot;qClzhp_GgUe0_OnBoyaM&quot;&gt;&#10;    &lt;mxGraphModel dx=&quot;519&quot; dy=&quot;352&quot; grid=&quot;1&quot; gridSize=&quot;10&quot; guides=&quot;1&quot; tooltips=&quot;1&quot; connect=&quot;1&quot; arrows=&quot;1&quot; fold=&quot;1&quot; page=&quot;1&quot; pageScale=&quot;1&quot; pageWidth=&quot;827&quot; pageHeight=&quot;1169&quot; math=&quot;0&quot; shadow=&quot;0&quot;&gt;&#10;      &lt;root&gt;&#10;        &lt;mxCell id=&quot;0&quot; /&gt;&#10;        &lt;mxCell id=&quot;1&quot; parent=&quot;0&quot; /&gt;&#10;        &lt;mxCell id=&quot;2&quot; value=&quot;&quot; style=&quot;points=[[0,0.64,0],[0.2,0.15,0],[0.4,0.01,0],[0.79,0.25,0],[1,0.65,0],[0.8,0.86,0],[0.41,1,0],[0.16,0.86,0]];verticalLabelPosition=bottom;sketch=0;html=1;verticalAlign=top;aspect=fixed;align=center;pointerEvents=1;shape=mxgraph.cisco19.cloud2;fillColor=#C4C4C4;strokeColor=none;&quot; vertex=&quot;1&quot; parent=&quot;1&quot;&gt;&#10;          &lt;mxGeometry x=&quot;405.6&quot; y=&quot;1060&quot; width=&quot;43&quot; height=&quot;25.8&quot; as=&quot;geometry&quot; /&gt;&#10;        &lt;/mxCell&gt;&#10;      &lt;/root&gt;&#10;    &lt;/mxGraphModel&gt;&#10;  &lt;/diagram&gt;&#10;&lt;/mxfile&gt;&#10;"><defs/><g><g><rect x="-0.4" y="0" width="43" height="25.8" fill="none" stroke="none" pointer-events="all"/><path d="M 26.39 21.9 C 24.31 24.08 20.97 25.8 17.2 25.8 C 14.36 25.8 10.88 24.65 8.49 22.34 C 2.1 22.25 -0.4 19.72 -0.4 16.45 C -0.4 13.75 1.74 11.85 4.56 10.95 C 5.54 5.15 10.32 0.84 16.3 0.35 C 22.17 0 26.31 3.36 28.04 6.21 C 29.93 5.82 31.88 5.67 33.88 6.75 C 35.63 7.73 36.66 9.35 37.28 10.81 C 40.44 11.87 42.6 13.88 42.6 16.34 C 42.6 19.33 40.35 21.92 34.95 22.3 C 32.15 22.49 29.51 22.21 26.39 21.9 Z" fill="#c4c4c4" stroke="none" pointer-events="all"/><path d="M 33.99 9.21 C 33.69 8.91 33.34 8.64 32.95 8.42 C 31.47 7.62 30.16 7.72 28.43 8.07 L 27.11 8.35 L 26.41 7.19 C 25.03 4.93 21.51 1.96 16.43 2.25 C 11.29 2.68 7.28 6.31 6.45 11.26 L 6.26 12.41 L 5.15 12.76 C 3.97 13.13 3.01 13.71 2.4 14.34 C 1.82 14.95 1.53 15.56 1.51 16.38 Z" fill-opacity="0.5" fill="#ffffff" stroke="none" pointer-events="all"/></g></g></svg>