<?xml version="1.0" encoding="UTF-8"?>
<!-- Do not edit this file with editors other than draw.io -->
<!DOCTYPE svg PUBLIC "-//W3C//DTD SVG 1.1//EN" "http://www.w3.org/Graphics/SVG/1.1/DTD/svg11.dtd">
<svg xmlns="http://www.w3.org/2000/svg" xmlns:xlink="http://www.w3.org/1999/xlink" version="1.1" width="44px" height="27px" viewBox="-0.5 -0.5 44 27" content="&lt;mxfile host=&quot;Electron&quot; modified=&quot;2024-05-28T17:57:36.191Z&quot; agent=&quot;Mozilla/5.0 (Windows NT 10.0; Win64; x64) AppleWebKit/537.36 (KHTML, like Gecko) draw.io/24.4.8 Chrome/124.0.6367.207 Electron/30.0.6 Safari/537.36&quot; version=&quot;24.4.8&quot; etag=&quot;ZvVPHgPgiye2pNroapAD&quot; type=&quot;device&quot; scale=&quot;1&quot; border=&quot;0&quot;&gt;&#10;  &lt;diagram name=&quot;Page-1&quot; id=&quot;EoGOdDM7QFvSATPglgUt&quot;&gt;&#10;    &lt;mxGraphModel dx=&quot;519&quot; dy=&quot;352&quot; grid=&quot;1&quot; gridSize=&quot;10&quot; guides=&quot;1&quot; tooltips=&quot;1&quot; connect=&quot;1&quot; arrows=&quot;1&quot; fold=&quot;1&quot; page=&quot;1&quot; pageScale=&quot;1&quot; pageWidth=&quot;827&quot; pageHeight=&quot;1169&quot; math=&quot;0&quot; shadow=&quot;0&quot;&gt;&#10;      &lt;root&gt;&#10;        &lt;mxCell id=&quot;0&quot; /&gt;&#10;        &lt;mxCell id=&quot;1&quot; parent=&quot;0&quot; /&gt;&#10;        &lt;mxCell id=&quot;2&quot; value=&quot;&quot; style=&quot;points=[[0,0.64,0],[0.2,0.15,0],[0.4,0.01,0],[0.79,0.25,0],[1,0.65,0],[0.8,0.86,0],[0.41,1,0],[0.16,0.86,0]];verticalLabelPosition=bottom;sketch=0;html=1;verticalAlign=top;aspect=fixed;align=center;pointerEvents=1;shape=mxgraph.cisco19.cloud2;fillColor=#d5e8d4;strokeColor=#82b366;&quot; vertex=&quot;1&quot; parent=&quot;1&quot;&gt;&#10;          &lt;mxGeometry x=&quot;350&quot; y=&quot;1060&quot; width=&quot;43&quot; height=&quot;25.8&quot; as=&quot;geometry&quot; /&gt;&#10;        &lt;/mxCell&gt;&#10;      &lt;/root&gt;&#10;    &lt;/mxGraphModel&gt;&#10;  &lt;/diagram&gt;&#10;&lt;/mxfile&gt;&#10;"><defs/><g><g><rect x="0" y="0" width="43" height="25.8" fill="none" stroke="none" pointer-events="all"/><path d="M 26.79 21.9 C 24.71 24.08 21.37 25.8 17.6 25.8 C 14.76 25.8 11.28 24.65 8.89 22.34 C 2.5 22.25 0 19.72 0 16.45 C 0 13.75 2.14 11.85 4.96 10.95 C 5.94 5.15 10.72 0.84 16.7 0.35 C 22.57 0 26.71 3.36 28.44 6.21 C 30.33 5.82 32.28 5.67 34.28 6.75 C 36.03 7.73 37.06 9.35 37.68 10.81 C 40.84 11.87 43 13.88 43 16.34 C 43 19.33 40.75 21.92 35.35 22.3 C 32.55 22.49 29.91 22.21 26.79 21.9 Z" fill="#d5e8d4" stroke="none" pointer-events="all"/><path d="M 34.39 9.21 C 34.09 8.91 33.74 8.64 33.35 8.42 C 31.87 7.62 30.56 7.72 28.83 8.07 L 27.51 8.35 L 26.81 7.19 C 25.43 4.93 21.91 1.96 16.83 2.25 C 11.69 2.68 7.68 6.31 6.85 11.26 L 6.66 12.41 L 5.55 12.76 C 4.37 13.13 3.41 13.71 2.8 14.34 C 2.22 14.95 1.93 15.56 1.91 16.38 Z" fill-opacity="0.5" fill="#ffffff" stroke="none" pointer-events="all"/></g></g></svg>