<?xml version="1.0" encoding="UTF-8"?>
<!-- Do not edit this file with editors other than draw.io -->
<!DOCTYPE svg PUBLIC "-//W3C//DTD SVG 1.1//EN" "http://www.w3.org/Graphics/SVG/1.1/DTD/svg11.dtd">
<svg xmlns="http://www.w3.org/2000/svg" xmlns:xlink="http://www.w3.org/1999/xlink" version="1.1" width="59px" height="36px" viewBox="-0.5 -0.5 59 36" content="&lt;mxfile host=&quot;Electron&quot; modified=&quot;2024-05-28T17:54:04.235Z&quot; agent=&quot;Mozilla/5.0 (Windows NT 10.0; Win64; x64) AppleWebKit/537.36 (KHTML, like Gecko) draw.io/24.4.8 Chrome/124.0.6367.207 Electron/30.0.6 Safari/537.36&quot; version=&quot;24.4.8&quot; etag=&quot;TSceE6cLwfyRzS9cnD8H&quot; type=&quot;device&quot; scale=&quot;1&quot; border=&quot;0&quot;&gt;&#10;  &lt;diagram name=&quot;Page-1&quot; id=&quot;5Bvjrdi1N-M81EpGnBMx&quot;&gt;&#10;    &lt;mxGraphModel dx=&quot;519&quot; dy=&quot;352&quot; grid=&quot;1&quot; gridSize=&quot;10&quot; guides=&quot;1&quot; tooltips=&quot;1&quot; connect=&quot;1&quot; arrows=&quot;1&quot; fold=&quot;1&quot; page=&quot;1&quot; pageScale=&quot;1&quot; pageWidth=&quot;827&quot; pageHeight=&quot;1169&quot; math=&quot;0&quot; shadow=&quot;0&quot;&gt;&#10;      &lt;root&gt;&#10;        &lt;mxCell id=&quot;0&quot; /&gt;&#10;        &lt;mxCell id=&quot;1&quot; parent=&quot;0&quot; /&gt;&#10;        &lt;mxCell id=&quot;2&quot; value=&quot;&quot; style=&quot;points=[[0,0.64,0],[0.2,0.15,0],[0.4,0.01,0],[0.79,0.25,0],[1,0.65,0],[0.8,0.86,0],[0.41,1,0],[0.16,0.86,0]];verticalLabelPosition=bottom;sketch=0;html=1;verticalAlign=top;aspect=fixed;align=center;pointerEvents=1;shape=mxgraph.cisco19.cloud2;fillColor=#DAE8FC;strokeColor=#6c8ebf;&quot; vertex=&quot;1&quot; parent=&quot;1&quot;&gt;&#10;          &lt;mxGeometry x=&quot;216&quot; y=&quot;955.2&quot; width=&quot;58&quot; height=&quot;34.8&quot; as=&quot;geometry&quot; /&gt;&#10;        &lt;/mxCell&gt;&#10;      &lt;/root&gt;&#10;    &lt;/mxGraphModel&gt;&#10;  &lt;/diagram&gt;&#10;&lt;/mxfile&gt;&#10;"><defs/><g><g><rect x="0" y="0.2" width="58" height="34.8" fill="none" stroke="none" pointer-events="all"/><path d="M 36.14 29.74 C 33.33 32.67 28.83 35 23.74 35 C 19.91 35 15.22 33.46 11.99 30.33 C 3.37 30.21 0 26.79 0 22.39 C 0 18.75 2.88 16.18 6.7 14.97 C 8.01 7.14 14.46 1.34 22.52 0.67 C 30.44 0.2 36.03 4.73 38.36 8.58 C 40.92 8.05 43.53 7.85 46.24 9.3 C 48.59 10.63 49.98 12.81 50.83 14.78 C 55.09 16.21 58 18.92 58 22.23 C 58 26.27 54.97 29.76 47.68 30.28 C 43.91 30.53 40.35 30.15 36.14 29.74 Z" fill="#dae8fc" stroke="none" pointer-events="all"/><path d="M 46.39 12.62 C 45.98 12.21 45.51 11.85 44.99 11.55 C 42.99 10.48 41.22 10.61 38.89 11.09 L 37.1 11.46 L 36.16 9.9 C 34.31 6.85 29.55 2.84 22.7 3.23 C 15.77 3.82 10.36 8.72 9.24 15.39 L 8.98 16.93 L 7.48 17.41 C 5.9 17.91 4.6 18.69 3.78 19.54 C 2.99 20.37 2.6 21.19 2.58 22.29 Z" fill-opacity="0.5" fill="#ffffff" stroke="none" pointer-events="all"/></g></g></svg>