<?xml version="1.0" encoding="UTF-8"?>
<!-- Do not edit this file with editors other than draw.io -->
<!DOCTYPE svg PUBLIC "-//W3C//DTD SVG 1.1//EN" "http://www.w3.org/Graphics/SVG/1.1/DTD/svg11.dtd">
<svg xmlns="http://www.w3.org/2000/svg" xmlns:xlink="http://www.w3.org/1999/xlink" version="1.1" width="55px" height="36px" viewBox="-0.5 -0.5 55 36" content="&lt;mxfile host=&quot;Electron&quot; modified=&quot;2024-05-28T18:14:43.267Z&quot; agent=&quot;Mozilla/5.0 (Windows NT 10.0; Win64; x64) AppleWebKit/537.36 (KHTML, like Gecko) draw.io/24.4.8 Chrome/124.0.6367.207 Electron/30.0.6 Safari/537.36&quot; version=&quot;24.4.8&quot; etag=&quot;GMJyTkCKcnzOzxIfOdt6&quot; type=&quot;device&quot; scale=&quot;1&quot; border=&quot;0&quot;&gt;&#10;  &lt;diagram name=&quot;Page-1&quot; id=&quot;BHQAPOcbktDH5TABY_ME&quot;&gt;&#10;    &lt;mxGraphModel dx=&quot;519&quot; dy=&quot;352&quot; grid=&quot;1&quot; gridSize=&quot;10&quot; guides=&quot;1&quot; tooltips=&quot;1&quot; connect=&quot;1&quot; arrows=&quot;1&quot; fold=&quot;1&quot; page=&quot;1&quot; pageScale=&quot;1&quot; pageWidth=&quot;827&quot; pageHeight=&quot;1169&quot; math=&quot;0&quot; shadow=&quot;0&quot;&gt;&#10;      &lt;root&gt;&#10;        &lt;mxCell id=&quot;0&quot; /&gt;&#10;        &lt;mxCell id=&quot;1&quot; parent=&quot;0&quot; /&gt;&#10;        &lt;mxCell id=&quot;2&quot; value=&quot;&quot; style=&quot;sketch=0;pointerEvents=1;shadow=0;dashed=0;html=1;strokeColor=none;aspect=fixed;labelPosition=center;verticalLabelPosition=bottom;verticalAlign=top;align=center;outlineConnect=0;shape=mxgraph.vvd.cloud_computing;fillColor=#3C708A;gradientColor=none;&quot; vertex=&quot;1&quot; parent=&quot;1&quot;&gt;&#10;          &lt;mxGeometry x=&quot;406.5&quot; y=&quot;956.6&quot; width=&quot;55&quot; height=&quot;35.21&quot; as=&quot;geometry&quot; /&gt;&#10;        &lt;/mxCell&gt;&#10;      &lt;/root&gt;&#10;    &lt;/mxGraphModel&gt;&#10;  &lt;/diagram&gt;&#10;&lt;/mxfile&gt;&#10;"><defs/><g><g><rect x="-0.5" y="-0.4" width="55" height="35.21" fill="none" stroke="none" pointer-events="all"/><path d="M 33.62 -0.37 C 31.99 -0.4 30.52 -0.09 29.22 0.43 C 26.85 1.37 25.12 2.97 24.01 4.48 C 22.67 3.84 21.4 3.68 19.94 4.03 C 18.24 4.41 17.13 5.14 16.48 6.03 C 15.98 6.7 15.79 7.42 15.69 8.11 C 12.72 7.78 10.18 8.99 8.8 10.31 L 8.78 10.32 L 8.77 10.33 C 6.22 13.02 5.8 15.39 6.06 17.78 C 3.82 18.34 2.17 19.58 1.13 21.1 C 0 22.75 -0.47 24.67 -0.5 26.34 L -0.5 26.35 L -0.5 26.35 C -0.5 31.06 3.77 34.75 7.81 34.75 L 7.81 34.75 L 41.11 34.81 L 41.11 34.81 C 46.65 34.81 52.35 31.07 53.53 24.18 L 53.53 24.17 L 53.53 24.16 C 54.5 17.3 50.29 12.09 45.07 10.5 C 45.02 7.12 43.46 3.12 38.97 0.86 L 38.95 0.85 L 38.93 0.84 C 37.03 0.02 35.25 -0.34 33.62 -0.37 Z M 33.6 0.9 C 35.05 0.92 36.65 1.25 38.4 2.01 C 42.64 4.15 43.89 7.86 43.8 10.94 L 43.79 11.45 L 44.29 11.57 C 49.12 12.82 53.16 17.52 52.26 23.97 C 51.18 30.26 46.08 33.53 41.11 33.53 L 7.81 33.47 L 7.81 33.47 C 4.59 33.47 0.79 30.26 0.78 26.36 C 0.81 24.92 1.23 23.22 2.19 21.82 C 3.15 20.42 4.62 19.29 6.85 18.88 L 7.47 18.77 L 7.37 18.15 C 7 15.76 7.15 13.91 9.69 11.23 C 10.88 10.11 13.33 8.93 16.11 9.44 L 16.83 9.58 L 16.87 8.85 C 16.9 8.13 17.06 7.41 17.51 6.79 C 17.97 6.17 18.75 5.61 20.22 5.28 L 20.23 5.28 L 20.23 5.27 C 21.65 4.93 22.53 5.07 23.88 5.83 L 24.41 6.13 L 24.74 5.63 C 25.69 4.21 27.39 2.53 29.7 1.62 C 30.85 1.15 32.15 0.87 33.6 0.9 Z" fill="#3c708a" stroke="none" pointer-events="all"/></g></g></svg>