<?xml version="1.0" encoding="UTF-8"?>
<!-- Do not edit this file with editors other than draw.io -->
<!DOCTYPE svg PUBLIC "-//W3C//DTD SVG 1.1//EN" "http://www.w3.org/Graphics/SVG/1.1/DTD/svg11.dtd">
<svg xmlns="http://www.w3.org/2000/svg" xmlns:xlink="http://www.w3.org/1999/xlink" version="1.1" width="59px" height="36px" viewBox="-0.5 -0.5 59 36" content="&lt;mxfile host=&quot;Electron&quot; modified=&quot;2024-05-28T17:23:48.239Z&quot; agent=&quot;Mozilla/5.0 (Windows NT 10.0; Win64; x64) AppleWebKit/537.36 (KHTML, like Gecko) draw.io/24.4.8 Chrome/124.0.6367.207 Electron/30.0.6 Safari/537.36&quot; version=&quot;24.4.8&quot; etag=&quot;QTCxoX7V3Moj6gTt9aaj&quot; type=&quot;device&quot; scale=&quot;1&quot; border=&quot;0&quot;&gt;&#10;  &lt;diagram name=&quot;Page-1&quot; id=&quot;w7cxwyuNTrA7HvJaQxXr&quot;&gt;&#10;    &lt;mxGraphModel dx=&quot;519&quot; dy=&quot;352&quot; grid=&quot;1&quot; gridSize=&quot;10&quot; guides=&quot;1&quot; tooltips=&quot;1&quot; connect=&quot;1&quot; arrows=&quot;1&quot; fold=&quot;1&quot; page=&quot;1&quot; pageScale=&quot;1&quot; pageWidth=&quot;827&quot; pageHeight=&quot;1169&quot; math=&quot;0&quot; shadow=&quot;0&quot;&gt;&#10;      &lt;root&gt;&#10;        &lt;mxCell id=&quot;0&quot; /&gt;&#10;        &lt;mxCell id=&quot;1&quot; parent=&quot;0&quot; /&gt;&#10;        &lt;mxCell id=&quot;2&quot; value=&quot;&quot; style=&quot;points=[[0,0.64,0],[0.2,0.15,0],[0.4,0.01,0],[0.79,0.25,0],[1,0.65,0],[0.8,0.86,0],[0.41,1,0],[0.16,0.86,0]];verticalLabelPosition=bottom;sketch=0;html=1;verticalAlign=top;aspect=fixed;align=center;pointerEvents=1;shape=mxgraph.cisco19.cloud2;fillColor=#d5e8d4;strokeColor=#82b366;&quot; vertex=&quot;1&quot; parent=&quot;1&quot;&gt;&#10;          &lt;mxGeometry x=&quot;137&quot; y=&quot;1060&quot; width=&quot;58&quot; height=&quot;34.8&quot; as=&quot;geometry&quot; /&gt;&#10;        &lt;/mxCell&gt;&#10;      &lt;/root&gt;&#10;    &lt;/mxGraphModel&gt;&#10;  &lt;/diagram&gt;&#10;&lt;/mxfile&gt;&#10;"><defs/><g><g><rect x="0" y="0" width="58" height="34.8" fill="none" stroke="none" pointer-events="all"/><path d="M 36.14 29.54 C 33.33 32.47 28.83 34.8 23.74 34.8 C 19.91 34.8 15.22 33.26 11.99 30.13 C 3.37 30.01 0 26.59 0 22.19 C 0 18.55 2.88 15.98 6.7 14.77 C 8.01 6.94 14.46 1.14 22.52 0.47 C 30.44 0 36.03 4.53 38.36 8.38 C 40.92 7.85 43.53 7.65 46.24 9.1 C 48.59 10.43 49.98 12.61 50.83 14.58 C 55.09 16.01 58 18.72 58 22.03 C 58 26.07 54.97 29.56 47.68 30.08 C 43.91 30.33 40.35 29.95 36.14 29.54 Z" fill="#d5e8d4" stroke="none" pointer-events="all"/><path d="M 46.39 12.42 C 45.98 12.01 45.51 11.65 44.99 11.35 C 42.99 10.28 41.22 10.41 38.89 10.89 L 37.1 11.26 L 36.16 9.7 C 34.31 6.65 29.55 2.64 22.7 3.03 C 15.77 3.62 10.36 8.52 9.24 15.19 L 8.98 16.73 L 7.48 17.21 C 5.9 17.71 4.6 18.49 3.78 19.34 C 2.99 20.17 2.6 20.99 2.58 22.09 Z" fill-opacity="0.5" fill="#ffffff" stroke="none" pointer-events="all"/></g></g></svg>