<?xml version="1.0" encoding="UTF-8"?>
<!-- Do not edit this file with editors other than draw.io -->
<!DOCTYPE svg PUBLIC "-//W3C//DTD SVG 1.1//EN" "http://www.w3.org/Graphics/SVG/1.1/DTD/svg11.dtd">
<svg xmlns="http://www.w3.org/2000/svg" xmlns:xlink="http://www.w3.org/1999/xlink" version="1.1" width="44px" height="27px" viewBox="-0.5 -0.5 44 27" content="&lt;mxfile host=&quot;Electron&quot; modified=&quot;2024-05-28T17:57:12.465Z&quot; agent=&quot;Mozilla/5.0 (Windows NT 10.0; Win64; x64) AppleWebKit/537.36 (KHTML, like Gecko) draw.io/24.4.8 Chrome/124.0.6367.207 Electron/30.0.6 Safari/537.36&quot; version=&quot;24.4.8&quot; etag=&quot;GIXF4AcVULhvJkjLRyy0&quot; type=&quot;device&quot; scale=&quot;1&quot; border=&quot;0&quot;&gt;&#10;  &lt;diagram name=&quot;Page-1&quot; id=&quot;4AjFF0nrRtSv2t3vvqqc&quot;&gt;&#10;    &lt;mxGraphModel dx=&quot;519&quot; dy=&quot;352&quot; grid=&quot;1&quot; gridSize=&quot;10&quot; guides=&quot;1&quot; tooltips=&quot;1&quot; connect=&quot;1&quot; arrows=&quot;1&quot; fold=&quot;1&quot; page=&quot;1&quot; pageScale=&quot;1&quot; pageWidth=&quot;827&quot; pageHeight=&quot;1169&quot; math=&quot;0&quot; shadow=&quot;0&quot;&gt;&#10;      &lt;root&gt;&#10;        &lt;mxCell id=&quot;0&quot; /&gt;&#10;        &lt;mxCell id=&quot;1&quot; parent=&quot;0&quot; /&gt;&#10;        &lt;mxCell id=&quot;2&quot; value=&quot;&quot; style=&quot;points=[[0,0.64,0],[0.2,0.15,0],[0.4,0.01,0],[0.79,0.25,0],[1,0.65,0],[0.8,0.86,0],[0.41,1,0],[0.16,0.86,0]];verticalLabelPosition=bottom;sketch=0;html=1;verticalAlign=top;aspect=fixed;align=center;pointerEvents=1;shape=mxgraph.cisco19.cloud2;fillColor=#dae8fc;strokeColor=#6c8ebf;&quot; vertex=&quot;1&quot; parent=&quot;1&quot;&gt;&#10;          &lt;mxGeometry x=&quot;351.2&quot; y=&quot;1022.94&quot; width=&quot;43&quot; height=&quot;25.8&quot; as=&quot;geometry&quot; /&gt;&#10;        &lt;/mxCell&gt;&#10;      &lt;/root&gt;&#10;    &lt;/mxGraphModel&gt;&#10;  &lt;/diagram&gt;&#10;&lt;/mxfile&gt;&#10;"><defs/><g><g><rect x="0.2" y="-0.06" width="43" height="25.8" fill="none" stroke="none" pointer-events="all"/><path d="M 26.99 21.84 C 24.91 24.02 21.57 25.74 17.8 25.74 C 14.96 25.74 11.48 24.59 9.09 22.28 C 2.7 22.19 0.2 19.66 0.2 16.39 C 0.2 13.69 2.34 11.79 5.16 10.89 C 6.14 5.09 10.92 0.78 16.9 0.29 C 22.77 -0.06 26.91 3.3 28.64 6.15 C 30.53 5.76 32.48 5.61 34.48 6.69 C 36.23 7.67 37.26 9.29 37.88 10.75 C 41.04 11.81 43.2 13.82 43.2 16.28 C 43.2 19.27 40.95 21.86 35.55 22.24 C 32.75 22.43 30.11 22.15 26.99 21.84 Z" fill="#dae8fc" stroke="none" pointer-events="all"/><path d="M 34.59 9.15 C 34.29 8.85 33.94 8.58 33.55 8.36 C 32.07 7.56 30.76 7.66 29.03 8.01 L 27.71 8.29 L 27.01 7.13 C 25.63 4.87 22.11 1.9 17.03 2.19 C 11.89 2.62 7.88 6.25 7.05 11.2 L 6.86 12.35 L 5.75 12.7 C 4.57 13.07 3.61 13.65 3 14.28 C 2.42 14.89 2.13 15.5 2.11 16.32 Z" fill-opacity="0.5" fill="#ffffff" stroke="none" pointer-events="all"/></g></g></svg>