<?xml version="1.0" encoding="UTF-8"?>
<!-- Do not edit this file with editors other than draw.io -->
<!DOCTYPE svg PUBLIC "-//W3C//DTD SVG 1.1//EN" "http://www.w3.org/Graphics/SVG/1.1/DTD/svg11.dtd">
<svg xmlns="http://www.w3.org/2000/svg" xmlns:xlink="http://www.w3.org/1999/xlink" version="1.1" width="57px" height="57px" viewBox="-0.5 -0.5 57 57" content="&lt;mxfile host=&quot;Electron&quot; modified=&quot;2024-05-27T21:18:41.135Z&quot; agent=&quot;Mozilla/5.0 (Windows NT 10.0; Win64; x64) AppleWebKit/537.36 (KHTML, like Gecko) draw.io/24.4.8 Chrome/124.0.6367.207 Electron/30.0.6 Safari/537.36&quot; version=&quot;24.4.8&quot; etag=&quot;k64RQEOxYHXAvhFuazuW&quot; type=&quot;device&quot; scale=&quot;1&quot; border=&quot;0&quot;&gt;&#10;  &lt;diagram name=&quot;Page-1&quot; id=&quot;XF-dydApnfFchLz9yuj8&quot;&gt;&#10;    &lt;mxGraphModel dx=&quot;519&quot; dy=&quot;352&quot; grid=&quot;1&quot; gridSize=&quot;10&quot; guides=&quot;1&quot; tooltips=&quot;1&quot; connect=&quot;1&quot; arrows=&quot;1&quot; fold=&quot;1&quot; page=&quot;1&quot; pageScale=&quot;1&quot; pageWidth=&quot;827&quot; pageHeight=&quot;1169&quot; math=&quot;0&quot; shadow=&quot;0&quot;&gt;&#10;      &lt;root&gt;&#10;        &lt;mxCell id=&quot;0&quot; /&gt;&#10;        &lt;mxCell id=&quot;1&quot; parent=&quot;0&quot; /&gt;&#10;        &lt;mxCell id=&quot;2&quot; value=&quot;&quot; style=&quot;sketch=0;points=[[0.5,0,0],[1,0.5,0],[0.5,1,0],[0,0.5,0],[0.145,0.145,0],[0.8555,0.145,0],[0.855,0.8555,0],[0.145,0.855,0]];verticalLabelPosition=bottom;html=1;verticalAlign=top;aspect=fixed;align=center;pointerEvents=1;shape=mxgraph.cisco19.rect;prIcon=router;fillColor=#3C708A;strokeColor=#FFFFFF;&quot; vertex=&quot;1&quot; parent=&quot;1&quot;&gt;&#10;          &lt;mxGeometry x=&quot;398.6&quot; y=&quot;880&quot; width=&quot;56&quot; height=&quot;56&quot; as=&quot;geometry&quot; /&gt;&#10;        &lt;/mxCell&gt;&#10;      &lt;/root&gt;&#10;    &lt;/mxGraphModel&gt;&#10;  &lt;/diagram&gt;&#10;&lt;/mxfile&gt;&#10;"><defs/><g><g><ellipse cx="27.6" cy="28" rx="28" ry="28" fill="#3c708a" stroke="none" pointer-events="all"/><rect x="-0.4" y="0" width="56" height="56" fill="none" stroke="none" pointer-events="all"/><path d="M 42.25 45.22 L 35.19 38.3 L 32.31 41.23 L 30.11 30.65 L 40.76 32.62 L 37.9 35.52 L 44.97 42.45 Z M 26.4 31.78 L 19.47 38.84 L 22.4 41.72 L 11.83 43.92 L 13.79 33.28 L 16.7 36.12 L 23.62 29.06 Z M 13.06 10.72 L 20.12 17.65 L 23 14.72 L 25.2 25.29 L 14.55 23.33 L 17.4 20.42 L 10.34 13.5 Z M 28.62 24.09 L 35.55 17.02 L 32.62 14.14 L 43.19 11.95 L 41.23 22.59 L 38.33 19.74 L 31.4 26.81 Z M 27.6 0 C 12.14 0 -0.4 12.54 -0.4 28 C -0.4 43.46 12.14 56 27.6 56 C 43.06 56 55.6 43.46 55.6 28 C 55.6 12.54 43.06 0 27.6 0 Z M 27.6 0.71 C 42.68 0.71 54.89 12.92 54.89 28 C 54.89 43.08 42.68 55.29 27.6 55.29 C 12.52 55.29 0.31 43.08 0.31 28 C 0.31 12.92 12.52 0.71 27.6 0.71 Z" fill="#ffffff" stroke="none" pointer-events="all"/></g></g></svg>