<?xml version="1.0" encoding="UTF-8"?>
<!-- Do not edit this file with editors other than draw.io -->
<!DOCTYPE svg PUBLIC "-//W3C//DTD SVG 1.1//EN" "http://www.w3.org/Graphics/SVG/1.1/DTD/svg11.dtd">
<svg xmlns="http://www.w3.org/2000/svg" xmlns:xlink="http://www.w3.org/1999/xlink" version="1.1" width="57px" height="57px" viewBox="-0.5 -0.5 57 57" content="&lt;mxfile host=&quot;Electron&quot; modified=&quot;2024-05-26T18:38:38.854Z&quot; agent=&quot;Mozilla/5.0 (Windows NT 10.0; Win64; x64) AppleWebKit/537.36 (KHTML, like Gecko) draw.io/24.4.8 Chrome/124.0.6367.207 Electron/30.0.6 Safari/537.36&quot; version=&quot;24.4.8&quot; etag=&quot;e1cuPKMFxfvY9P6DGn5p&quot; type=&quot;device&quot; scale=&quot;1&quot; border=&quot;0&quot;&gt;&#10;  &lt;diagram name=&quot;Page-1&quot; id=&quot;jrKyzuCOBdICGoWp37Pb&quot;&gt;&#10;    &lt;mxGraphModel dx=&quot;1038&quot; dy=&quot;704&quot; grid=&quot;1&quot; gridSize=&quot;10&quot; guides=&quot;1&quot; tooltips=&quot;1&quot; connect=&quot;1&quot; arrows=&quot;1&quot; fold=&quot;1&quot; page=&quot;1&quot; pageScale=&quot;1&quot; pageWidth=&quot;827&quot; pageHeight=&quot;1169&quot; math=&quot;0&quot; shadow=&quot;0&quot;&gt;&#10;      &lt;root&gt;&#10;        &lt;mxCell id=&quot;0&quot; /&gt;&#10;        &lt;mxCell id=&quot;1&quot; parent=&quot;0&quot; /&gt;&#10;        &lt;mxCell id=&quot;2&quot; value=&quot;&quot; style=&quot;sketch=0;points=[[0.5,0,0],[1,0.5,0],[0.5,1,0],[0,0.5,0],[0.145,0.145,0],[0.8555,0.145,0],[0.855,0.8555,0],[0.145,0.855,0]];verticalLabelPosition=bottom;html=1;verticalAlign=top;aspect=fixed;align=center;pointerEvents=1;shape=mxgraph.cisco19.rect;prIcon=router_with_firewall;fillColor=#FAFAFA;strokeColor=#3C708A;&quot; vertex=&quot;1&quot; parent=&quot;1&quot;&gt;&#10;          &lt;mxGeometry x=&quot;450&quot; y=&quot;750&quot; width=&quot;56&quot; height=&quot;56&quot; as=&quot;geometry&quot; /&gt;&#10;        &lt;/mxCell&gt;&#10;      &lt;/root&gt;&#10;    &lt;/mxGraphModel&gt;&#10;  &lt;/diagram&gt;&#10;&lt;/mxfile&gt;&#10;"><defs/><g><g><ellipse cx="28" cy="28" rx="28" ry="28" fill="#fafafa" stroke="none" pointer-events="all"/><rect x="0" y="0" width="56" height="56" fill="none" stroke="none" pointer-events="all"/><path d="M 9.84 7.09 L 15.18 7.09 L 15.18 14.11 L 4.12 14.11 L 2.74 16.79 L 2.74 22.74 L 0.88 22.74 L 0.58 24.45 L 15.18 24.45 L 15.18 31.4 L 0.64 31.4 L 0.87 33.1 L 2.74 33.1 L 2.74 39.17 L 4.05 41.83 L 15.18 41.83 L 15.18 48.93 L 10.1 48.93 L 12.3 50.64 L 43.6 50.64 L 45.95 48.93 L 41.77 48.93 L 41.77 41.83 L 51.88 41.83 L 54.23 36.61 L 54.23 33.1 L 54.99 33.1 L 55.37 31.4 L 41.77 31.4 L 41.77 24.45 L 55.31 24.45 L 55 22.74 L 54.23 22.74 L 54.23 19.22 L 51.98 14.11 L 41.77 14.11 L 41.77 7.09 L 46.07 7.09 L 43.86 5.39 L 12.04 5.39 Z M 16.88 7.09 L 40.07 7.09 L 40.07 14.11 L 16.88 14.11 Z M 4.45 15.82 L 27.64 15.82 L 27.64 22.74 L 4.45 22.74 Z M 29.34 15.82 L 52.53 15.82 L 52.53 22.74 L 29.34 22.74 Z M 16.88 24.45 L 40.07 24.45 L 40.07 31.4 L 16.88 31.4 Z M 4.45 33.1 L 27.64 33.1 L 27.64 40.13 L 4.45 40.13 Z M 29.34 33.1 L 52.53 33.1 L 52.53 40.13 L 29.34 40.13 Z M 16.88 41.83 L 40.07 41.83 L 40.07 48.93 L 16.88 48.93 Z" fill="#3c708a" stroke="none" pointer-events="all"/><path d="M 9.84 7.09 L 15.18 7.09 L 15.18 14.11 L 4.12 14.11 L 2.74 16.79 L 2.74 22.74 L 0.88 22.74 L 0.58 24.45 L 15.18 24.45 L 15.18 31.4 L 0.64 31.4 L 0.87 33.1 L 2.74 33.1 L 2.74 39.17 L 4.05 41.83 L 15.18 41.83 L 15.18 48.93 L 10.1 48.93 L 12.3 50.64 L 43.6 50.64 L 45.95 48.93 L 41.77 48.93 L 41.77 41.83 L 51.88 41.83 L 54.23 36.61 L 54.23 33.1 L 54.99 33.1 L 55.37 31.4 L 41.77 31.4 L 41.77 24.45 L 55.31 24.45 L 55 22.74 L 54.23 22.74 L 54.23 19.22 L 51.98 14.11 L 41.77 14.11 L 41.77 7.09 L 46.07 7.09 L 43.86 5.39 L 12.04 5.39 Z M 16.88 7.09 L 40.07 7.09 L 40.07 14.11 L 16.88 14.11 Z M 4.45 15.82 L 27.64 15.82 L 27.64 22.74 L 4.45 22.74 Z M 29.34 15.82 L 52.53 15.82 L 52.53 22.74 L 29.34 22.74 Z M 16.88 24.45 L 40.07 24.45 L 40.07 31.4 L 16.88 31.4 Z M 4.45 33.1 L 27.64 33.1 L 27.64 40.13 L 4.45 40.13 Z M 29.34 33.1 L 52.53 33.1 L 52.53 40.13 L 29.34 40.13 Z M 16.88 41.83 L 40.07 41.83 L 40.07 48.93 L 16.88 48.93 Z" fill-opacity="0.5" fill="#ffffff" stroke="none" pointer-events="all"/><rect x="0" y="0" width="0" height="0" fill="none" stroke="#3c708a" pointer-events="all"/><path d="M 42.94 45.62 L 35.79 38.61 L 32.88 41.58 L 30.65 30.87 L 41.43 32.86 L 38.54 35.8 L 45.7 42.82 Z M 26.89 32.01 L 19.88 39.16 L 22.84 42.08 L 12.14 44.3 L 14.13 33.53 L 17.07 36.41 L 24.08 29.26 Z M 13.39 10.69 L 20.54 17.71 L 23.45 14.74 L 25.68 25.44 L 14.9 23.46 L 17.79 20.51 L 10.63 13.5 Z M 29.14 24.22 L 36.16 17.07 L 33.19 14.16 L 43.9 11.93 L 41.91 22.71 L 38.97 19.82 L 31.95 26.98 Z M 28 0 C 12.54 0 0 12.54 0 28 C 0 43.46 12.54 56 28 56 C 43.46 56 56 43.46 56 28 C 56 12.54 43.46 0 28 0 Z M 28 0.71 C 43.08 0.71 55.29 12.92 55.29 28 C 55.29 43.08 43.08 55.29 28 55.29 C 12.92 55.29 0.71 43.08 0.71 28 C 0.71 12.92 12.92 0.71 28 0.71 Z" fill="#3c708a" stroke="none" pointer-events="all"/></g></g></svg>